<svg width="482" height="325" viewBox="0 0 482 325" fill="none" xmlns="http://www.w3.org/2000/svg">
<g filter="url(#filter0_d_116_1292)">
<path d="M395.264 37H333.737C330.016 37 327 40.0162 327 43.7368V105.264C327 108.985 330.016 112.001 333.737 112.001H395.264C398.985 112.001 402.001 108.985 402.001 105.264V43.7368C402.001 40.0162 398.985 37 395.264 37Z" fill="black"/>
</g>
<path d="M395.264 37H333.737C330.016 37 327 40.0162 327 43.7368V105.264C327 108.985 330.016 112.001 333.737 112.001H395.264C398.985 112.001 402.001 108.985 402.001 105.264V43.7368C402.001 40.0162 398.985 37 395.264 37Z" fill="#FF7474"/>
<path fill-rule="evenodd" clip-rule="evenodd" d="M361.678 46.1278C356.672 46.6817 351.509 48.7699 347.354 51.9216C345.523 53.3103 343.351 55.4889 341.849 57.443C340.545 59.1387 338.693 62.4379 337.988 64.3222C337.855 64.6779 337.711 65.0521 337.668 65.1537C337.333 65.948 336.682 68.3849 336.409 69.8652C335.864 72.8272 335.864 77.1575 336.409 80.1196C336.682 81.5998 337.333 84.0368 337.668 84.8311C337.711 84.9327 337.855 85.3068 337.988 85.6625C338.419 86.8129 339.859 89.6043 340.632 90.7865C344.258 96.3329 349.535 100.425 355.762 102.519C358.891 103.572 361.563 104 365.003 104C368.444 104 371.115 103.572 374.245 102.519C378.606 101.053 382.577 98.5605 385.746 95.3006C387.298 93.7037 388.206 92.5743 389.375 90.7865C390.148 89.6043 391.588 86.8129 392.019 85.6625C392.152 85.3068 392.296 84.9327 392.339 84.8311C392.674 84.0368 393.325 81.5998 393.598 80.1196C393.874 78.62 394 77.0104 394 74.9924C394 72.9744 393.874 71.3647 393.598 69.8652C393.325 68.3849 392.674 65.948 392.339 65.1537C392.296 65.0521 392.152 64.6779 392.019 64.3222C391.588 63.1719 390.148 60.3805 389.375 59.1983C388.206 57.4105 387.298 56.281 385.746 54.6842C381.104 49.9092 374.745 46.8139 368.144 46.1165C366.628 45.9564 363.173 45.9624 361.678 46.1278ZM387.356 61.7817V65.477H383.661H379.966V61.7817V58.0865H383.661H387.356V61.7817ZM378.304 60.3036V62.0589H376.595H374.886V60.3652C374.886 59.4337 374.914 58.6438 374.948 58.61C374.982 58.5761 375.751 58.5484 376.657 58.5484H378.304V60.3036ZM378.95 65.8004V68.2485H376.503H374.055V65.8004V63.3522H376.503H378.95V65.8004ZM367.035 64.5994V65.1075H359.046H351.056V74.0224V82.9372H365.28H379.505V79.8378V76.7384L380.036 76.7661L380.567 76.7938L380.594 80.1658L380.621 83.5377L382.33 85.5701C384.007 87.5659 384.038 87.6092 383.998 87.9721C383.976 88.1753 383.89 88.4975 383.808 88.688L383.659 89.0345H365.231H346.803L346.702 88.7804C346.647 88.6407 346.581 88.3573 346.556 88.1506C346.51 87.7778 346.524 87.7577 348.273 85.6562L350.037 83.5377L350.038 74.3833L350.04 65.229L350.253 64.8218C350.661 64.0416 350.058 64.0916 359.069 64.0915L367.035 64.0913V64.5994ZM372.115 66.5394V68.2485H370.407H368.698V66.5394V64.8303H370.407H372.115V66.5394ZM373.48 70.8583L373.455 72.5443H371.746H370.037L370.012 70.8583L369.987 69.1723H371.746H373.505L373.48 70.8583ZM383.639 72.244L383.615 75.2233L380.682 75.2477L377.75 75.2721V72.2684V69.2647H380.707H383.664L383.639 72.244ZM367.754 71.7845L367.779 73.2418L366.322 73.2164L364.865 73.1909L364.839 71.8556C364.825 71.1212 364.834 70.4654 364.86 70.3982C364.897 70.3027 365.215 70.2816 366.318 70.3016L367.728 70.3271L367.754 71.7845ZM376.62 74.6921L376.645 76.3781H374.888H373.131V74.7307C373.131 73.8245 373.16 73.0546 373.195 73.0196C373.23 72.9845 374.009 72.9673 374.927 72.981L376.595 73.0062L376.62 74.6921ZM370.638 75.4104V76.8447L369.183 76.8192L367.728 76.7938L367.703 75.385L367.677 73.9762H369.157H370.638V75.4104ZM365.906 75.7545L365.932 77.2096H364.498H363.064V75.7853C363.064 74.7331 363.094 74.3486 363.179 74.3133C363.243 74.287 363.876 74.2731 364.588 74.2824L365.881 74.2995L365.906 75.7545ZM360.356 86.7975L360.095 87.1406L365.289 87.1645C368.145 87.1777 370.5 87.1701 370.523 87.1477C370.545 87.1255 370.445 86.9588 370.3 86.7775L370.037 86.4478L365.327 86.4511L360.616 86.4545L360.356 86.7975ZM359.739 87.5564C359.739 87.617 361.663 87.6487 365.327 87.6487C368.99 87.6487 370.915 87.617 370.915 87.5564C370.915 87.4957 368.99 87.464 365.327 87.464C361.663 87.464 359.739 87.4957 359.739 87.5564Z" fill="#590E0E"/>
<g filter="url(#filter1_d_116_1292)">
<path d="M87.1493 294.352H39.0201C37.3521 294.352 36 293.013 36 291.362V276.99C36 275.339 37.3521 274 39.0201 274H87.1493C88.817 274 90.1695 275.339 90.1695 276.99V291.362C90.1695 293.013 88.817 294.352 87.1493 294.352Z" fill="black"/>
</g>
<path d="M87.1493 294.352H39.0201C37.3521 294.352 36 293.013 36 291.362V276.99C36 275.339 37.3521 274 39.0201 274H87.1493C88.817 274 90.1695 275.339 90.1695 276.99V291.362C90.1695 293.013 88.817 294.352 87.1493 294.352Z" fill="white"/>
<path d="M79.1595 291.658C83.2877 291.658 86.6344 288.345 86.6344 284.258C86.6344 280.171 83.2877 276.857 79.1595 276.857C75.0312 276.857 71.6846 280.171 71.6846 284.258C71.6846 288.345 75.0312 291.658 79.1595 291.658Z" fill="#DFD9FF"/>
<path d="M65.7141 279.078H41.032C40.6233 279.078 40.292 279.409 40.292 279.818C40.292 280.226 40.6233 280.558 41.032 280.558H65.7141C66.1228 280.558 66.4541 280.226 66.4541 279.818C66.4541 279.409 66.1228 279.078 65.7141 279.078Z" fill="#DFD9FF"/>
<path d="M65.7141 283.518H41.032C40.6233 283.518 40.292 283.849 40.292 284.258C40.292 284.667 40.6233 284.998 41.032 284.998H65.7141C66.1228 284.998 66.4541 284.667 66.4541 284.258C66.4541 283.849 66.1228 283.518 65.7141 283.518Z" fill="#DFD9FF"/>
<path d="M65.7141 287.958H41.032C40.6233 287.958 40.292 288.29 40.292 288.698C40.292 289.107 40.6233 289.438 41.032 289.438H65.7141C66.1228 289.438 66.4541 289.107 66.4541 288.698C66.4541 288.29 66.1228 287.958 65.7141 287.958Z" fill="#DFD9FF"/>
<g filter="url(#filter2_d_116_1292)">
<path d="M91.894 151.702H26.4571C23.4432 151.702 21 149.259 21 146.246V68.4556C21 65.4425 23.4432 63 26.4571 63H91.894C94.9077 63 97.3509 65.4425 97.3509 68.4556V146.246C97.3509 149.259 94.9077 151.702 91.894 151.702Z" fill="black"/>
</g>
<path d="M91.894 151.702H26.4571C23.4432 151.702 21 149.259 21 146.246V68.4556C21 65.4425 23.4432 63 26.4571 63H91.894C94.9077 63 97.3509 65.4425 97.3509 68.4556V146.246C97.3509 149.259 94.9077 151.702 91.894 151.702Z" fill="white"/>
<path d="M72.9795 114.127V128.366" stroke="#979797" stroke-width="0.5"/>
<path fill-rule="evenodd" clip-rule="evenodd" d="M72.9821 129.744L74.3178 126.988H71.6465L72.9821 129.744Z" fill="#D8D8D8"/>
<path d="M72.9821 106.778C73.7198 106.778 74.3178 106.161 74.3178 105.4C74.3178 104.639 73.7198 104.022 72.9821 104.022C72.2445 104.022 71.6465 104.639 71.6465 105.4C71.6465 106.161 72.2445 106.778 72.9821 106.778Z" fill="#97EFF5"/>
<path d="M72.9821 132.5C73.7198 132.5 74.3178 131.883 74.3178 131.122C74.3178 130.361 73.7198 129.744 72.9821 129.744C72.2445 129.744 71.6465 130.361 71.6465 131.122C71.6465 131.883 72.2445 132.5 72.9821 132.5Z" fill="#D8D8D8"/>
<path d="M72.9821 115.046C73.7198 115.046 74.3178 114.429 74.3178 113.668C74.3178 112.907 73.7198 112.29 72.9821 112.29C72.2445 112.29 71.6465 112.907 71.6465 113.668C71.6465 114.429 72.2445 115.046 72.9821 115.046Z" fill="#59CCD2"/>
<path d="M72.9821 140.768C73.7198 140.768 74.3178 140.151 74.3178 139.39C74.3178 138.629 73.7198 138.012 72.9821 138.012C72.2445 138.012 71.6465 138.629 71.6465 139.39C71.6465 140.151 72.2445 140.768 72.9821 140.768Z" fill="#59CCD2"/>
<path d="M84.4863 104.941H62.3642C62.08 104.941 61.8496 105.171 61.8496 105.456V113.613C61.8496 113.897 62.08 114.127 62.3642 114.127H84.4863C84.7705 114.127 85.0009 113.897 85.0009 113.613V105.456C85.0009 105.171 84.7705 104.941 84.4863 104.941Z" fill="#FFD678"/>
<path d="M84.4863 130.663H62.3642C62.08 130.663 61.8496 130.893 61.8496 131.177V139.335C61.8496 139.619 62.08 139.849 62.3642 139.849H84.4863C84.7705 139.849 85.0009 139.619 85.0009 139.335V131.177C85.0009 130.893 84.7705 130.663 84.4863 130.663Z" fill="#6CFCE0"/>
<path d="M50.7175 78.3005C51.4552 78.3005 52.0531 77.6836 52.0531 76.9225C52.0531 76.1615 51.4552 75.5446 50.7175 75.5446C49.9798 75.5446 49.3818 76.1615 49.3818 76.9225C49.3818 77.6836 49.9798 78.3005 50.7175 78.3005Z" fill="#D8D8D8"/>
<path d="M43.5944 126.07C44.3321 126.07 44.9301 125.453 44.9301 124.692C44.9301 123.931 44.3321 123.314 43.5944 123.314C42.8568 123.314 42.2588 123.931 42.2588 124.692C42.2588 125.453 42.8568 126.07 43.5944 126.07Z" fill="#97EFF5"/>
<path d="M43.5944 134.337C44.3321 134.337 44.9301 133.72 44.9301 132.959C44.9301 132.198 44.3321 131.581 43.5944 131.581C42.8568 131.581 42.2588 132.198 42.2588 132.959C42.2588 133.72 42.8568 134.337 43.5944 134.337Z" fill="#59CCD2"/>
<path d="M50.7153 78.3005V79.8561C50.7153 80.1351 50.6021 80.402 50.4016 80.5959L43.9055 86.8789C43.705 87.0728 43.5918 87.3398 43.5918 87.6187V97.5918" stroke="#979797" stroke-width="0.5"/>
<path d="M43.5918 107.697V121.936" stroke="#979797" stroke-width="0.5"/>
<path d="M55.0986 124.232H32.9765C32.6923 124.232 32.4619 124.463 32.4619 124.747V132.904C32.4619 133.188 32.6923 133.419 32.9765 133.419H55.0986C55.3828 133.419 55.6133 133.188 55.6133 132.904V124.747C55.6133 124.463 55.3828 124.232 55.0986 124.232Z" fill="#6CFCE0"/>
<path d="M62.2227 71.8701H40.1006C39.8163 71.8701 39.5859 72.1005 39.5859 72.3847V75.9487C39.5859 76.2329 39.8163 76.4633 40.1006 76.4633H62.2227C62.5069 76.4633 62.7373 76.2329 62.7373 75.9487V72.3847C62.7373 72.1005 62.5069 71.8701 62.2227 71.8701Z" fill="#76A4FF"/>
<path d="M43.5944 100.348C44.3321 100.348 44.9301 99.731 44.9301 98.97C44.9301 98.2089 44.3321 97.592 43.5944 97.592C42.8568 97.592 42.2588 98.2089 42.2588 98.97C42.2588 99.731 42.8568 100.348 43.5944 100.348Z" fill="#97EFF5"/>
<path d="M43.5944 108.616C44.3321 108.616 44.9301 107.999 44.9301 107.238C44.9301 106.477 44.3321 105.86 43.5944 105.86C42.8568 105.86 42.2588 106.477 42.2588 107.238C42.2588 107.999 42.8568 108.616 43.5944 108.616Z" fill="#59CCD2"/>
<path d="M55.0986 98.5106H32.9765C32.6923 98.5106 32.4619 98.741 32.4619 99.0252V107.182C32.4619 107.467 32.6923 107.697 32.9765 107.697H55.0986C55.3828 107.697 55.6133 107.467 55.6133 107.182V99.0252C55.6133 98.741 55.3828 98.5106 55.0986 98.5106Z" fill="#FFD678"/>
<path fill-rule="evenodd" clip-rule="evenodd" d="M43.5944 97.592L44.9301 94.8361H42.2588L43.5944 97.592Z" fill="#D8D8D8"/>
<path fill-rule="evenodd" clip-rule="evenodd" d="M43.5944 123.314L44.9301 120.558H42.2588L43.5944 123.314Z" fill="#D8D8D8"/>
<path d="M454.204 268.725C452.688 268.725 451.459 269.957 451.459 271.477C451.459 272.997 452.688 274.23 454.204 274.23C455.72 274.23 456.949 272.997 456.949 271.477C456.949 269.957 455.72 268.725 454.204 268.725Z" fill="black"/>
<path d="M454.205 271.477V290.521C454.205 295.206 450.408 299.003 445.723 299.003H341.652H251.228C245.027 299.003 240 293.976 240 287.775V256.645" stroke="black" stroke-width="1.25902"/>
<path d="M398.52 220.642C397.691 221.338 397.409 222.492 397.824 223.495L399.467 227.467C399.777 228.216 399.694 229.062 399.268 229.751C398.679 230.706 398.166 231.698 397.73 232.717C397.412 233.463 396.768 234.019 395.976 234.195L391.784 235.125C390.726 235.36 389.944 236.253 389.851 237.333L389.55 240.836C389.457 241.915 390.074 242.933 391.075 243.351L395.056 245.011C395.805 245.323 396.344 245.983 396.531 246.772C396.786 247.847 397.12 248.908 397.536 249.947C397.838 250.7 397.776 251.549 397.342 252.233L395.035 255.87C394.456 256.785 394.536 257.971 395.234 258.803L397.496 261.499C398.194 262.33 399.348 262.615 400.35 262.203L404.349 260.556C405.096 260.249 405.941 260.334 406.629 260.759C407.574 261.342 408.553 261.85 409.56 262.283C410.306 262.603 410.863 263.25 411.041 264.042L411.991 268.277C412.228 269.335 413.123 270.12 414.203 270.216L417.704 270.527C418.784 270.623 419.8 270.008 420.214 269.008L421.878 264.993C422.188 264.246 422.846 263.708 423.634 263.522C424.694 263.274 425.739 262.947 426.763 262.541C427.514 262.242 428.362 262.308 429.045 262.742L432.717 265.079C433.633 265.661 434.819 265.584 435.647 264.888L438.337 262.632C439.166 261.936 439.448 260.782 439.033 259.779L437.37 255.757C437.06 255.008 437.143 254.163 437.568 253.475C438.145 252.537 438.649 251.564 439.077 250.564C439.397 249.82 440.04 249.266 440.831 249.09L445.073 248.148C446.131 247.914 446.912 247.02 447.006 245.94L447.307 242.438C447.4 241.359 446.783 240.341 445.782 239.923L441.776 238.252C441.027 237.94 440.487 237.279 440.301 236.488C440.05 235.422 439.719 234.369 439.309 233.337C439.01 232.585 439.073 231.739 439.505 231.057L441.822 227.404C442.401 226.489 442.321 225.303 441.623 224.471L439.361 221.775C438.663 220.944 437.509 220.659 436.508 221.071L432.525 222.711C431.776 223.019 430.93 222.933 430.241 222.505C429.29 221.915 428.303 221.402 427.289 220.965C426.544 220.644 425.988 219.998 425.81 219.207L424.866 214.997C424.629 213.938 423.734 213.154 422.654 213.058L419.153 212.747C418.073 212.651 417.058 213.266 416.643 214.266L414.998 218.234C414.687 218.984 414.028 219.522 413.238 219.706C412.158 219.957 411.092 220.289 410.05 220.704C409.298 221.003 408.45 220.938 407.767 220.503L404.14 218.195C403.224 217.613 402.039 217.69 401.21 218.386L398.52 220.642ZM409.304 230.763C415.294 225.737 424.234 226.531 429.273 232.537C434.313 238.543 433.542 247.485 427.553 252.511C421.564 257.537 412.623 256.742 407.584 250.737C402.544 244.731 403.315 235.789 409.304 230.763Z" fill="#8BB2FA"/>
<path d="M442.361 259.253C441.864 259.671 441.695 260.363 441.943 260.965L442.929 263.348C443.115 263.798 443.065 264.306 442.81 264.719C442.456 265.292 442.148 265.887 441.887 266.499C441.696 266.946 441.31 267.28 440.835 267.385L438.319 267.943C437.685 268.084 437.216 268.62 437.16 269.268L436.979 271.37C436.923 272.017 437.293 272.628 437.894 272.878L440.283 273.875C440.732 274.062 441.056 274.458 441.168 274.932C441.32 275.576 441.521 276.213 441.771 276.836C441.952 277.288 441.914 277.798 441.654 278.208L440.27 280.39C439.923 280.939 439.971 281.651 440.389 282.15L441.747 283.767C442.165 284.266 442.858 284.437 443.459 284.19L445.858 283.202C446.306 283.017 446.813 283.068 447.227 283.324C447.793 283.673 448.381 283.978 448.985 284.238C449.433 284.43 449.767 284.818 449.874 285.293L450.444 287.834C450.586 288.469 451.123 288.94 451.771 288.998L453.872 289.184C454.519 289.242 455.129 288.873 455.378 288.273L456.376 285.864C456.562 285.415 456.957 285.093 457.43 284.982C458.065 284.832 458.692 284.636 459.307 284.393C459.757 284.214 460.266 284.253 460.676 284.513L462.879 285.915C463.429 286.265 464.14 286.219 464.638 285.801L466.251 284.447C466.748 284.03 466.918 283.337 466.669 282.736L465.671 280.323C465.485 279.873 465.535 279.366 465.79 278.953C466.136 278.39 466.438 277.807 466.695 277.207C466.887 276.76 467.273 276.427 467.748 276.322L470.293 275.757C470.928 275.616 471.396 275.08 471.452 274.432L471.633 272.331C471.689 271.683 471.319 271.073 470.718 270.822L468.315 269.82C467.865 269.632 467.541 269.235 467.43 268.761C467.279 268.121 467.081 267.489 466.835 266.871C466.655 266.419 466.693 265.911 466.952 265.502L468.342 263.31C468.69 262.762 468.642 262.05 468.223 261.551L466.866 259.933C466.447 259.434 465.754 259.263 465.154 259.511L462.764 260.495C462.315 260.68 461.807 260.628 461.393 260.371C460.823 260.017 460.231 259.709 459.622 259.447C459.175 259.255 458.842 258.867 458.735 258.392L458.169 255.866C458.026 255.231 457.489 254.76 456.841 254.703L454.741 254.516C454.093 254.459 453.484 254.827 453.235 255.428L452.248 257.809C452.061 258.258 451.666 258.582 451.192 258.692C450.544 258.842 449.904 259.042 449.279 259.29C448.828 259.47 448.319 259.431 447.909 259.17L445.733 257.785C445.184 257.436 444.472 257.482 443.975 257.899L442.361 259.253ZM448.831 265.326C452.425 262.31 457.79 262.787 460.813 266.39C463.837 269.994 463.374 275.359 459.781 278.375C456.187 281.39 450.823 280.914 447.799 277.31C444.776 273.707 445.238 268.341 448.831 265.326Z" fill="#8BB2FA"/>
<g filter="url(#filter3_d_116_1292)">
<path d="M441.264 117.666H379.737C376.016 117.666 373 120.682 373 124.403V185.93C373 189.651 376.016 192.667 379.737 192.667H441.264C444.985 192.667 448.001 189.651 448.001 185.93V124.403C448.001 120.682 444.985 117.666 441.264 117.666Z" fill="black"/>
</g>
<path d="M441.264 117.666H379.737C376.016 117.666 373 120.682 373 124.403V185.93C373 189.651 376.016 192.667 379.737 192.667H441.264C444.985 192.667 448.001 189.651 448.001 185.93V124.403C448.001 120.682 444.985 117.666 441.264 117.666Z" fill="#9E63F2"/>
<path fill-rule="evenodd" clip-rule="evenodd" d="M359.787 148.56C359.034 148.56 358.422 149.168 358.422 149.917C358.422 150.666 359.034 151.272 359.787 151.272C360.537 151.272 361.152 150.666 361.152 149.917C361.152 149.168 360.537 148.56 359.787 148.56Z" fill="#00FAE3"/>
<path fill-rule="evenodd" clip-rule="evenodd" d="M361.361 269.446H77.0684V94.8257C77.0684 89.9171 81.0699 85.9376 86.0067 85.9376H352.422C357.358 85.9376 361.361 89.9171 361.361 94.8257V269.446Z" fill="#78A8FF"/>
<path fill-rule="evenodd" clip-rule="evenodd" d="M88.3604 246.975H349.432V100.294H88.3604V246.975Z" fill="white"/>
<path fill-rule="evenodd" clip-rule="evenodd" d="M88.3604 246.975H349.432V100.294H88.3604V246.975Z" fill="#D0E7FF"/>
<path fill-rule="evenodd" clip-rule="evenodd" d="M122.254 270.07H317.43V265.077H122.254V270.07Z" fill="#AAFF00"/>
<path fill-rule="evenodd" clip-rule="evenodd" d="M122.254 270.07H317.43V265.077H122.254V270.07Z" fill="#336BD2"/>
<path fill-rule="evenodd" clip-rule="evenodd" d="M53.8447 275.688C53.8447 275.688 57.0508 279.464 66.6714 282.554H372.362C372.362 282.554 379.488 280.837 382.695 276.031L53.8447 275.688Z" fill="#3771DA"/>
<path fill-rule="evenodd" clip-rule="evenodd" d="M381.019 276.312H55.5228C54.2503 276.312 53.2178 275.279 53.2178 274.007V271.127C53.2178 269.853 54.2503 268.822 55.5228 268.822H381.019C382.291 268.822 383.323 269.853 383.323 271.127V274.007C383.323 275.279 382.291 276.312 381.019 276.312Z" fill="#4F89F2"/>
<path fill-rule="evenodd" clip-rule="evenodd" d="M221.41 91.5552C221.41 90.1765 220.286 89.0585 218.9 89.0585C217.513 89.0585 216.39 90.1765 216.39 91.5552C216.39 92.934 217.513 94.052 218.9 94.052C220.286 94.052 221.41 92.934 221.41 91.5552Z" fill="#1A2E35"/>
<path opacity="0.200428" fill-rule="evenodd" clip-rule="evenodd" d="M185.651 91.6787H123.496C122.81 91.6787 122.254 91.1202 122.254 90.4308C122.254 89.7406 122.81 89.182 123.496 89.182H185.651C186.337 89.182 186.894 89.7406 186.894 90.4308C186.894 91.1202 186.337 91.6787 185.651 91.6787Z" fill="#FDFEFF"/>
<path opacity="0.200428" fill-rule="evenodd" clip-rule="evenodd" d="M313.046 91.6787H250.893C250.206 91.6787 249.649 91.1202 249.649 90.4308C249.649 89.7406 250.206 89.182 250.893 89.182H313.046C313.734 89.182 314.29 89.7406 314.29 90.4308C314.29 91.1202 313.734 91.6787 313.046 91.6787Z" fill="#FDFEFF"/>
<path d="M349.31 99.4112H137.242V118.374H349.31V99.4112Z" fill="#C3E0FE"/>
<path d="M138.245 99.4112H87.2285V247.123H138.245V99.4112Z" fill="#C3E0FE"/>
<path d="M99.1002 108.893C100.136 108.893 100.976 107.999 100.976 106.897C100.976 105.794 100.136 104.901 99.1002 104.901C98.0643 104.901 97.2246 105.794 97.2246 106.897C97.2246 107.999 98.0643 108.893 99.1002 108.893Z" fill="#DDEEFF"/>
<path d="M107.227 108.893C108.263 108.893 109.103 107.999 109.103 106.897C109.103 105.794 108.263 104.901 107.227 104.901C106.191 104.901 105.352 105.794 105.352 106.897C105.352 107.999 106.191 108.893 107.227 108.893Z" fill="#DDEEFF"/>
<path d="M115.355 108.893C116.391 108.893 117.231 107.999 117.231 106.897C117.231 105.794 116.391 104.901 115.355 104.901C114.319 104.901 113.479 105.794 113.479 106.897C113.479 107.999 114.319 108.893 115.355 108.893Z" fill="#DDEEFF"/>
<path opacity="0.33896" d="M328.325 153.805H326.283C321.322 153.805 317.301 157.827 317.301 162.788V164.784C317.301 169.744 321.322 173.766 326.283 173.766H328.325C333.286 173.766 337.307 169.744 337.307 164.784V162.788C337.307 157.827 333.286 153.805 328.325 153.805Z" fill="#AED7FF"/>
<path opacity="0.33896" d="M328.325 206.702H326.283C321.322 206.702 317.301 210.723 317.301 215.684V217.68C317.301 222.641 321.322 226.663 326.283 226.663H328.325C333.286 226.663 337.307 222.641 337.307 217.68V215.684C337.307 210.723 333.286 206.702 328.325 206.702Z" fill="#AED7FF"/>
<path opacity="0.33896" d="M328.325 127.856H326.283C321.322 127.856 317.301 131.877 317.301 136.838V138.834C317.301 143.795 321.322 147.817 326.283 147.817H328.325C333.286 147.817 337.307 143.795 337.307 138.834V136.838C337.307 131.877 333.286 127.856 328.325 127.856Z" fill="#AED7FF"/>
<path opacity="0.33896" d="M328.325 179.754H326.283C321.322 179.754 317.301 183.776 317.301 188.737V190.733C317.301 195.694 321.322 199.715 326.283 199.715H328.325C333.286 199.715 337.307 195.694 337.307 190.733V188.737C337.307 183.776 333.286 179.754 328.325 179.754Z" fill="#AED7FF"/>
<path fill-rule="evenodd" clip-rule="evenodd" d="M271.396 125.295C270.11 124.551 268.523 124.551 267.235 125.295L241.68 140.043C240.394 140.786 239.6 142.159 239.6 143.647V173.143C239.6 174.63 240.394 176.003 241.68 176.746L267.235 191.495C268.523 192.238 270.11 192.238 271.396 191.495L296.951 176.746C298.239 176.003 299.032 174.63 299.032 173.143V143.647C299.032 142.159 298.239 140.786 296.951 140.043L271.396 125.295Z" fill="url(#paint0_linear_116_1292)"/>
<path fill-rule="evenodd" clip-rule="evenodd" d="M169.22 185.043C167.933 184.299 166.346 184.299 165.058 185.043L139.504 199.791C138.217 200.534 137.423 201.907 137.423 203.395V232.892C137.423 234.378 138.217 235.751 139.504 236.494L165.058 251.244C166.346 251.986 167.933 251.986 169.22 251.244L194.775 236.494C196.062 235.751 196.855 234.378 196.855 232.892V203.395C196.855 201.907 196.062 200.534 194.775 199.791L169.22 185.043Z" fill="url(#paint1_linear_116_1292)"/>
<rect x="136.653" y="4.88977" width="163.954" height="218.244" rx="4" fill="#0C4C8A"/>
<rect x="141.539" y="12.4984" width="154.725" height="204.671" rx="4" fill="#CDE0F3"/>
<rect x="192.033" width="55.3752" height="8.68631" rx="4.34316" fill="#083A69"/>
<path fill-rule="evenodd" clip-rule="evenodd" d="M241.982 21.7117H122V201.953H252.838V33.1098L241.982 21.7117Z" fill="#FEFEFE"/>
<path d="M241.983 32.5048L242.247 22.226L252.291 32.8125H242.283C242.115 32.8125 241.979 32.6734 241.983 32.5048Z" fill="#EEEEEE" stroke="#EEEEEE"/>
<rect x="132.311" y="34.7519" width="91.2063" height="9.2292" fill="#C4C4C4"/>
<rect x="132.311" y="48.8768" width="77.091" height="9.2292" fill="#C4C4C4"/>
<rect x="132.311" y="161.25" width="29.8592" height="9.2292" fill="#D34426"/>
<rect x="207.228" y="161.25" width="29.8592" height="9.2292" fill="#C8E1F5"/>
<rect x="169.771" y="161.25" width="29.8592" height="9.2292" fill="#7FB2DF"/>
<rect x="132.311" y="174.279" width="29.8592" height="9.2292" fill="#E46C49"/>
<rect x="207.228" y="174.279" width="29.8592" height="9.2292" fill="#C8E1F5"/>
<rect x="169.771" y="174.279" width="29.8592" height="9.2292" fill="#7FB2DF"/>
<rect x="132.311" y="187.315" width="29.8592" height="9.2292" fill="#F5A38B"/>
<rect x="207.228" y="187.315" width="29.8592" height="9.2292" fill="#C8E1F5"/>
<path d="M153.758 133.118L153.391 132.077H151.205L150.797 133.118H150.082L152.267 128.237H152.41L154.453 133.118H153.758ZM152.329 129.421L151.389 131.648H153.207L152.329 129.421Z" fill="#0C4C8A"/>
<path d="M160.886 129.033C160.641 128.87 160.171 128.747 159.681 128.747C158.415 128.747 157.639 129.728 157.639 130.688C157.639 131.729 158.456 132.689 159.702 132.689C160.171 132.689 160.682 132.506 160.968 132.24L161.315 132.669C160.907 133.037 160.335 133.2 159.661 133.2C157.986 133.2 156.944 131.995 156.944 130.688C156.944 129.421 158.047 128.237 159.681 128.237C160.233 128.237 160.743 128.359 161.091 128.564L160.886 129.033Z" fill="#0C4C8A"/>
<path d="M162.296 133.118V128.298H162.929V133.118H162.296Z" fill="#0C4C8A"/>
<path d="M165.931 128.829V133.118H165.298V128.829H163.705V128.318H167.586V128.829H165.931Z" fill="#0C4C8A"/>
<path d="M168.424 133.118V128.298H169.057V133.118H168.424Z" fill="#0C4C8A"/>
<path d="M170.037 133.118V132.996L172.509 128.809H170.078V128.298H173.448V128.421L170.956 132.608H173.53V133.118H170.037Z" fill="#0C4C8A"/>
<path d="M175.163 128.829V130.279H176.981V130.769H175.163V132.628H177.655V133.139H174.53V128.318H177.676V128.829H175.163Z" fill="#0C4C8A"/>
<path d="M182.353 133.159L179.29 129.667V133.118H178.677V128.298H178.901L181.904 131.709V128.298H182.517V133.159H182.353Z" fill="#0C4C8A"/>
<path d="M183.885 132.383C184.13 132.567 184.6 132.669 184.926 132.669C185.478 132.669 185.927 132.383 185.927 131.893C185.927 131.443 185.764 131.26 185.172 130.994C185.029 130.933 184.743 130.79 184.62 130.729C183.967 130.443 183.66 130.095 183.66 129.442C183.66 128.707 184.375 128.216 185.192 128.216C185.723 128.216 186.172 128.359 186.397 128.441L186.193 128.972C185.968 128.85 185.601 128.727 185.212 128.727C184.722 128.727 184.334 128.952 184.334 129.483C184.334 129.789 184.538 129.993 184.824 130.136C185.069 130.259 185.355 130.402 185.641 130.545C186.295 130.872 186.622 131.178 186.622 131.872C186.622 132.751 185.764 133.18 184.865 133.18C184.416 133.18 183.967 133.077 183.66 132.894L183.885 132.383Z" fill="#0C4C8A"/>
<path d="M193.321 129.033C193.076 128.87 192.606 128.747 192.116 128.747C190.849 128.747 190.073 129.728 190.073 130.688C190.073 131.729 190.89 132.689 192.136 132.689C192.606 132.689 193.117 132.506 193.403 132.24L193.75 132.669C193.341 133.037 192.769 133.2 192.095 133.2C190.421 133.2 189.379 131.995 189.379 130.688C189.379 129.421 190.482 128.237 192.116 128.237C192.667 128.237 193.178 128.359 193.525 128.564L193.321 129.033Z" fill="#0C4C8A"/>
<path d="M196.957 128.216C198.489 128.216 199.694 129.299 199.694 130.667C199.694 132.077 198.57 133.18 196.957 133.18C195.364 133.18 194.22 132.056 194.22 130.667C194.2 129.319 195.405 128.216 196.957 128.216ZM196.957 132.669C198.203 132.669 199.02 131.77 199.02 130.667C199.02 129.626 198.203 128.727 196.957 128.727C195.772 128.727 194.894 129.626 194.894 130.667C194.874 131.77 195.752 132.669 196.957 132.669Z" fill="#0C4C8A"/>
<path d="M204.964 133.118L204.249 129.993H204.229L203.126 133.159H202.86L201.716 129.993H201.696L201.022 133.139H200.389L201.451 128.318H201.696L202.983 131.913H203.003C203.391 130.729 203.82 129.503 204.208 128.318H204.453L205.577 133.118H204.964Z" fill="#0C4C8A"/>
<path d="M207.19 133.118H206.557V128.298C207.129 128.278 207.496 128.257 207.619 128.257C209.171 128.257 209.784 128.809 209.784 129.646C209.784 130.729 209.171 131.26 207.803 131.26C207.7 131.26 207.496 131.26 207.19 131.239V133.118ZM207.19 130.749C207.414 130.769 207.578 130.79 207.741 130.79C208.701 130.79 209.11 130.422 209.11 129.748C209.11 129.156 208.742 128.788 207.741 128.788C207.598 128.788 207.394 128.809 207.19 128.829V130.749Z" fill="#0C4C8A"/>
<path d="M213.44 133.118L213.072 132.077H210.887L210.479 133.118H209.764L211.949 128.237H212.092L214.135 133.118H213.44ZM212.031 129.421H212.01L211.091 131.648H212.909L212.031 129.421Z" fill="#0C4C8A"/>
<path d="M218.689 133.159L215.625 129.667V133.118H215.013V128.298H215.237L218.24 131.709V128.298H218.853V133.159H218.689Z" fill="#0C4C8A"/>
<path d="M222.038 130.974V133.118H221.405V130.953L219.628 128.298H220.302L221.711 130.463L223.121 128.298H223.774L222.038 130.974Z" fill="#0C4C8A"/>
<path d="M201.899 115.614C201.899 115.9 201.675 116.125 201.389 116.125H200.939C200.286 116.125 195.139 116.125 194.179 116.125H193.689C193.403 116.125 193.178 115.9 193.178 115.614C193.178 115.39 193.321 115.185 193.525 115.124C193.546 115.124 193.546 115.124 193.566 115.104H193.586C193.607 115.104 193.607 115.104 193.627 115.104C193.832 115.083 194.036 115.042 194.26 114.981C194.71 114.899 195.016 114.532 195.016 114.123C195.016 113.49 195.016 112.837 194.975 112.265L193.382 96.1291L184.048 114.532C183.415 115.757 183.272 116.064 182.802 116.064C182.373 116.064 182.189 115.757 181.454 114.409L181.372 114.266C180.964 113.551 179.881 111.57 177.022 106.219L176.879 105.974C176.552 105.381 173.243 98.7639 172.14 96.4559L170.69 112.265C170.649 112.816 170.649 113.449 170.649 114.062C170.649 114.47 170.976 114.818 171.405 114.899C172.038 115.042 172.569 115.063 172.794 115.063C172.896 115.063 172.998 115.083 173.1 115.124H173.121C173.141 115.124 173.141 115.145 173.162 115.145C173.182 115.165 173.203 115.165 173.223 115.185C173.346 115.287 173.427 115.43 173.427 115.594C173.427 115.88 173.203 116.104 172.917 116.104H172.426C171.446 116.104 166.319 116.104 165.666 116.104H165.216C164.931 116.104 164.706 115.88 164.706 115.594C164.706 115.328 164.89 115.124 165.135 115.083C165.216 115.063 165.298 115.042 165.4 115.042C165.686 115.042 165.952 115.042 166.503 114.94C167.443 114.777 167.627 113.858 167.79 112.346L167.81 112.224L170.568 88.9191C170.649 88.0817 171.119 88.0204 171.283 88.0204C171.712 88.0204 171.936 88.3472 172.12 88.7149L183.558 110.671L194.546 88.7353C194.669 88.4698 194.894 88 195.384 88C195.997 88 196.078 88.7557 196.119 89.2255L198.938 113C199.101 114.103 199.346 114.777 200.143 114.899C200.694 115.002 200.939 115.002 201.246 115.002C201.348 115.002 201.43 115.022 201.511 115.042C201.695 115.145 201.899 115.349 201.899 115.614ZM161.56 88.1225H152.737C152.431 88.1225 152.206 88.3676 152.206 88.6536C152.206 88.9395 152.41 89.1642 152.676 89.1846C152.716 89.1846 152.757 89.2051 152.819 89.2051C153.145 89.2051 153.779 89.2459 154.065 89.3072C155.106 89.5114 155.413 89.8995 155.474 91.1046C155.535 92.2688 155.535 93.29 155.535 98.9477V109.242C155.535 118.801 154.248 120.516 151.961 122.722C151.654 123.008 151.123 123.437 150.674 123.702L150.613 123.743C150.266 123.968 150 124.131 150 124.499C150 124.805 150.286 125.01 150.551 125.01C150.735 125.01 150.858 124.948 150.94 124.908C151.328 124.724 151.9 124.356 152.471 123.988C155.556 121.966 157.312 120.21 158.149 118.31C159.314 115.676 159.314 109.875 159.314 103.911V98.9681C159.314 93.3104 159.314 92.2892 159.395 91.1454C159.477 89.8995 159.743 89.491 160.56 89.348C161.009 89.2868 161.234 89.2459 161.479 89.2459C161.52 89.2459 161.581 89.2459 161.622 89.2255C161.724 89.2051 161.826 89.1642 161.908 89.1029C161.928 89.0825 161.948 89.0621 161.969 89.0417L161.989 89.0212C162.051 88.9395 162.091 88.817 162.091 88.6944C162.091 88.3676 161.846 88.1225 161.56 88.1225ZM214.726 102.542C214.011 102.542 213.398 102.542 213.398 103.155C213.398 103.482 213.664 103.686 214.052 103.686C214.236 103.727 214.583 103.727 214.91 103.727C219.853 103.727 223.836 100.051 223.836 94.8014C223.836 92.7998 222.753 91.1046 221.813 90.2671C221.221 89.7361 219.403 88.1225 214.522 88.1225C213.807 88.1225 210.396 88.1225 207.884 88.1225H205.372H204.983C204.677 88.1225 204.452 88.3676 204.452 88.6536C204.452 88.96 204.698 89.1846 204.983 89.1846C205.004 89.1846 205.024 89.1846 205.045 89.1846C205.372 89.1846 206.005 89.2255 206.291 89.2868C207.332 89.491 207.639 89.8791 207.7 91.0841C207.7 92.0033 207.7 98.9068 207.7 98.9068V105.341C207.7 105.341 207.761 111.672 207.577 113.184C207.414 114.266 207.251 114.838 206.699 114.94C206.291 115.022 205.882 115.083 205.617 115.083C205.433 115.083 205.29 115.145 205.208 115.206C205.188 115.206 205.188 115.226 205.167 115.226C205.045 115.328 204.983 115.471 204.983 115.635C204.983 115.921 205.208 116.145 205.494 116.145H205.923H214.297H214.746C215.032 116.145 215.257 115.921 215.257 115.635C215.257 115.43 215.135 115.247 214.971 115.165C214.869 115.104 214.746 115.063 214.604 115.063C214.277 115.063 213.46 115.002 212.908 114.92C212.01 114.797 211.785 114.266 211.662 113.163C211.479 111.652 211.479 108.711 211.479 105.32L211.458 98.9272L211.479 90.3897C211.479 90.2876 211.479 90.2059 211.499 90.1446C211.499 90.1038 211.54 90.0425 211.56 90.0016C211.601 89.9608 211.683 89.9199 211.703 89.9199C212.01 89.8178 212.541 89.7565 213.133 89.7565H213.541C214.767 89.7565 216.564 89.9404 218.178 91.4926C220.241 93.4738 220.241 96.0269 220.241 96.8848C220.322 100.071 217.504 102.542 214.726 102.542Z" fill="#0C4C8A"/>
<g opacity="0.870768">
<path opacity="0.870768" d="M430.783 139.031C422.565 139.031 416.269 136.837 410.945 132C405.622 136.837 399.326 139.031 391.109 139.031C391.109 151.627 388.32 169.672 410.945 177C433.572 169.672 430.783 151.627 430.783 139.031ZM409.302 161.197L402.693 155.021L405.652 152.257L409.302 155.668L416.239 149.186L419.198 151.95L409.302 161.197Z" fill="#29045F"/>
</g>
<defs>
<filter id="filter0_d_116_1292" x="314" y="27" width="101.001" height="101.001" filterUnits="userSpaceOnUse" color-interpolation-filters="sRGB">
<feFlood flood-opacity="0" result="BackgroundImageFix"/>
<feColorMatrix in="SourceAlpha" type="matrix" values="0 0 0 0 0 0 0 0 0 0 0 0 0 0 0 0 0 0 127 0" result="hardAlpha"/>
<feOffset dy="3"/>
<feGaussianBlur stdDeviation="6.5"/>
<feColorMatrix type="matrix" values="0 0 0 0 0.12549 0 0 0 0 0.364706 0 0 0 0 0.631373 0 0 0 0.214489 0"/>
<feBlend mode="normal" in2="BackgroundImageFix" result="effect1_dropShadow_116_1292"/>
<feBlend mode="normal" in="SourceGraphic" in2="effect1_dropShadow_116_1292" result="shape"/>
</filter>
<filter id="filter1_d_116_1292" x="15" y="262" width="96.1699" height="62.3516" filterUnits="userSpaceOnUse" color-interpolation-filters="sRGB">
<feFlood flood-opacity="0" result="BackgroundImageFix"/>
<feColorMatrix in="SourceAlpha" type="matrix" values="0 0 0 0 0 0 0 0 0 0 0 0 0 0 0 0 0 0 127 0" result="hardAlpha"/>
<feOffset dy="9"/>
<feGaussianBlur stdDeviation="10.5"/>
<feColorMatrix type="matrix" values="0 0 0 0 0.12549 0 0 0 0 0.167389 0 0 0 0 0.631373 0 0 0 0.157561 0"/>
<feBlend mode="normal" in2="BackgroundImageFix" result="effect1_dropShadow_116_1292"/>
<feBlend mode="normal" in="SourceGraphic" in2="effect1_dropShadow_116_1292" result="shape"/>
</filter>
<filter id="filter2_d_116_1292" x="0" y="51" width="118.351" height="130.702" filterUnits="userSpaceOnUse" color-interpolation-filters="sRGB">
<feFlood flood-opacity="0" result="BackgroundImageFix"/>
<feColorMatrix in="SourceAlpha" type="matrix" values="0 0 0 0 0 0 0 0 0 0 0 0 0 0 0 0 0 0 127 0" result="hardAlpha"/>
<feOffset dy="9"/>
<feGaussianBlur stdDeviation="10.5"/>
<feColorMatrix type="matrix" values="0 0 0 0 0.12549 0 0 0 0 0.167389 0 0 0 0 0.631373 0 0 0 0.157561 0"/>
<feBlend mode="normal" in2="BackgroundImageFix" result="effect1_dropShadow_116_1292"/>
<feBlend mode="normal" in="SourceGraphic" in2="effect1_dropShadow_116_1292" result="shape"/>
</filter>
<filter id="filter3_d_116_1292" x="360" y="107.666" width="101.001" height="101.001" filterUnits="userSpaceOnUse" color-interpolation-filters="sRGB">
<feFlood flood-opacity="0" result="BackgroundImageFix"/>
<feColorMatrix in="SourceAlpha" type="matrix" values="0 0 0 0 0 0 0 0 0 0 0 0 0 0 0 0 0 0 127 0" result="hardAlpha"/>
<feOffset dy="3"/>
<feGaussianBlur stdDeviation="6.5"/>
<feColorMatrix type="matrix" values="0 0 0 0 0.12549 0 0 0 0 0.364706 0 0 0 0 0.631373 0 0 0 0.214489 0"/>
<feBlend mode="normal" in2="BackgroundImageFix" result="effect1_dropShadow_116_1292"/>
<feBlend mode="normal" in="SourceGraphic" in2="effect1_dropShadow_116_1292" result="shape"/>
</filter>
<linearGradient id="paint0_linear_116_1292" x1="245.149" y1="144.232" x2="317.491" y2="144.232" gradientUnits="userSpaceOnUse">
<stop stop-color="#EEEBFF" stop-opacity="0.3"/>
<stop offset="1" stop-color="#89A8FF" stop-opacity="0.301437"/>
</linearGradient>
<linearGradient id="paint1_linear_116_1292" x1="169.783" y1="206.319" x2="147.967" y2="249.782" gradientUnits="userSpaceOnUse">
<stop stop-color="#EEEBFF" stop-opacity="0.3"/>
<stop offset="1" stop-color="#89A8FF" stop-opacity="0.301437"/>
</linearGradient>
</defs>
</svg>
