<svg width="663" height="364" viewBox="0 0 663 364" fill="none" xmlns="http://www.w3.org/2000/svg">
<g filter="url(#filter0_d_103_927)">
<path d="M428.314 147.086C428.314 142.71 432.448 139.164 437.548 139.164H631.784C636.885 139.164 641.019 142.71 641.019 147.086V242.084C641.019 246.458 636.885 250.006 631.784 250.006H437.548C432.448 250.006 428.313 246.458 428.313 242.084V147.086H428.314Z" fill="black"/>
</g>
<path d="M428.314 147.086C428.314 142.71 432.448 139.164 437.548 139.164H631.784C636.885 139.164 641.019 142.71 641.019 147.086V242.084C641.019 246.458 636.885 250.006 631.784 250.006H437.548C432.448 250.006 428.313 246.458 428.313 242.084V147.086H428.314Z" fill="white"/>
<path d="M632.063 183.867H585.154C584.979 183.867 584.836 184.009 584.836 184.185V193.512C584.836 193.688 584.979 193.83 585.154 193.83H632.063C632.239 193.83 632.381 193.688 632.381 193.512V184.185C632.381 184.009 632.239 183.867 632.063 183.867Z" fill="#F9F8FF"/>
<path d="M632.063 200.087H585.154C584.979 200.087 584.836 200.229 584.836 200.405V208.487C584.836 208.663 584.979 208.805 585.154 208.805H632.063C632.239 208.805 632.381 208.663 632.381 208.487V200.405C632.381 200.229 632.239 200.087 632.063 200.087Z" fill="#F9F8FF"/>
<path d="M632.063 214.973H585.154C584.979 214.973 584.836 215.116 584.836 215.291V223.373C584.836 223.549 584.979 223.691 585.154 223.691H632.063C632.239 223.691 632.381 223.549 632.381 223.373V215.291C632.381 215.116 632.239 214.973 632.063 214.973Z" fill="#F9F8FF"/>
<path d="M632.063 229.961H585.154C584.979 229.961 584.836 230.103 584.836 230.279V238.361C584.836 238.536 584.979 238.679 585.154 238.679H632.063C632.239 238.679 632.381 238.536 632.381 238.361V230.279C632.381 230.103 632.239 229.961 632.063 229.961Z" fill="#F9F8FF"/>
<path fill-rule="evenodd" clip-rule="evenodd" d="M576.085 198.845H522.284V192.619H576.085V198.845Z" fill="#7F51FD"/>
<path fill-rule="evenodd" clip-rule="evenodd" d="M520.233 202.409H550.951V201.236H520.721L504.55 185.131H484.744V186.306H504.061L520.233 202.409Z" fill="#CCA4FD"/>
<path fill-rule="evenodd" clip-rule="evenodd" d="M446.765 240.276V176.761H438.006V240.276H446.765Z" fill="#BBBBF9"/>
<path fill-rule="evenodd" clip-rule="evenodd" d="M481.802 240.276V181.743H473.044V240.276H481.802Z" fill="#BBBBF9"/>
<path fill-rule="evenodd" clip-rule="evenodd" d="M464.284 240.272V189.211H455.525V240.272H464.284Z" fill="#BBBBF9"/>
<path d="M441.55 156.459C443.954 156.459 445.903 154.519 445.903 152.126C445.903 149.733 443.954 147.793 441.55 147.793C439.145 147.793 437.196 149.733 437.196 152.126C437.196 154.519 439.145 156.459 441.55 156.459Z" fill="#FF947F"/>
<path d="M457.228 156.459C459.632 156.459 461.581 154.519 461.581 152.126C461.581 149.733 459.632 147.793 457.228 147.793C454.823 147.793 452.874 149.733 452.874 152.126C452.874 154.519 454.823 156.459 457.228 156.459Z" fill="#FFE373"/>
<path d="M472.903 156.459C475.307 156.459 477.256 154.519 477.256 152.126C477.256 149.733 475.307 147.793 472.903 147.793C470.498 147.793 468.549 149.733 468.549 152.126C468.549 154.519 470.498 156.459 472.903 156.459Z" fill="#00B8D9"/>
<path d="M472.798 164.253V169.601M613.638 164.253V169.601V164.253ZM581.095 164.253V169.601V164.253ZM541.351 164.253V169.601V164.253ZM505.874 164.253V169.601V164.253Z" stroke="#EBECF0" stroke-width="0.553" stroke-linecap="square"/>
<path d="M502.285 163.45H476.372C475.941 163.45 475.592 163.799 475.592 164.231V169.622C475.592 170.053 475.941 170.403 476.372 170.403H502.285C502.716 170.403 503.066 170.053 503.066 169.622V164.231C503.066 163.799 502.716 163.45 502.285 163.45Z" fill="#E6FCFF"/>
<path d="M469.219 163.45H437.971C437.54 163.45 437.191 163.799 437.191 164.231V169.622C437.191 170.053 437.54 170.403 437.971 170.403H469.219C469.65 170.403 470 170.053 470 169.622V164.231C470 163.799 469.65 163.45 469.219 163.45Z" fill="#F4F5F7"/>
<path d="M537.767 163.45H509.187C508.756 163.45 508.406 163.799 508.406 164.231V169.622C508.406 170.053 508.756 170.403 509.187 170.403H537.767C538.198 170.403 538.548 170.053 538.548 169.622V164.231C538.548 163.799 538.198 163.45 537.767 163.45Z" fill="#FFF0B3"/>
<path d="M577.52 163.45H544.672C544.24 163.45 543.891 163.799 543.891 164.231V169.622C543.891 170.053 544.24 170.403 544.672 170.403H577.52C577.951 170.403 578.3 170.053 578.3 169.622V164.231C578.3 163.799 577.951 163.45 577.52 163.45Z" fill="#FFEBE6"/>
<path d="M608.737 162.643H585.759C585.328 162.643 584.978 162.992 584.978 163.423V170.42C584.978 170.851 585.328 171.2 585.759 171.2H608.737C609.168 171.2 609.518 170.851 609.518 170.42V163.423C609.518 162.992 609.168 162.643 608.737 162.643Z" fill="#DFD9FF"/>
<path d="M630.54 162.643H619.116C618.684 162.643 618.335 162.993 618.335 163.424V170.475C618.335 170.906 618.684 171.255 619.116 171.255H630.54C630.971 171.255 631.321 170.906 631.321 170.475V163.424C631.321 162.993 630.971 162.643 630.54 162.643Z" fill="#091E42" fill-opacity="0.04"/>
<path opacity="0.155" fill-rule="evenodd" clip-rule="evenodd" d="M578.581 223.928V237.601C578.581 238.209 578.063 238.703 577.422 238.703H495.913C495.271 238.703 494.752 238.209 494.752 237.601V207.567C502.281 207.567 506.029 210.253 508.227 213.784C508.37 214.009 508.505 214.239 508.628 214.475C512.345 221.19 511.225 230.398 519.401 230.398C519.703 230.398 519.991 230.363 520.263 230.295C520.439 230.261 520.607 230.206 520.766 230.137C526.266 227.926 525.409 212.234 535.192 212.346C537.28 212.371 538.842 213.136 540.075 214.356C540.192 214.479 540.31 214.602 540.422 214.735C544.804 219.642 544.865 230.578 551.591 232.564C554.016 233.28 556.157 232.31 558.273 230.706C558.407 230.603 558.544 230.501 558.678 230.387C563.15 226.843 567.599 220.784 574.5 222.269C574.699 222.314 574.9 222.362 575.104 222.417C576.2 222.721 577.355 223.211 578.582 223.927" fill="#E3DDFF"/>
<path opacity="0.3" fill-rule="evenodd" clip-rule="evenodd" d="M578.581 223.663C577.119 223.683 575.999 224.168 575.101 224.95C573.437 226.399 572.544 228.869 571.67 231.285C570.361 234.904 569.01 238.635 565.064 238.635C564.852 238.635 564.63 238.626 564.406 238.606C561.832 238.358 559.939 236.3 558.27 233.479C557.232 231.734 556.282 229.693 555.317 227.599C552.586 221.71 549.754 215.623 544.55 215.481C544.488 215.481 544.432 215.476 544.374 215.476C542.799 215.476 541.51 216.067 540.421 217.045C538.219 219.018 536.817 222.574 535.446 226.055C533.417 231.204 531.323 236.532 526.593 236.638C523.194 236.709 521.648 235.447 520.261 233.057C519.728 232.128 519.214 231.028 518.63 229.772C517.561 227.473 516.227 224.612 514.017 221.282C512.534 219.054 510.65 217.636 508.626 216.777C503.174 214.441 496.756 216.152 494.752 216.793V216.263C496.899 215.596 502.897 214.088 508.226 216.067C510.552 216.928 512.749 218.457 514.443 221.009C516.677 224.364 518.017 227.245 519.095 229.561C519.703 230.862 520.221 231.976 520.764 232.895C522.069 235.109 523.502 236.205 526.583 236.135C530.969 236.033 532.909 231.098 534.969 225.872C536.365 222.326 537.786 218.705 540.072 216.656C541.284 215.571 542.736 214.926 544.559 214.976C550.096 215.122 552.986 221.358 555.785 227.392C556.74 229.439 557.664 231.443 558.675 233.152C560.277 235.887 562.075 237.869 564.456 238.101C568.523 238.495 569.816 234.913 571.187 231.114C572.041 228.749 572.914 226.337 574.495 224.799C575.502 223.809 576.801 223.184 578.571 223.159L578.582 223.663H578.581Z" fill="#DFD9FF"/>
<path fill-rule="evenodd" clip-rule="evenodd" d="M506.267 184.667C505.297 184.667 504.508 185.452 504.508 186.42C504.508 187.387 505.297 188.169 506.267 188.169C507.234 188.169 508.026 187.387 508.026 186.42C508.026 185.452 507.234 184.667 506.267 184.667Z" fill="#00FAE3"/>
<path fill-rule="evenodd" clip-rule="evenodd" d="M508.283 340.782H141.958V115.264C141.958 108.925 147.114 103.785 153.475 103.785H496.765C503.125 103.785 508.283 108.925 508.283 115.264V340.782Z" fill="#78A8FF"/>
<path fill-rule="evenodd" clip-rule="evenodd" d="M156.522 311.785H492.926V122.349H156.522V311.785Z" fill="white"/>
<path fill-rule="evenodd" clip-rule="evenodd" d="M156.522 311.785H492.926V122.349H156.522V311.785Z" fill="#D0E7FF"/>
<path fill-rule="evenodd" clip-rule="evenodd" d="M200.188 341.576H451.683V335.127H200.188V341.576Z" fill="#AAFF00"/>
<path fill-rule="evenodd" clip-rule="evenodd" d="M200.188 341.576H451.683V335.127H200.188V341.576Z" fill="#EBF2FF"/>
<path fill-rule="evenodd" clip-rule="evenodd" d="M112.039 348.855C112.039 348.855 116.17 353.733 128.567 357.722H522.465C522.465 357.722 531.647 355.506 535.779 349.298L112.039 348.855Z" fill="#3771DA"/>
<path fill-rule="evenodd" clip-rule="evenodd" d="M533.624 349.64H114.206C112.566 349.64 111.236 348.307 111.236 346.663V342.944C111.236 341.299 112.566 339.967 114.206 339.967H533.624C535.264 339.967 536.593 341.299 536.593 342.944V346.663C536.593 348.307 535.264 349.64 533.624 349.64Z" fill="#4F89F2"/>
<path fill-rule="evenodd" clip-rule="evenodd" d="M327.955 111.062C327.955 109.281 326.507 107.837 324.721 107.837C322.934 107.837 321.486 109.281 321.486 111.062C321.486 112.842 322.934 114.286 324.721 114.286C326.507 114.286 327.955 112.842 327.955 111.062Z" fill="#1A2E35"/>
<path fill-rule="evenodd" clip-rule="evenodd" d="M281.879 108.64H201.789C200.905 108.64 200.188 107.918 200.188 107.028C200.188 106.137 200.905 105.415 201.789 105.415H281.879C282.763 105.415 283.481 106.137 283.481 107.028C283.481 107.918 282.763 108.64 281.879 108.64Z" fill="#90B7DD"/>
<path fill-rule="evenodd" clip-rule="evenodd" d="M446.036 108.64H365.948C365.062 108.64 364.345 107.918 364.345 107.028C364.345 106.137 365.062 105.415 365.948 105.415H446.036C446.921 105.415 447.638 106.137 447.638 107.028C447.638 107.918 446.921 108.64 446.036 108.64Z" fill="#90B7DD"/>
<path d="M492.766 121.814H219.507V146.304H492.766V121.814Z" fill="#C3E0FE"/>
<path d="M220.801 120.543H155.063V311.309H220.801V120.543Z" fill="#C3E0FE"/>
<path d="M170.358 133.401C171.693 133.401 172.775 132.247 172.775 130.823C172.775 129.4 171.693 128.245 170.358 128.245C169.024 128.245 167.942 129.4 167.942 130.823C167.942 132.247 169.024 133.401 170.358 133.401Z" fill="#DDEEFF"/>
<path d="M180.832 133.401C182.167 133.401 183.249 132.247 183.249 130.823C183.249 129.4 182.167 128.245 180.832 128.245C179.497 128.245 178.415 129.4 178.415 130.823C178.415 132.247 179.497 133.401 180.832 133.401Z" fill="#DDEEFF"/>
<path d="M191.305 133.401C192.64 133.401 193.722 132.247 193.722 130.823C193.722 129.4 192.64 128.245 191.305 128.245C189.97 128.245 188.888 129.4 188.888 130.823C188.888 132.247 189.97 133.401 191.305 133.401Z" fill="#DDEEFF"/>
<path opacity="0.33896" d="M466.989 191.397H461.833C456.138 191.397 451.521 196.014 451.521 201.709V206.865C451.521 212.56 456.138 217.176 461.833 217.176H466.989C472.684 217.176 477.301 212.56 477.301 206.865V201.709C477.301 196.014 472.684 191.397 466.989 191.397Z" fill="#AED7FF"/>
<path opacity="0.33896" d="M466.989 259.728H461.833C456.138 259.728 451.521 264.345 451.521 270.04V275.196C451.521 280.891 456.138 285.508 461.833 285.508H466.989C472.684 285.508 477.301 280.891 477.301 275.196V270.04C477.301 264.345 472.684 259.728 466.989 259.728Z" fill="#AED7FF"/>
<path opacity="0.33896" d="M466.989 157.904H461.833C456.138 157.904 451.521 162.521 451.521 168.216V173.372C451.521 179.067 456.138 183.683 461.833 183.683H466.989C472.684 183.683 477.301 179.067 477.301 173.372V168.216C477.301 162.521 472.684 157.904 466.989 157.904Z" fill="#AED7FF"/>
<path opacity="0.33896" d="M466.989 224.945H461.833C456.138 224.945 451.521 229.561 451.521 235.256V240.412C451.521 246.107 456.138 250.724 461.833 250.724H466.989C472.684 250.724 477.301 246.107 477.301 240.412V235.256C477.301 229.561 472.684 224.945 466.989 224.945Z" fill="#AED7FF"/>
<g filter="url(#filter1_d_103_927)">
<path d="M477.017 87.6562H170.786C166.365 87.6562 162.781 91.24 162.781 95.6607V279.441C162.781 283.862 166.365 287.445 170.786 287.445H477.017C481.438 287.445 485.021 283.862 485.021 279.441V95.6607C485.021 91.24 481.438 87.6562 477.017 87.6562Z" fill="black"/>
</g>
<path d="M477.017 87.6562H170.786C166.365 87.6562 162.781 91.24 162.781 95.6607V279.441C162.781 283.862 166.365 287.445 170.786 287.445H477.017C481.438 287.445 485.021 283.862 485.021 279.441V95.6607C485.021 91.24 481.438 87.6562 477.017 87.6562Z" fill="white"/>
<path d="M174.564 108.611C176.795 108.611 178.603 106.803 178.603 104.572C178.603 102.341 176.795 100.533 174.564 100.533C172.333 100.533 170.525 102.341 170.525 104.572C170.525 106.803 172.333 108.611 174.564 108.611Z" fill="#FF947F"/>
<path d="M189.103 108.611C191.334 108.611 193.143 106.803 193.143 104.572C193.143 102.341 191.334 100.533 189.103 100.533C186.872 100.533 185.064 102.341 185.064 104.572C185.064 106.803 186.872 108.611 189.103 108.611Z" fill="#FFE373"/>
<path d="M203.643 108.611C205.874 108.611 207.683 106.803 207.683 104.572C207.683 102.341 205.874 100.533 203.643 100.533C201.412 100.533 199.604 102.341 199.604 104.572C199.604 106.803 201.412 108.611 203.643 108.611Z" fill="#00B8D9"/>
<path fill-rule="evenodd" clip-rule="evenodd" d="M162.781 112.141H485.021V283.573C485.021 285.708 483.29 287.44 481.155 287.44H166.648C164.513 287.44 162.781 285.708 162.781 283.573V112.141Z" fill="#F2F8FF"/>
<g opacity="0.615862">
<path opacity="0.615862" d="M262.034 135.354H182.119C179.983 135.354 178.252 137.085 178.252 139.221V264.25C178.252 266.386 179.983 268.117 182.119 268.117H262.034C264.17 268.117 265.901 266.386 265.901 264.25V139.221C265.901 137.085 264.17 135.354 262.034 135.354Z" fill="#FFDCDC"/>
<path opacity="0.615862" d="M363.865 135.354H283.95C281.814 135.354 280.083 137.085 280.083 139.221V264.25C280.083 266.386 281.814 268.117 283.95 268.117H363.865C366.001 268.117 367.732 266.386 367.732 264.25V139.221C367.732 137.085 366.001 135.354 363.865 135.354Z" fill="#FFDCDC"/>
<path opacity="0.615862" d="M465.688 135.354H385.772C383.637 135.354 381.905 137.085 381.905 139.221V264.25C381.905 266.386 383.637 268.117 385.772 268.117H465.688C467.823 268.117 469.555 266.386 469.555 264.25V139.221C469.555 137.085 467.823 135.354 465.688 135.354Z" fill="#FFDCDC"/>
</g>
<g filter="url(#filter2_d_103_927)">
<path d="M122.731 333.842H28.8308C24.506 333.842 21 330.328 21 325.993V214.083C21 209.748 24.506 206.234 28.8308 206.234H122.731C127.056 206.234 130.562 209.748 130.562 214.083V325.993C130.562 330.328 127.056 333.842 122.731 333.842Z" fill="black"/>
</g>
<path d="M122.731 333.842H28.8308C24.506 333.842 21 330.328 21 325.993V214.083C21 209.748 24.506 206.234 28.8308 206.234H122.731C127.056 206.234 130.562 209.748 130.562 214.083V325.993C130.562 330.328 127.056 333.842 122.731 333.842Z" fill="white"/>
<path d="M95.8796 279.882V300.379" stroke="#979797" stroke-width="0.5"/>
<path fill-rule="evenodd" clip-rule="evenodd" d="M95.8744 302.373L97.791 298.406H93.9578L95.8744 302.373Z" fill="#D8D8D8"/>
<path d="M95.8744 269.306C96.9329 269.306 97.791 268.418 97.791 267.322C97.791 266.227 96.9329 265.339 95.8744 265.339C94.8159 265.339 93.9578 266.227 93.9578 267.322C93.9578 268.418 94.8159 269.306 95.8744 269.306Z" fill="#97EFF5"/>
<path d="M95.8744 306.34C96.9329 306.34 97.791 305.452 97.791 304.356C97.791 303.261 96.9329 302.373 95.8744 302.373C94.8159 302.373 93.9578 303.261 93.9578 304.356C93.9578 305.452 94.8159 306.34 95.8744 306.34Z" fill="#D8D8D8"/>
<path d="M95.8744 281.201C96.9329 281.201 97.791 280.313 97.791 279.217C97.791 278.122 96.9329 277.234 95.8744 277.234C94.8159 277.234 93.9578 278.122 93.9578 279.217C93.9578 280.313 94.8159 281.201 95.8744 281.201Z" fill="#59CCD2"/>
<path d="M95.8744 318.235C96.9329 318.235 97.791 317.347 97.791 316.251C97.791 315.156 96.9329 314.268 95.8744 314.268C94.8159 314.268 93.9578 315.156 93.9578 316.251C93.9578 317.347 94.8159 318.235 95.8744 318.235Z" fill="#59CCD2"/>
<path d="M112.535 266.637H80.4951C80.1688 266.637 79.9043 266.902 79.9043 267.228V279.271C79.9043 279.597 80.1688 279.861 80.4951 279.861H112.535C112.861 279.861 113.126 279.597 113.126 279.271V267.228C113.126 266.902 112.861 266.637 112.535 266.637Z" fill="#FFD678"/>
<path d="M112.535 303.672H80.4951C80.1688 303.672 79.9043 303.936 79.9043 304.262V316.305C79.9043 316.631 80.1688 316.896 80.4951 316.896H112.535C112.861 316.896 113.126 316.631 113.126 316.305V304.262C113.126 303.936 112.861 303.672 112.535 303.672Z" fill="#6CFCE0"/>
<path d="M63.9388 228.331C64.9974 228.331 65.8555 227.443 65.8555 226.347C65.8555 225.252 64.9974 224.364 63.9388 224.364C62.8803 224.364 62.0222 225.252 62.0222 226.347C62.0222 227.443 62.8803 228.331 63.9388 228.331Z" fill="#D8D8D8"/>
<path d="M53.714 297.099C54.7725 297.099 55.6306 296.211 55.6306 295.115C55.6306 294.02 54.7725 293.132 53.714 293.132C52.6555 293.132 51.7974 294.02 51.7974 295.115C51.7974 296.211 52.6555 297.099 53.714 297.099Z" fill="#97EFF5"/>
<path d="M53.714 308.994C54.7725 308.994 55.6306 308.106 55.6306 307.01C55.6306 305.915 54.7725 305.027 53.714 305.027C52.6555 305.027 51.7974 305.915 51.7974 307.01C51.7974 308.106 52.6555 308.994 53.714 308.994Z" fill="#59CCD2"/>
<path d="M63.9413 228.307V230.674C63.9413 230.994 63.8118 231.3 63.5825 231.522L54.078 240.744C53.8487 240.967 53.7192 241.273 53.7192 241.592V256.077" stroke="#979797" stroke-width="0.5"/>
<path d="M53.7192 270.641V291.138" stroke="#979797" stroke-width="0.5"/>
<path d="M70.3747 294.43H38.3347C38.0084 294.43 37.7439 294.695 37.7439 295.021V307.064C37.7439 307.39 38.0084 307.654 38.3347 307.654H70.3747C70.701 307.654 70.9655 307.39 70.9655 307.064V295.021C70.9655 294.695 70.701 294.43 70.3747 294.43Z" fill="#6CFCE0"/>
<path d="M80.5996 219.064H48.5595C48.2332 219.064 47.9688 219.328 47.9688 219.654V225.085C47.9688 225.411 48.2332 225.676 48.5595 225.676H80.5996C80.9259 225.676 81.1904 225.411 81.1904 225.085V219.654C81.1904 219.328 80.9259 219.064 80.5996 219.064Z" fill="#76A4FF"/>
<path d="M53.714 260.065C54.7725 260.065 55.6306 259.177 55.6306 258.081C55.6306 256.986 54.7725 256.098 53.714 256.098C52.6555 256.098 51.7974 256.986 51.7974 258.081C51.7974 259.177 52.6555 260.065 53.714 260.065Z" fill="#97EFF5"/>
<path d="M53.714 271.96C54.7725 271.96 55.6306 271.072 55.6306 269.976C55.6306 268.881 54.7725 267.993 53.714 267.993C52.6555 267.993 51.7974 268.881 51.7974 269.976C51.7974 271.072 52.6555 271.96 53.714 271.96Z" fill="#59CCD2"/>
<path d="M70.3747 257.396H38.3347C38.0084 257.396 37.7439 257.661 37.7439 257.987V270.03C37.7439 270.356 38.0084 270.62 38.3347 270.62H70.3747C70.701 270.62 70.9655 270.356 70.9655 270.03V257.987C70.9655 257.661 70.701 257.396 70.3747 257.396Z" fill="#FFD678"/>
<path fill-rule="evenodd" clip-rule="evenodd" d="M53.714 256.098L55.6306 252.13H51.7974L53.714 256.098Z" fill="#D8D8D8"/>
<path fill-rule="evenodd" clip-rule="evenodd" d="M53.714 293.132L55.6306 289.164H51.7974L53.714 293.132Z" fill="#D8D8D8"/>
<path d="M89.3196 78.6484V135.592C89.3196 141.884 94.3296 147.007 100.578 147.188L100.92 147.193L160.401 147.192C161.027 142.82 164.787 139.459 169.333 139.459C174.316 139.459 178.356 143.498 178.356 148.482C178.356 153.465 174.316 157.504 169.333 157.504C164.787 157.504 161.027 154.143 160.401 149.771H100.92C93.214 149.771 86.9436 143.623 86.7465 135.964L86.7417 135.592V78.6484H89.3196Z" fill="#2641AE"/>
<g filter="url(#filter3_d_103_927)">
<path d="M88.9799 135.714C112.294 135.714 131.193 116.309 131.193 92.3724C131.193 68.4358 112.294 49.0312 88.9799 49.0312C65.6661 49.0312 46.7666 68.4358 46.7666 92.3724C46.7666 116.309 65.6661 135.714 88.9799 135.714Z" fill="black"/>
</g>
<path d="M88.9799 135.714C112.294 135.714 131.193 116.309 131.193 92.3724C131.193 68.4358 112.294 49.0312 88.9799 49.0312C65.6661 49.0312 46.7666 68.4358 46.7666 92.3724C46.7666 116.309 65.6661 135.714 88.9799 135.714Z" fill="#5411B3"/>
<g opacity="0.903925">
<path opacity="0.903925" d="M108.855 88.5376C108.171 88.5376 107.618 89.1056 107.618 89.8074V91.0772H102.602C102.445 89.2859 101.955 87.5693 101.173 85.9981H103.908C105.954 85.9981 107.618 84.2894 107.618 82.1888V78.1457C109.054 77.6197 110.091 76.2235 110.091 74.5703C110.091 72.4697 108.427 70.6763 106.381 70.6763C104.335 70.6763 102.671 72.4697 102.671 74.5703C102.671 76.2235 103.708 77.6197 105.145 78.1457V82.1888C105.145 82.8894 104.59 83.4586 103.908 83.4586H99.5442C98.9767 82.7554 98.35 82.0946 97.6446 81.5056C94.4489 78.8359 90.1745 77.8079 86.0705 78.6921C83.0131 79.3467 80.2784 81.0902 78.3797 83.4587H74.0618C73.3794 83.4587 72.825 82.8895 72.825 82.1889V78.1457C74.2615 77.6197 75.2985 76.2235 75.2985 74.5703C75.2985 72.4697 73.6342 70.6763 71.5883 70.6763C69.5425 70.6763 67.8782 72.4697 67.8782 74.5703C67.8782 76.2235 68.9152 77.6197 70.3516 78.1457V82.1888C70.3516 84.2894 72.0159 85.9896 74.0618 85.9896H76.7977C76.0187 87.5569 75.5312 89.2792 75.3995 91.0772H70.3516V89.8074C70.3516 89.1056 69.7985 88.5376 69.1149 88.5376C68.4313 88.5376 67.8782 89.1056 67.8782 89.8074V94.8864C67.8782 95.5883 68.4313 96.1562 69.1149 96.1562C69.7985 96.1562 70.3516 95.5883 70.3516 94.8864V93.6167H75.4194C75.6957 95.5598 76.5826 97.3417 77.9268 98.6957H74.0618C72.0159 98.6957 70.3516 100.404 70.3516 102.505V106.548C68.9152 107.074 67.8782 108.47 67.8782 110.124C67.8782 112.224 69.5425 114.018 71.5883 114.018C73.6342 114.018 75.2985 112.224 75.2985 110.124C75.2985 108.47 74.2615 107.074 72.825 106.548V102.505C72.825 101.804 73.3794 101.235 74.0618 101.235H80.2454V102.505C80.2454 104.606 81.9921 106.314 84.038 106.314H85.2747V102.505C85.2747 101.803 85.8278 101.235 86.5114 101.235C87.195 101.235 87.7481 101.803 87.7481 102.505V106.314H90.2215V102.505C90.2215 101.803 90.7747 101.235 91.4583 101.235C92.1418 101.235 92.695 101.803 92.695 102.505V106.314H94.0142C96.06 106.314 97.7243 104.606 97.7243 102.505V101.235H103.908C104.59 101.235 105.145 101.804 105.145 102.505V106.548C103.708 107.074 102.671 108.47 102.671 110.124C102.671 112.224 104.335 114.018 106.381 114.018C108.427 114.018 110.091 112.224 110.091 110.124C110.091 108.47 109.054 107.074 107.618 106.548V102.505C107.618 100.404 105.954 98.6957 103.908 98.6957H100.029C100.926 97.8023 101.654 96.732 102.11 95.499C102.335 94.8903 102.47 94.2581 102.56 93.6167H107.618V94.8864C107.618 95.5829 108.174 96.1562 108.855 96.1562C109.536 96.1562 110.091 95.5833 110.091 94.8864V89.8074C110.091 89.1056 109.538 88.5376 108.855 88.5376ZM84.038 96.1562C81.9921 96.1562 80.2454 94.4474 80.2454 92.3469V89.8074C80.2454 89.3672 80.4676 88.9592 80.8323 88.7273C81.1958 88.4942 81.6499 88.4756 82.0352 88.6716L87.0645 91.2111C87.4836 91.4269 87.7481 91.8658 87.7481 92.3469C87.7481 94.4474 86.0838 96.1562 84.038 96.1562ZM97.7243 92.3469C97.7243 94.4474 96.06 96.1562 94.0142 96.1562C91.9683 96.1562 90.2215 94.4474 90.2215 92.3469C90.2215 91.8658 90.486 91.4269 90.9051 91.2111L95.9344 88.6716C96.3185 88.4744 96.7738 88.4942 97.1374 88.7273C97.5021 88.9592 97.7243 89.3672 97.7243 89.8074V92.3469Z" fill="white"/>
</g>
<rect x="242.862" y="5.57031" width="186.732" height="248.564" rx="4" fill="#F17388"/>
<rect x="248.427" y="14.2344" width="176.221" height="233.106" rx="4" fill="#F7EEF1"/>
<rect x="305.936" width="63.0685" height="9.8931" rx="4.94655" fill="#EE4D5C"/>
<path fill-rule="evenodd" clip-rule="evenodd" d="M362.824 24.7266H226.173V230.008H375.188V37.7087L362.824 24.7266Z" fill="#FEFEFE"/>
<path d="M362.824 37.0619L363.126 25.3123L374.564 37.3696H363.124C362.956 37.3696 362.82 37.2305 362.824 37.0619Z" fill="#EEEEEE" stroke="#EEEEEE"/>
<g filter="url(#filter4_d_103_927)">
<path d="M301.594 170.075C326.523 170.075 346.732 149.867 346.732 124.938C346.732 100.009 326.523 79.8008 301.594 79.8008C276.666 79.8008 256.457 100.009 256.457 124.938C256.457 149.867 276.666 170.075 301.594 170.075Z" fill="black"/>
</g>
<path d="M301.594 170.075C326.523 170.075 346.732 149.867 346.732 124.938C346.732 100.009 326.523 79.8008 301.594 79.8008C276.666 79.8008 256.457 100.009 256.457 124.938C256.457 149.867 276.666 170.075 301.594 170.075Z" fill="#FF7474"/>
<g opacity="0.908203">
<path opacity="0.908203" d="M324.218 119.25C323.44 119.25 322.81 119.879 322.81 120.657V122.065H317.101C316.921 120.079 316.364 118.176 315.473 116.434H318.587C320.916 116.434 322.81 114.54 322.81 112.211V107.729C324.445 107.146 325.625 105.598 325.625 103.765C325.625 101.436 323.731 99.4481 321.402 99.4481C319.074 99.4481 317.179 101.436 317.179 103.765C317.179 105.598 318.36 107.146 319.995 107.729V112.211C319.995 112.988 319.363 113.619 318.587 113.619H313.62C312.974 112.839 312.261 112.107 311.458 111.454C307.82 108.494 302.955 107.354 298.283 108.335C294.803 109.06 291.691 110.993 289.529 113.619H284.614C283.838 113.619 283.207 112.988 283.207 112.211V107.729C284.842 107.146 286.022 105.598 286.022 103.765C286.022 101.436 284.128 99.4481 281.799 99.4481C279.47 99.4481 277.576 101.436 277.576 103.765C277.576 105.598 278.756 107.146 280.391 107.729V112.211C280.391 114.54 282.286 116.425 284.614 116.425H287.729C286.842 118.162 286.287 120.072 286.137 122.065H280.391V120.657C280.391 119.879 279.762 119.25 278.984 119.25C278.206 119.25 277.576 119.879 277.576 120.657V126.288C277.576 127.066 278.206 127.696 278.984 127.696C279.762 127.696 280.391 127.066 280.391 126.288V124.88H286.16C286.474 127.035 287.484 129.01 289.014 130.511H284.614C282.286 130.511 280.391 132.406 280.391 134.734V139.217C278.756 139.8 277.576 141.348 277.576 143.181C277.576 145.509 279.47 147.497 281.799 147.497C284.128 147.497 286.022 145.509 286.022 143.181C286.022 141.348 284.842 139.8 283.207 139.217V134.734C283.207 133.958 283.838 133.327 284.614 133.327H291.653V134.734C291.653 137.063 293.641 138.957 295.97 138.957H297.378V134.734C297.378 133.956 298.007 133.327 298.785 133.327C299.563 133.327 300.193 133.956 300.193 134.734V138.957H303.008V134.734C303.008 133.956 303.638 133.327 304.416 133.327C305.194 133.327 305.824 133.956 305.824 134.734V138.957H307.325C309.654 138.957 311.548 137.063 311.548 134.734V133.327H318.587C319.363 133.327 319.995 133.958 319.995 134.734V139.217C318.36 139.8 317.179 141.348 317.179 143.181C317.179 145.509 319.074 147.497 321.402 147.497C323.731 147.497 325.625 145.509 325.625 143.181C325.625 141.348 324.445 139.8 322.81 139.217V134.734C322.81 132.406 320.916 130.511 318.587 130.511H314.172C315.192 129.521 316.021 128.334 316.54 126.967C316.797 126.292 316.95 125.592 317.052 124.88H322.81V126.288C322.81 127.06 323.442 127.696 324.218 127.696C324.993 127.696 325.625 127.061 325.625 126.288V120.657C325.625 119.879 324.996 119.25 324.218 119.25ZM295.97 127.696C293.641 127.696 291.653 125.801 291.653 123.473V120.657C291.653 120.169 291.906 119.717 292.321 119.46C292.735 119.202 293.252 119.181 293.69 119.398L299.415 122.214C299.892 122.453 300.193 122.939 300.193 123.473C300.193 125.801 298.299 127.696 295.97 127.696ZM311.548 123.473C311.548 125.801 309.654 127.696 307.325 127.696C304.997 127.696 303.008 125.801 303.008 123.473C303.008 122.939 303.309 122.453 303.786 122.214L309.511 119.398C309.948 119.18 310.466 119.202 310.88 119.46C311.295 119.717 311.548 120.169 311.548 120.657V123.473Z" fill="white"/>
</g>
<rect x="237.917" y="39.5781" width="103.878" height="10.5114" fill="#C4C4C4"/>
<rect x="237.917" y="55.668" width="87.8013" height="10.5114" fill="#C4C4C4"/>
<rect x="237.917" y="183.652" width="34.0075" height="10.5114" fill="#D34426"/>
<rect x="323.242" y="183.652" width="34.0075" height="10.5114" fill="#C8E1F5"/>
<rect x="280.58" y="183.652" width="34.0075" height="10.5114" fill="#7FB2DF"/>
<rect x="237.917" y="198.492" width="34.0075" height="10.5114" fill="#E46C49"/>
<rect x="323.242" y="198.492" width="34.0075" height="10.5114" fill="#C8E1F5"/>
<rect x="280.58" y="198.492" width="34.0075" height="10.5114" fill="#7FB2DF"/>
<rect x="237.917" y="213.34" width="34.0075" height="10.5114" fill="#F5A38B"/>
<rect x="323.242" y="213.34" width="34.0075" height="10.5114" fill="#C8E1F5"/>
<path d="M207.575 162.542L226.274 181.242L213.808 193.708L195.108 175.009L207.575 162.542Z" fill="#0C3989"/>
<path d="M216.75 192.021L194.934 170.205L143.51 221.628C137.486 227.652 137.486 237.42 143.51 243.444C149.534 249.468 159.302 249.468 165.326 243.444L216.75 192.021Z" fill="#1756C6"/>
<path d="M314.601 75.3004C286.711 47.4097 241.491 47.4097 213.6 75.3004C185.71 103.191 185.71 148.411 213.6 176.301C241.491 204.192 286.711 204.192 314.601 176.301C342.492 148.411 342.492 103.191 314.601 75.3004ZM306.538 82.5147C329.976 105.952 329.976 143.952 306.538 167.389C283.101 190.827 245.101 190.827 221.663 167.389C198.226 143.952 198.226 105.952 221.663 82.5147C245.101 59.0772 283.101 59.0772 306.538 82.5147Z" fill="#1756C6"/>
<path d="M410.627 65H393.013V60.6836L398.939 54.6904C400.168 53.4066 401.12 52.3773 401.795 51.6025C402.481 50.8278 402.963 50.1693 403.239 49.627C403.516 49.0846 403.654 48.5202 403.654 47.9336C403.654 47.2142 403.422 46.694 402.957 46.373C402.492 46.0521 401.944 45.8916 401.313 45.8916C400.55 45.8916 399.775 46.113 398.989 46.5557C398.215 46.9873 397.335 47.6292 396.35 48.4814L392.747 44.2646C393.478 43.6117 394.252 42.9919 395.071 42.4053C395.89 41.8076 396.859 41.3206 397.977 40.9443C399.094 40.568 400.456 40.3799 402.061 40.3799C403.71 40.3799 405.137 40.6676 406.344 41.2432C407.561 41.8187 408.502 42.61 409.166 43.6172C409.83 44.6133 410.162 45.7477 410.162 47.0205C410.162 48.4261 409.902 49.6823 409.382 50.7891C408.873 51.8848 408.104 52.986 407.074 54.0928C406.045 55.1885 404.761 56.4336 403.223 57.8281L401.446 59.4219V59.5879H410.627V65ZM410.727 82.8975C410.727 84.8454 410.572 86.5885 410.262 88.127C409.952 89.6543 409.454 90.9548 408.768 92.0283C408.092 93.1019 407.196 93.9209 406.078 94.4854C404.96 95.0498 403.588 95.332 401.961 95.332C399.936 95.332 398.275 94.8395 396.98 93.8545C395.686 92.8584 394.728 91.4362 394.108 89.5879C393.5 87.7285 393.195 85.4984 393.195 82.8975C393.195 80.2744 393.472 78.0332 394.025 76.1738C394.59 74.3034 395.514 72.8701 396.798 71.874C398.082 70.8779 399.803 70.3799 401.961 70.3799C403.986 70.3799 405.641 70.8779 406.925 71.874C408.22 72.859 409.177 74.2868 409.797 76.1572C410.417 78.0166 410.727 80.2633 410.727 82.8975ZM399.72 82.8975C399.72 84.4801 399.775 85.8083 399.886 86.8818C400.007 87.9554 400.229 88.7633 400.55 89.3057C400.882 89.8369 401.352 90.1025 401.961 90.1025C402.57 90.1025 403.035 89.8369 403.355 89.3057C403.676 88.7633 403.898 87.9609 404.02 86.8984C404.141 85.8249 404.202 84.4912 404.202 82.8975C404.202 81.2926 404.141 79.9535 404.02 78.8799C403.898 77.8063 403.676 76.9984 403.355 76.4561C403.035 75.9027 402.57 75.626 401.961 75.626C401.352 75.626 400.882 75.9027 400.55 76.4561C400.229 76.9984 400.007 77.8063 399.886 78.8799C399.775 79.9535 399.72 81.2926 399.72 82.8975ZM410.627 125H393.013V120.684L398.939 114.69C400.168 113.407 401.12 112.377 401.795 111.603C402.481 110.828 402.963 110.169 403.239 109.627C403.516 109.085 403.654 108.52 403.654 107.934C403.654 107.214 403.422 106.694 402.957 106.373C402.492 106.052 401.944 105.892 401.313 105.892C400.55 105.892 399.775 106.113 398.989 106.556C398.215 106.987 397.335 107.629 396.35 108.481L392.747 104.265C393.478 103.612 394.252 102.992 395.071 102.405C395.89 101.808 396.859 101.321 397.977 100.944C399.094 100.568 400.456 100.38 402.061 100.38C403.71 100.38 405.137 100.668 406.344 101.243C407.561 101.819 408.502 102.61 409.166 103.617C409.83 104.613 410.162 105.748 410.162 107.021C410.162 108.426 409.902 109.682 409.382 110.789C408.873 111.885 408.104 112.986 407.074 114.093C406.045 115.188 404.761 116.434 403.223 117.828L401.446 119.422V119.588H410.627V125ZM410.627 155H393.013V150.684L398.939 144.69C400.168 143.407 401.12 142.377 401.795 141.603C402.481 140.828 402.963 140.169 403.239 139.627C403.516 139.085 403.654 138.52 403.654 137.934C403.654 137.214 403.422 136.694 402.957 136.373C402.492 136.052 401.944 135.892 401.313 135.892C400.55 135.892 399.775 136.113 398.989 136.556C398.215 136.987 397.335 137.629 396.35 138.481L392.747 134.265C393.478 133.612 394.252 132.992 395.071 132.405C395.89 131.808 396.859 131.321 397.977 130.944C399.094 130.568 400.456 130.38 402.061 130.38C403.71 130.38 405.137 130.668 406.344 131.243C407.561 131.819 408.502 132.61 409.166 133.617C409.83 134.613 410.162 135.748 410.162 137.021C410.162 138.426 409.902 139.682 409.382 140.789C408.873 141.885 408.104 142.986 407.074 144.093C406.045 145.188 404.761 146.434 403.223 147.828L401.446 149.422V149.588H410.627V155Z" fill="#FF7474"/>
<defs>
<filter id="filter0_d_103_927" x="407.312" y="127.164" width="254.707" height="152.842" filterUnits="userSpaceOnUse" color-interpolation-filters="sRGB">
<feFlood flood-opacity="0" result="BackgroundImageFix"/>
<feColorMatrix in="SourceAlpha" type="matrix" values="0 0 0 0 0 0 0 0 0 0 0 0 0 0 0 0 0 0 127 0" result="hardAlpha"/>
<feOffset dy="9"/>
<feGaussianBlur stdDeviation="10.5"/>
<feColorMatrix type="matrix" values="0 0 0 0 0.12549 0 0 0 0 0.167389 0 0 0 0 0.631373 0 0 0 0.157561 0"/>
<feBlend mode="normal" in2="BackgroundImageFix" result="effect1_dropShadow_103_927"/>
<feBlend mode="normal" in="SourceGraphic" in2="effect1_dropShadow_103_927" result="shape"/>
</filter>
<filter id="filter1_d_103_927" x="146.781" y="77.6562" width="354.24" height="231.789" filterUnits="userSpaceOnUse" color-interpolation-filters="sRGB">
<feFlood flood-opacity="0" result="BackgroundImageFix"/>
<feColorMatrix in="SourceAlpha" type="matrix" values="0 0 0 0 0 0 0 0 0 0 0 0 0 0 0 0 0 0 127 0" result="hardAlpha"/>
<feOffset dy="6"/>
<feGaussianBlur stdDeviation="8"/>
<feColorMatrix type="matrix" values="0 0 0 0 0.0785859 0 0 0 0 0.129961 0 0 0 0 0.359375 0 0 0 0.137292 0"/>
<feBlend mode="normal" in2="BackgroundImageFix" result="effect1_dropShadow_103_927"/>
<feBlend mode="normal" in="SourceGraphic" in2="effect1_dropShadow_103_927" result="shape"/>
</filter>
<filter id="filter2_d_103_927" x="0" y="194.234" width="151.562" height="169.607" filterUnits="userSpaceOnUse" color-interpolation-filters="sRGB">
<feFlood flood-opacity="0" result="BackgroundImageFix"/>
<feColorMatrix in="SourceAlpha" type="matrix" values="0 0 0 0 0 0 0 0 0 0 0 0 0 0 0 0 0 0 127 0" result="hardAlpha"/>
<feOffset dy="9"/>
<feGaussianBlur stdDeviation="10.5"/>
<feColorMatrix type="matrix" values="0 0 0 0 0.12549 0 0 0 0 0.167389 0 0 0 0 0.631373 0 0 0 0.157561 0"/>
<feBlend mode="normal" in2="BackgroundImageFix" result="effect1_dropShadow_103_927"/>
<feBlend mode="normal" in="SourceGraphic" in2="effect1_dropShadow_103_927" result="shape"/>
</filter>
<filter id="filter3_d_103_927" x="21.7666" y="34.0312" width="126.427" height="128.682" filterUnits="userSpaceOnUse" color-interpolation-filters="sRGB">
<feFlood flood-opacity="0" result="BackgroundImageFix"/>
<feColorMatrix in="SourceAlpha" type="matrix" values="0 0 0 0 0 0 0 0 0 0 0 0 0 0 0 0 0 0 127 0" result="hardAlpha"/>
<feOffset dx="-4" dy="6"/>
<feGaussianBlur stdDeviation="10.5"/>
<feColorMatrix type="matrix" values="0 0 0 0 0.320108 0 0 0 0 0.313468 0 0 0 0 0.338202 0 0 0 0.301683 0"/>
<feBlend mode="normal" in2="BackgroundImageFix" result="effect1_dropShadow_103_927"/>
<feBlend mode="normal" in="SourceGraphic" in2="effect1_dropShadow_103_927" result="shape"/>
</filter>
<filter id="filter4_d_103_927" x="234.457" y="63.8008" width="130.275" height="130.275" filterUnits="userSpaceOnUse" color-interpolation-filters="sRGB">
<feFlood flood-opacity="0" result="BackgroundImageFix"/>
<feColorMatrix in="SourceAlpha" type="matrix" values="0 0 0 0 0 0 0 0 0 0 0 0 0 0 0 0 0 0 127 0" result="hardAlpha"/>
<feOffset dx="-2" dy="4"/>
<feGaussianBlur stdDeviation="10"/>
<feColorMatrix type="matrix" values="0 0 0 0 0.53626 0 0 0 0 0.0640998 0 0 0 0 0.183198 0 0 0 0.5 0"/>
<feBlend mode="normal" in2="BackgroundImageFix" result="effect1_dropShadow_103_927"/>
<feBlend mode="normal" in="SourceGraphic" in2="effect1_dropShadow_103_927" result="shape"/>
</filter>
</defs>
</svg>
