<svg width="660" height="484" viewBox="0 0 660 484" fill="none" xmlns="http://www.w3.org/2000/svg">
<mask id="mask0_103_1195" style="mask-type:alpha" maskUnits="userSpaceOnUse" x="482" y="46" width="178" height="177">
<path d="M571.018 222.505C620.161 222.505 660 183.15 660 134.603C660 86.0561 620.161 46.7011 571.018 46.7011C521.875 46.7011 482.037 86.0561 482.037 134.603C482.037 183.15 521.875 222.505 571.018 222.505Z" fill="white"/>
</mask>
<g mask="url(#mask0_103_1195)">
<g filter="url(#filter0_d_103_1195)">
<path d="M571.018 222.505C620.161 222.505 660 183.15 660 134.603C660 86.0561 620.161 46.7011 571.018 46.7011C521.875 46.7011 482.037 86.0561 482.037 134.603C482.037 183.15 521.875 222.505 571.018 222.505Z" fill="black"/>
</g>
<path d="M571.018 222.505C620.161 222.505 660 183.15 660 134.603C660 86.0561 620.161 46.7011 571.018 46.7011C521.875 46.7011 482.037 86.0561 482.037 134.603C482.037 183.15 521.875 222.505 571.018 222.505Z" fill="white"/>
</g>
<path d="M575.44 73.0977C577.813 73.0977 579.913 74.6067 580.63 76.8284L583.469 85.6279C584.005 87.2871 585.337 88.5646 587.021 89.1096C589.357 89.8663 591.617 90.7901 593.785 91.8664C595.37 92.6543 597.237 92.6786 598.814 91.8747L607.166 87.6204C609.273 86.5471 611.845 86.9372 613.523 88.5851L618.965 93.9287C620.643 95.5758 621.041 98.1011 619.948 100.169L615.601 108.394C614.784 109.941 614.808 111.77 615.607 113.326C616.694 115.444 617.628 117.651 618.393 119.933C618.947 121.589 620.248 122.899 621.941 123.425L630.94 126.223C633.202 126.928 634.74 128.989 634.74 131.319V138.876C634.74 141.206 633.202 143.267 630.94 143.972L621.902 146.783C620.214 147.307 618.915 148.613 618.357 150.263C617.594 152.525 616.664 154.712 615.584 156.812C614.782 158.369 614.756 160.202 615.575 161.75L619.948 170.026C621.041 172.093 620.643 174.619 618.965 176.266L613.523 181.61C611.845 183.257 609.273 183.648 607.166 182.575L598.714 178.269C597.139 177.467 595.276 177.491 593.691 178.273C591.562 179.326 589.346 180.232 587.054 180.976C585.371 181.522 584.04 182.799 583.504 184.457L580.63 193.367C579.913 195.588 577.813 197.097 575.44 197.097H567.743C565.371 197.097 563.27 195.588 562.554 193.367L559.679 184.457C559.144 182.799 557.812 181.522 556.13 180.976C553.839 180.232 551.621 179.326 549.493 178.273C547.908 177.49 546.045 177.467 544.47 178.269L536.018 182.575C533.911 183.648 531.339 183.257 529.66 181.61L524.219 176.266C522.54 174.619 522.143 172.093 523.236 170.026L527.609 161.75C528.427 160.202 528.402 158.369 527.6 156.812C526.519 154.712 525.59 152.525 524.826 150.263C524.269 148.613 522.969 147.307 521.282 146.783L512.244 143.972C509.982 143.267 508.444 141.206 508.444 138.876V131.319C508.444 128.989 509.982 126.928 512.244 126.223L521.244 123.425C522.935 122.899 524.236 121.589 524.791 119.934C525.556 117.652 526.49 115.447 527.578 113.329C528.377 111.773 528.4 109.944 527.583 108.397L523.236 100.17C522.143 98.1011 522.54 95.5758 524.219 93.9287L529.66 88.5851C531.339 86.9372 533.911 86.5471 536.018 87.6204L544.372 91.8763C545.95 92.6801 547.817 92.6558 549.403 91.8679C551.57 90.7908 553.828 89.8663 556.163 89.1096C557.847 88.5646 559.179 87.2871 559.714 85.6287L562.554 76.8284C563.27 74.6067 565.371 73.0977 567.743 73.0977H575.44ZM571.592 104.623C554.45 104.623 540.553 118.267 540.553 135.098C540.553 151.928 554.45 165.572 571.592 165.572C588.734 165.572 602.631 151.928 602.631 135.098C602.631 118.267 588.734 104.623 571.592 104.623Z" fill="#A0C2FF"/>
<g filter="url(#filter1_d_103_1195)">
<path d="M484.905 18C486.673 18 488.239 19.1177 488.773 20.7634L490.89 27.2816C491.289 28.5107 492.282 29.4569 493.538 29.8606C495.279 30.4212 496.964 31.1054 498.58 31.9027C499.762 32.4863 501.153 32.5043 502.329 31.9089L508.555 28.7575C510.125 27.9625 512.043 28.2515 513.294 29.4721L517.35 33.4303C518.602 34.6504 518.898 36.521 518.083 38.0531L514.843 44.1457C514.234 45.291 514.252 46.646 514.847 47.7986C515.657 49.3678 516.353 51.0023 516.924 52.6929C517.337 53.9192 518.307 54.8897 519.569 55.2793L526.277 57.3523C527.964 57.8741 529.11 59.4011 529.11 61.1272V66.7244C529.11 68.4505 527.964 69.9776 526.277 70.4993L519.54 72.5813C518.282 72.9699 517.313 73.9369 516.897 75.1593C516.328 76.8347 515.635 78.4551 514.83 80.0109C514.232 81.1641 514.213 82.5213 514.823 83.6683L518.083 89.7985C518.898 91.3301 518.602 93.2012 517.35 94.4213L513.294 98.3795C512.043 99.5996 510.125 99.8892 508.555 99.0941L502.254 95.9045C501.08 95.3108 499.691 95.3282 498.51 95.9079C496.923 96.6877 495.271 97.3585 493.562 97.9101C492.308 98.3143 491.315 99.26 490.916 100.489L488.773 107.088C488.239 108.734 486.673 109.852 484.905 109.852H479.167C477.398 109.852 475.833 108.734 475.298 107.088L473.156 100.489C472.756 99.26 471.764 98.3143 470.51 97.9101C468.802 97.3585 467.149 96.6877 465.562 95.9079C464.38 95.3276 462.992 95.3102 461.818 95.9045L455.517 99.0941C453.946 99.8892 452.029 99.5996 450.778 98.3795L446.721 94.4213C445.47 93.2012 445.174 91.3301 445.989 89.7985L449.248 83.6683C449.859 82.5213 449.84 81.1641 449.242 80.0109C448.436 78.4551 447.744 76.8347 447.174 75.1593C446.759 73.9369 445.79 72.9699 444.532 72.5813L437.794 70.4993C436.108 69.9776 434.962 68.4505 434.962 66.7244V61.1272C434.962 59.4011 436.108 57.8741 437.794 57.3523L444.504 55.2793C445.765 54.8897 446.735 53.9192 447.148 52.6935C447.718 51.0034 448.414 49.3695 449.225 47.8008C449.821 46.6482 449.839 45.2932 449.229 44.1473L445.989 38.0537C445.174 36.521 445.47 34.6504 446.721 33.4303L450.778 29.4721C452.029 28.2515 453.946 27.9625 455.517 28.7575L461.745 31.91C462.921 32.5054 464.313 32.4874 465.495 31.9038C467.11 31.106 468.794 30.4212 470.535 29.8606C471.79 29.4569 472.783 28.5107 473.182 27.2822L475.298 20.7634C475.833 19.1177 477.398 18 479.167 18H484.905ZM482.036 41.3521C469.257 41.3521 458.898 51.4588 458.898 63.9258C458.898 76.3929 469.257 86.4995 482.036 86.4995C494.815 86.4995 505.174 76.3929 505.174 63.9258C505.174 51.4588 494.815 41.3521 482.036 41.3521Z" fill="#A0C2FF"/>
</g>
<path d="M89.6421 47.8447C90.8715 47.8447 91.96 48.6411 92.3313 49.8136L93.8023 54.4578C94.0799 55.3335 94.7702 56.0077 95.6431 56.2954C96.8537 56.6948 98.0246 57.1823 99.1479 57.7503C99.9696 58.1662 100.937 58.179 101.754 57.7547L106.082 55.5094C107.174 54.9429 108.506 55.1488 109.376 56.0185L112.196 58.8388C113.066 59.7081 113.271 61.0409 112.705 62.1325L110.453 66.4734C110.029 67.2895 110.042 68.2549 110.456 69.0761C111.019 70.1942 111.503 71.3588 111.899 72.5634C112.187 73.4371 112.861 74.1285 113.738 74.4062L118.401 75.8832C119.573 76.2549 120.37 77.343 120.37 78.5728V82.5608C120.37 83.7906 119.573 84.8787 118.401 85.2504L113.718 86.7339C112.843 87.0107 112.17 87.6997 111.881 88.5706C111.485 89.7644 111.004 90.919 110.444 92.0274C110.028 92.849 110.015 93.8161 110.439 94.6333L112.705 99.0011C113.271 100.092 113.066 101.426 112.196 102.295L109.376 105.115C108.506 105.984 107.174 106.191 106.082 105.624L101.702 103.352C100.886 102.929 99.9207 102.941 99.0995 103.354C97.9962 103.91 96.8477 104.388 95.6599 104.781C94.7882 105.069 94.0984 105.742 93.8208 106.618L92.3313 111.32C91.96 112.493 90.8715 113.289 89.6421 113.289H85.6537C84.4243 113.289 83.3359 112.493 82.9645 111.32L81.4751 106.618C81.1975 105.742 80.5076 105.069 79.6359 104.781C78.4486 104.388 77.2996 103.91 76.1968 103.354C75.3752 102.941 74.4101 102.928 73.5937 103.352L69.2139 105.624C68.1223 106.191 66.7895 105.984 65.9198 105.115L63.1 102.295C62.2303 101.426 62.0244 100.092 62.5908 99.0011L64.8566 94.6333C65.2809 93.8161 65.2676 92.849 64.8522 92.0274C64.2922 90.919 63.8107 89.7644 63.4145 88.5706C63.126 87.6997 62.4526 87.0107 61.5781 86.7339L56.8947 85.2504C55.7226 84.8787 54.9258 83.7906 54.9258 82.5608V78.5728C54.9258 77.343 55.7226 76.2549 56.8947 75.8832L61.5585 74.4062C62.435 74.1285 63.1092 73.4371 63.3965 72.5638C63.793 71.3596 64.277 70.1954 64.8406 69.0778C65.2548 68.2565 65.2668 67.2911 64.8434 66.4746L62.5908 62.1329C62.0244 61.0409 62.2303 59.7081 63.1 58.8388L65.9198 56.0185C66.7895 55.1488 68.1223 54.9429 69.2139 55.5094L73.5432 57.7555C74.3608 58.1798 75.3283 58.167 76.1499 57.7511C77.2728 57.1827 78.443 56.6948 79.6532 56.2954C80.5257 56.0077 81.2159 55.3335 81.4931 54.4582L82.9645 49.8136C83.3359 48.6411 84.4243 47.8447 85.6537 47.8447H89.6421ZM88.6296 65.5146C79.7744 65.5146 72.5957 72.6933 72.5957 81.5485C72.5957 90.4037 79.7744 97.5823 88.6296 97.5823C97.4848 97.5823 104.663 90.4037 104.663 81.5485C104.663 72.6933 97.4848 65.5146 88.6296 65.5146Z" fill="#D69B87"/>
<path d="M555.489 370.929C556.066 356.762 567.815 345.445 582.268 345.445C594.238 345.445 604.368 353.205 607.828 363.916C610.3 362.87 613.021 362.288 615.879 362.288C625.754 362.288 633.994 369.2 635.941 378.404C637.418 378.027 638.957 377.805 640.551 377.805C650.74 377.805 659.001 385.983 659.001 396.071C659.001 406.091 650.848 414.217 640.75 414.325V414.334H555.784C543.671 414.334 533.853 404.616 533.853 392.626C533.853 380.733 543.513 371.086 555.489 370.929Z" fill="#4FD8E5"/>
<path fill-rule="evenodd" clip-rule="evenodd" d="M603.648 404.26H645.526C647.168 404.26 648.501 402.873 648.501 401.162V391.044C648.501 389.333 647.168 387.946 645.526 387.946H603.649C602.005 387.946 600.673 389.333 600.673 391.044V401.161C600.673 402.873 602.005 404.26 603.648 404.26Z" fill="url(#paint0_linear_103_1195)"/>
<path d="M603.647 419.792H645.526C647.168 419.792 648.501 418.404 648.501 416.694V406.575C648.501 404.865 647.168 403.477 645.526 403.477H603.648C602.004 403.477 600.673 404.865 600.673 406.575V416.693C600.672 418.404 602.004 419.792 603.647 419.792Z" fill="url(#paint1_linear_103_1195)"/>
<path fill-rule="evenodd" clip-rule="evenodd" d="M603.647 436.126H645.526C647.168 436.126 648.501 434.738 648.501 433.028V422.909C648.501 421.199 647.168 419.811 645.526 419.811H603.648C602.004 419.811 600.673 421.199 600.673 422.909V433.027C600.672 434.738 602.004 436.126 603.647 436.126Z" fill="url(#paint2_linear_103_1195)"/>
<g style="mix-blend-mode:darken" opacity="0.589262">
<path d="M640.672 399.567C638.946 399.567 637.547 398.18 637.547 396.47C637.547 394.76 638.946 393.373 640.672 393.373C642.399 393.373 643.798 394.76 643.798 396.47C643.798 398.18 642.399 399.567 640.672 399.567Z" fill="black"/>
</g>
<g style="mix-blend-mode:darken" opacity="0.299316">
<path d="M607.729 396.082C607.095 396.082 606.581 395.568 606.581 394.934C606.581 394.3 607.095 393.786 607.729 393.786C608.363 393.786 608.877 394.3 608.877 394.934C608.877 395.568 608.363 396.082 607.729 396.082Z" fill="black"/>
</g>
<g style="mix-blend-mode:darken" opacity="0.299316">
<path d="M611.651 396.082C611.017 396.082 610.503 395.568 610.503 394.934C610.503 394.3 611.017 393.786 611.651 393.786C612.285 393.786 612.799 394.3 612.799 394.934C612.799 395.568 612.285 396.082 611.651 396.082Z" fill="black"/>
</g>
<g style="mix-blend-mode:darken" opacity="0.299316">
<path d="M606.159 398.425C605.525 398.425 605.011 397.911 605.011 397.277C605.011 396.642 605.525 396.128 606.159 396.128C606.794 396.128 607.308 396.642 607.308 397.277C607.308 397.911 606.794 398.425 606.159 398.425Z" fill="black"/>
</g>
<g style="mix-blend-mode:darken" opacity="0.299316">
<path d="M609.298 398.425C608.664 398.425 608.15 397.911 608.15 397.277C608.15 396.642 608.664 396.128 609.298 396.128C609.932 396.128 610.446 396.642 610.446 397.277C610.446 397.911 609.932 398.425 609.298 398.425Z" fill="black"/>
</g>
<g style="mix-blend-mode:darken" opacity="0.299316">
<path d="M614.785 396.082C614.151 396.082 613.637 395.568 613.637 394.934C613.637 394.3 614.151 393.786 614.785 393.786C615.419 393.786 615.933 394.3 615.933 394.934C615.933 395.568 615.419 396.082 614.785 396.082Z" fill="black"/>
</g>
<g style="mix-blend-mode:darken" opacity="0.299316">
<path d="M613.217 398.425C612.583 398.425 612.069 397.911 612.069 397.277C612.069 396.642 612.583 396.128 613.217 396.128C613.851 396.128 614.365 396.642 614.365 397.277C614.365 397.911 613.851 398.425 613.217 398.425Z" fill="black"/>
</g>
<g style="mix-blend-mode:darken" opacity="0.299316">
<path d="M617.923 396.082C617.289 396.082 616.775 395.568 616.775 394.934C616.775 394.3 617.289 393.786 617.923 393.786C618.557 393.786 619.071 394.3 619.071 394.934C619.071 395.568 618.557 396.082 617.923 396.082Z" fill="black"/>
</g>
<g style="mix-blend-mode:darken" opacity="0.299316">
<path d="M616.354 398.425C615.72 398.425 615.206 397.911 615.206 397.277C615.206 396.642 615.72 396.128 616.354 396.128C616.988 396.128 617.502 396.642 617.502 397.277C617.502 397.911 616.988 398.425 616.354 398.425Z" fill="black"/>
</g>
<g style="mix-blend-mode:darken" opacity="0.299316">
<path d="M621.841 396.082C621.207 396.082 620.693 395.568 620.693 394.934C620.693 394.3 621.207 393.786 621.841 393.786C622.475 393.786 622.989 394.3 622.989 394.934C622.989 395.568 622.475 396.082 621.841 396.082Z" fill="black"/>
</g>
<g style="mix-blend-mode:darken" opacity="0.299316">
<path d="M619.492 398.425C618.857 398.425 618.343 397.911 618.343 397.277C618.343 396.642 618.857 396.128 619.492 396.128C620.126 396.128 620.64 396.642 620.64 397.277C620.64 397.911 620.126 398.425 619.492 398.425Z" fill="black"/>
</g>
<g style="mix-blend-mode:darken" opacity="0.589262">
<path d="M640.672 415.126C638.946 415.126 637.547 413.74 637.547 412.029C637.547 410.319 638.946 408.933 640.672 408.933C642.399 408.933 643.798 410.319 643.798 412.029C643.798 413.74 642.399 415.126 640.672 415.126Z" fill="black"/>
</g>
<g style="mix-blend-mode:darken" opacity="0.299316">
<path d="M607.729 411.614C607.095 411.614 606.581 411.1 606.581 410.466C606.581 409.832 607.095 409.318 607.729 409.318C608.363 409.318 608.877 409.832 608.877 410.466C608.877 411.1 608.363 411.614 607.729 411.614Z" fill="black"/>
</g>
<g style="mix-blend-mode:darken" opacity="0.299316">
<path d="M611.651 411.614C611.017 411.614 610.503 411.1 610.503 410.466C610.503 409.832 611.017 409.318 611.651 409.318C612.285 409.318 612.799 409.832 612.799 410.466C612.799 411.1 612.285 411.614 611.651 411.614Z" fill="black"/>
</g>
<g style="mix-blend-mode:darken" opacity="0.299316">
<path d="M606.159 413.957C605.525 413.957 605.011 413.442 605.011 412.808C605.011 412.174 605.525 411.66 606.159 411.66C606.794 411.66 607.308 412.174 607.308 412.808C607.308 413.442 606.794 413.957 606.159 413.957Z" fill="black"/>
</g>
<g style="mix-blend-mode:darken" opacity="0.299316">
<path d="M609.298 413.957C608.664 413.957 608.15 413.442 608.15 412.808C608.15 412.174 608.664 411.66 609.298 411.66C609.932 411.66 610.446 412.174 610.446 412.808C610.446 413.442 609.932 413.957 609.298 413.957Z" fill="black"/>
</g>
<g style="mix-blend-mode:darken" opacity="0.299316">
<path d="M614.785 411.614C614.151 411.614 613.637 411.1 613.637 410.466C613.637 409.832 614.151 409.318 614.785 409.318C615.419 409.318 615.933 409.832 615.933 410.466C615.933 411.1 615.419 411.614 614.785 411.614Z" fill="black"/>
</g>
<g style="mix-blend-mode:darken" opacity="0.299316">
<path d="M613.217 413.957C612.583 413.957 612.069 413.442 612.069 412.808C612.069 412.174 612.583 411.66 613.217 411.66C613.851 411.66 614.365 412.174 614.365 412.808C614.365 413.442 613.851 413.957 613.217 413.957Z" fill="black"/>
</g>
<g style="mix-blend-mode:darken" opacity="0.299316">
<path d="M617.923 411.614C617.289 411.614 616.775 411.1 616.775 410.466C616.775 409.832 617.289 409.318 617.923 409.318C618.557 409.318 619.071 409.832 619.071 410.466C619.071 411.1 618.557 411.614 617.923 411.614Z" fill="black"/>
</g>
<g style="mix-blend-mode:darken" opacity="0.299316">
<path d="M616.354 413.957C615.72 413.957 615.206 413.442 615.206 412.808C615.206 412.174 615.72 411.66 616.354 411.66C616.988 411.66 617.502 412.174 617.502 412.808C617.502 413.442 616.988 413.957 616.354 413.957Z" fill="black"/>
</g>
<g style="mix-blend-mode:darken" opacity="0.299316">
<path d="M621.841 411.614C621.207 411.614 620.693 411.1 620.693 410.466C620.693 409.832 621.207 409.318 621.841 409.318C622.475 409.318 622.989 409.832 622.989 410.466C622.989 411.1 622.475 411.614 621.841 411.614Z" fill="black"/>
</g>
<g style="mix-blend-mode:darken" opacity="0.299316">
<path d="M619.492 413.957C618.857 413.957 618.343 413.442 618.343 412.808C618.343 412.174 618.857 411.66 619.492 411.66C620.126 411.66 620.64 412.174 620.64 412.808C620.64 413.442 620.126 413.957 619.492 413.957Z" fill="black"/>
</g>
<g style="mix-blend-mode:darken" opacity="0.589262">
<path d="M640.672 430.658C638.946 430.658 637.547 429.272 637.547 427.561C637.547 425.851 638.946 424.464 640.672 424.464C642.399 424.464 643.798 425.851 643.798 427.561C643.798 429.272 642.399 430.658 640.672 430.658Z" fill="black"/>
</g>
<g style="mix-blend-mode:darken" opacity="0.299316">
<path d="M607.729 427.948C607.095 427.948 606.581 427.434 606.581 426.8C606.581 426.166 607.095 425.651 607.729 425.651C608.363 425.651 608.877 426.166 608.877 426.8C608.877 427.434 608.363 427.948 607.729 427.948Z" fill="black"/>
</g>
<g style="mix-blend-mode:darken" opacity="0.299316">
<path d="M611.651 427.948C611.017 427.948 610.503 427.434 610.503 426.8C610.503 426.166 611.017 425.651 611.651 425.651C612.285 425.651 612.799 426.166 612.799 426.8C612.799 427.434 612.285 427.948 611.651 427.948Z" fill="black"/>
</g>
<g style="mix-blend-mode:darken" opacity="0.299316">
<path d="M606.159 430.262C605.525 430.262 605.011 429.748 605.011 429.114C605.011 428.48 605.525 427.966 606.159 427.966C606.794 427.966 607.308 428.48 607.308 429.114C607.308 429.748 606.794 430.262 606.159 430.262Z" fill="black"/>
</g>
<g style="mix-blend-mode:darken" opacity="0.299316">
<path d="M609.298 430.262C608.664 430.262 608.15 429.748 608.15 429.114C608.15 428.48 608.664 427.966 609.298 427.966C609.932 427.966 610.446 428.48 610.446 429.114C610.446 429.748 609.932 430.262 609.298 430.262Z" fill="black"/>
</g>
<g style="mix-blend-mode:darken" opacity="0.299316">
<path d="M614.785 427.948C614.151 427.948 613.637 427.434 613.637 426.8C613.637 426.166 614.151 425.651 614.785 425.651C615.419 425.651 615.933 426.166 615.933 426.8C615.933 427.434 615.419 427.948 614.785 427.948Z" fill="black"/>
</g>
<g style="mix-blend-mode:darken" opacity="0.299316">
<path d="M613.217 430.262C612.583 430.262 612.069 429.748 612.069 429.114C612.069 428.48 612.583 427.966 613.217 427.966C613.851 427.966 614.365 428.48 614.365 429.114C614.365 429.748 613.851 430.262 613.217 430.262Z" fill="black"/>
</g>
<g style="mix-blend-mode:darken" opacity="0.299316">
<path d="M617.923 427.948C617.289 427.948 616.775 427.434 616.775 426.8C616.775 426.166 617.289 425.651 617.923 425.651C618.557 425.651 619.071 426.166 619.071 426.8C619.071 427.434 618.557 427.948 617.923 427.948Z" fill="black"/>
</g>
<g style="mix-blend-mode:darken" opacity="0.299316">
<path d="M616.354 430.262C615.72 430.262 615.206 429.748 615.206 429.114C615.206 428.48 615.72 427.966 616.354 427.966C616.988 427.966 617.502 428.48 617.502 429.114C617.502 429.748 616.988 430.262 616.354 430.262Z" fill="black"/>
</g>
<g style="mix-blend-mode:darken" opacity="0.299316">
<path d="M621.841 427.948C621.207 427.948 620.693 427.434 620.693 426.8C620.693 426.166 621.207 425.651 621.841 425.651C622.475 425.651 622.989 426.166 622.989 426.8C622.989 427.434 622.475 427.948 621.841 427.948Z" fill="black"/>
</g>
<g style="mix-blend-mode:darken" opacity="0.299316">
<path d="M619.492 430.262C618.857 430.262 618.343 429.748 618.343 429.114C618.343 428.48 618.857 427.966 619.492 427.966C620.126 427.966 620.64 428.48 620.64 429.114C620.64 429.748 620.126 430.262 619.492 430.262Z" fill="black"/>
</g>
<path fill-rule="evenodd" clip-rule="evenodd" d="M548.538 404.26H590.416C592.059 404.26 593.391 402.873 593.391 401.162V391.044C593.391 389.333 592.059 387.946 590.416 387.946H548.539C546.895 387.946 545.563 389.333 545.563 391.044V401.161C545.563 402.873 546.895 404.26 548.538 404.26Z" fill="url(#paint3_linear_103_1195)"/>
<path d="M548.537 419.792H590.416C592.058 419.792 593.391 418.404 593.391 416.694V406.575C593.391 404.865 592.058 403.477 590.416 403.477H548.538C546.895 403.477 545.563 404.865 545.563 406.575V416.693C545.562 418.404 546.895 419.792 548.537 419.792Z" fill="url(#paint4_linear_103_1195)"/>
<path fill-rule="evenodd" clip-rule="evenodd" d="M548.537 436.126H590.416C592.058 436.126 593.391 434.738 593.391 433.028V422.909C593.391 421.199 592.058 419.811 590.416 419.811H548.538C546.895 419.811 545.563 421.199 545.563 422.909V433.027C545.562 434.738 546.895 436.126 548.537 436.126Z" fill="url(#paint5_linear_103_1195)"/>
<g style="mix-blend-mode:darken" opacity="0.589262">
<path d="M585.562 399.567C583.836 399.567 582.437 398.18 582.437 396.47C582.437 394.76 583.836 393.373 585.562 393.373C587.289 393.373 588.688 394.76 588.688 396.47C588.688 398.18 587.289 399.567 585.562 399.567Z" fill="black"/>
</g>
<g style="mix-blend-mode:darken" opacity="0.299316">
<path d="M552.619 396.082C551.985 396.082 551.471 395.568 551.471 394.934C551.471 394.3 551.985 393.786 552.619 393.786C553.253 393.786 553.767 394.3 553.767 394.934C553.767 395.568 553.253 396.082 552.619 396.082Z" fill="black"/>
</g>
<g style="mix-blend-mode:darken" opacity="0.299316">
<path d="M556.541 396.082C555.907 396.082 555.393 395.568 555.393 394.934C555.393 394.3 555.907 393.786 556.541 393.786C557.175 393.786 557.689 394.3 557.689 394.934C557.689 395.568 557.175 396.082 556.541 396.082Z" fill="black"/>
</g>
<g style="mix-blend-mode:darken" opacity="0.299316">
<path d="M551.05 398.425C550.416 398.425 549.901 397.911 549.901 397.277C549.901 396.642 550.416 396.128 551.05 396.128C551.684 396.128 552.198 396.642 552.198 397.277C552.198 397.911 551.684 398.425 551.05 398.425Z" fill="black"/>
</g>
<g style="mix-blend-mode:darken" opacity="0.299316">
<path d="M554.188 398.425C553.554 398.425 553.04 397.911 553.04 397.277C553.04 396.642 553.554 396.128 554.188 396.128C554.822 396.128 555.336 396.642 555.336 397.277C555.336 397.911 554.822 398.425 554.188 398.425Z" fill="black"/>
</g>
<g style="mix-blend-mode:darken" opacity="0.299316">
<path d="M559.675 396.082C559.041 396.082 558.527 395.568 558.527 394.934C558.527 394.3 559.041 393.786 559.675 393.786C560.309 393.786 560.823 394.3 560.823 394.934C560.823 395.568 560.309 396.082 559.675 396.082Z" fill="black"/>
</g>
<g style="mix-blend-mode:darken" opacity="0.299316">
<path d="M558.107 398.425C557.473 398.425 556.959 397.911 556.959 397.277C556.959 396.642 557.473 396.128 558.107 396.128C558.741 396.128 559.255 396.642 559.255 397.277C559.255 397.911 558.741 398.425 558.107 398.425Z" fill="black"/>
</g>
<g style="mix-blend-mode:darken" opacity="0.299316">
<path d="M562.813 396.082C562.179 396.082 561.665 395.568 561.665 394.934C561.665 394.3 562.179 393.786 562.813 393.786C563.447 393.786 563.961 394.3 563.961 394.934C563.961 395.568 563.447 396.082 562.813 396.082Z" fill="black"/>
</g>
<g style="mix-blend-mode:darken" opacity="0.299316">
<path d="M561.244 398.425C560.61 398.425 560.096 397.911 560.096 397.277C560.096 396.642 560.61 396.128 561.244 396.128C561.878 396.128 562.392 396.642 562.392 397.277C562.392 397.911 561.878 398.425 561.244 398.425Z" fill="black"/>
</g>
<g style="mix-blend-mode:darken" opacity="0.299316">
<path d="M566.731 396.082C566.097 396.082 565.583 395.568 565.583 394.934C565.583 394.3 566.097 393.786 566.731 393.786C567.365 393.786 567.879 394.3 567.879 394.934C567.879 395.568 567.365 396.082 566.731 396.082Z" fill="black"/>
</g>
<g style="mix-blend-mode:darken" opacity="0.299316">
<path d="M564.382 398.425C563.748 398.425 563.233 397.911 563.233 397.277C563.233 396.642 563.748 396.128 564.382 396.128C565.016 396.128 565.53 396.642 565.53 397.277C565.53 397.911 565.016 398.425 564.382 398.425Z" fill="black"/>
</g>
<g style="mix-blend-mode:darken" opacity="0.589262">
<path d="M585.562 415.126C583.836 415.126 582.437 413.74 582.437 412.029C582.437 410.319 583.836 408.933 585.562 408.933C587.289 408.933 588.688 410.319 588.688 412.029C588.688 413.74 587.289 415.126 585.562 415.126Z" fill="black"/>
</g>
<g style="mix-blend-mode:darken" opacity="0.299316">
<path d="M552.619 411.614C551.985 411.614 551.471 411.1 551.471 410.466C551.471 409.832 551.985 409.318 552.619 409.318C553.253 409.318 553.767 409.832 553.767 410.466C553.767 411.1 553.253 411.614 552.619 411.614Z" fill="black"/>
</g>
<g style="mix-blend-mode:darken" opacity="0.299316">
<path d="M556.541 411.614C555.907 411.614 555.393 411.1 555.393 410.466C555.393 409.832 555.907 409.318 556.541 409.318C557.175 409.318 557.689 409.832 557.689 410.466C557.689 411.1 557.175 411.614 556.541 411.614Z" fill="black"/>
</g>
<g style="mix-blend-mode:darken" opacity="0.299316">
<path d="M551.05 413.957C550.416 413.957 549.901 413.442 549.901 412.808C549.901 412.174 550.416 411.66 551.05 411.66C551.684 411.66 552.198 412.174 552.198 412.808C552.198 413.442 551.684 413.957 551.05 413.957Z" fill="black"/>
</g>
<g style="mix-blend-mode:darken" opacity="0.299316">
<path d="M554.188 413.957C553.554 413.957 553.04 413.442 553.04 412.808C553.04 412.174 553.554 411.66 554.188 411.66C554.822 411.66 555.336 412.174 555.336 412.808C555.336 413.442 554.822 413.957 554.188 413.957Z" fill="black"/>
</g>
<g style="mix-blend-mode:darken" opacity="0.299316">
<path d="M559.675 411.614C559.041 411.614 558.527 411.1 558.527 410.466C558.527 409.832 559.041 409.318 559.675 409.318C560.309 409.318 560.823 409.832 560.823 410.466C560.823 411.1 560.309 411.614 559.675 411.614Z" fill="black"/>
</g>
<g style="mix-blend-mode:darken" opacity="0.299316">
<path d="M558.107 413.957C557.473 413.957 556.959 413.442 556.959 412.808C556.959 412.174 557.473 411.66 558.107 411.66C558.741 411.66 559.255 412.174 559.255 412.808C559.255 413.442 558.741 413.957 558.107 413.957Z" fill="black"/>
</g>
<g style="mix-blend-mode:darken" opacity="0.299316">
<path d="M562.813 411.614C562.179 411.614 561.665 411.1 561.665 410.466C561.665 409.832 562.179 409.318 562.813 409.318C563.447 409.318 563.961 409.832 563.961 410.466C563.961 411.1 563.447 411.614 562.813 411.614Z" fill="black"/>
</g>
<g style="mix-blend-mode:darken" opacity="0.299316">
<path d="M561.244 413.957C560.61 413.957 560.096 413.442 560.096 412.808C560.096 412.174 560.61 411.66 561.244 411.66C561.878 411.66 562.392 412.174 562.392 412.808C562.392 413.442 561.878 413.957 561.244 413.957Z" fill="black"/>
</g>
<g style="mix-blend-mode:darken" opacity="0.299316">
<path d="M566.731 411.614C566.097 411.614 565.583 411.1 565.583 410.466C565.583 409.832 566.097 409.318 566.731 409.318C567.365 409.318 567.879 409.832 567.879 410.466C567.879 411.1 567.365 411.614 566.731 411.614Z" fill="black"/>
</g>
<g style="mix-blend-mode:darken" opacity="0.299316">
<path d="M564.382 413.957C563.748 413.957 563.233 413.442 563.233 412.808C563.233 412.174 563.748 411.66 564.382 411.66C565.016 411.66 565.53 412.174 565.53 412.808C565.53 413.442 565.016 413.957 564.382 413.957Z" fill="black"/>
</g>
<g style="mix-blend-mode:darken" opacity="0.589262">
<path d="M585.562 430.658C583.836 430.658 582.437 429.272 582.437 427.561C582.437 425.851 583.836 424.464 585.562 424.464C587.289 424.464 588.688 425.851 588.688 427.561C588.688 429.272 587.289 430.658 585.562 430.658Z" fill="black"/>
</g>
<g style="mix-blend-mode:darken" opacity="0.299316">
<path d="M552.619 427.948C551.985 427.948 551.471 427.434 551.471 426.8C551.471 426.166 551.985 425.651 552.619 425.651C553.253 425.651 553.767 426.166 553.767 426.8C553.767 427.434 553.253 427.948 552.619 427.948Z" fill="black"/>
</g>
<g style="mix-blend-mode:darken" opacity="0.299316">
<path d="M556.541 427.948C555.907 427.948 555.393 427.434 555.393 426.8C555.393 426.166 555.907 425.651 556.541 425.651C557.175 425.651 557.689 426.166 557.689 426.8C557.689 427.434 557.175 427.948 556.541 427.948Z" fill="black"/>
</g>
<g style="mix-blend-mode:darken" opacity="0.299316">
<path d="M551.05 430.262C550.416 430.262 549.901 429.748 549.901 429.114C549.901 428.48 550.416 427.966 551.05 427.966C551.684 427.966 552.198 428.48 552.198 429.114C552.198 429.748 551.684 430.262 551.05 430.262Z" fill="black"/>
</g>
<g style="mix-blend-mode:darken" opacity="0.299316">
<path d="M554.188 430.262C553.554 430.262 553.04 429.748 553.04 429.114C553.04 428.48 553.554 427.966 554.188 427.966C554.822 427.966 555.336 428.48 555.336 429.114C555.336 429.748 554.822 430.262 554.188 430.262Z" fill="black"/>
</g>
<g style="mix-blend-mode:darken" opacity="0.299316">
<path d="M559.675 427.948C559.041 427.948 558.527 427.434 558.527 426.8C558.527 426.166 559.041 425.651 559.675 425.651C560.309 425.651 560.823 426.166 560.823 426.8C560.823 427.434 560.309 427.948 559.675 427.948Z" fill="black"/>
</g>
<g style="mix-blend-mode:darken" opacity="0.299316">
<path d="M558.107 430.262C557.473 430.262 556.959 429.748 556.959 429.114C556.959 428.48 557.473 427.966 558.107 427.966C558.741 427.966 559.255 428.48 559.255 429.114C559.255 429.748 558.741 430.262 558.107 430.262Z" fill="black"/>
</g>
<g style="mix-blend-mode:darken" opacity="0.299316">
<path d="M562.813 427.948C562.179 427.948 561.665 427.434 561.665 426.8C561.665 426.166 562.179 425.651 562.813 425.651C563.447 425.651 563.961 426.166 563.961 426.8C563.961 427.434 563.447 427.948 562.813 427.948Z" fill="black"/>
</g>
<g style="mix-blend-mode:darken" opacity="0.299316">
<path d="M561.244 430.262C560.61 430.262 560.096 429.748 560.096 429.114C560.096 428.48 560.61 427.966 561.244 427.966C561.878 427.966 562.392 428.48 562.392 429.114C562.392 429.748 561.878 430.262 561.244 430.262Z" fill="black"/>
</g>
<g style="mix-blend-mode:darken" opacity="0.299316">
<path d="M566.731 427.948C566.097 427.948 565.583 427.434 565.583 426.8C565.583 426.166 566.097 425.651 566.731 425.651C567.365 425.651 567.879 426.166 567.879 426.8C567.879 427.434 567.365 427.948 566.731 427.948Z" fill="black"/>
</g>
<g style="mix-blend-mode:darken" opacity="0.299316">
<path d="M564.382 430.262C563.748 430.262 563.233 429.748 563.233 429.114C563.233 428.48 563.748 427.966 564.382 427.966C565.016 427.966 565.53 428.48 565.53 429.114C565.53 429.748 565.016 430.262 564.382 430.262Z" fill="black"/>
</g>
<path d="M584.986 339.655V345.437H586.134V339.655H584.986ZM584.986 329.536V335.319H586.134V329.536H584.986ZM584.986 319.418V325.2H586.134V319.418H584.986ZM584.986 309.299V315.081H586.134V309.299H584.986ZM582.772 299.546L581.944 300.342C583.14 301.586 584.026 303.094 584.524 304.748L584.632 305.132L585.743 304.841C585.221 302.847 584.194 301.027 582.772 299.546ZM475.72 291.251C472.867 291.251 470.554 293.564 470.554 296.418C470.554 299.271 472.867 301.584 475.72 301.584C478.574 301.584 480.887 299.271 480.887 296.418C480.887 293.564 478.574 291.251 475.72 291.251ZM573.162 295.844V296.992H574.079C575.47 296.992 576.825 297.252 578.088 297.752L578.506 297.928L578.973 296.879C577.584 296.261 576.087 295.911 574.543 295.852L574.079 295.844H573.162ZM563.044 295.844V296.992H568.826V295.844H563.044ZM552.925 295.844V296.992H558.707V295.844H552.925ZM542.806 295.844V296.992H548.588V295.844H542.806ZM532.687 295.844V296.992H538.469V295.844H532.687ZM522.568 295.844V296.992H528.351V295.844H522.568ZM512.45 295.844V296.992H518.232V295.844H512.45ZM502.331 295.844V296.992H508.113V295.844H502.331ZM492.212 295.844V296.992H497.994V295.844H492.212ZM482.093 295.844V296.992H487.875V295.844H482.093Z" fill="black"/>
<path d="M626.279 385.618V387.914H627.427V385.618H626.279ZM626.279 381.026V383.322H627.427V381.026H626.279ZM626.279 376.433V378.729H627.427V376.433H626.279ZM626.279 371.84V374.137H627.427V371.84H626.279ZM626.279 367.248V369.544H627.427V367.248H626.279ZM626.604 362.542C626.456 363.166 626.358 363.802 626.311 364.447L626.285 364.933L627.433 364.97C627.452 364.383 627.518 363.802 627.629 363.233L627.721 362.808L626.604 362.542ZM628.644 358.163C628.26 358.681 627.919 359.228 627.622 359.8L627.409 360.234L628.449 360.72C628.696 360.192 628.985 359.685 629.313 359.203L629.566 358.847L628.644 358.163ZM632.229 354.939C631.673 355.266 631.145 355.637 630.649 356.047L630.283 356.363L631.05 357.217C631.484 356.828 631.949 356.473 632.439 356.158L632.811 355.929L632.229 354.939ZM636.746 353.384C636.103 353.469 635.472 353.605 634.857 353.79L634.398 353.938L634.773 355.023C635.322 354.834 635.886 354.688 636.462 354.589L636.896 354.523L636.746 353.384ZM641.276 352.88C640.717 353.036 640.145 353.147 639.564 353.212L639.126 353.252L639.208 354.398C639.855 354.351 640.494 354.253 641.118 354.106L641.584 353.985L641.276 352.88ZM645.171 350.873C644.716 351.239 644.234 351.568 643.727 351.856L643.343 352.065L643.871 353.085C644.444 352.788 644.991 352.446 645.508 352.063L645.891 351.767L645.171 350.873ZM647.956 347.516C647.68 348.03 647.364 348.521 647.011 348.984L646.738 349.326L647.623 350.059C648.034 349.563 648.405 349.034 648.731 348.479L648.968 348.058L647.956 347.516ZM649.196 343.383C649.142 343.967 649.042 344.543 648.897 345.105L648.78 345.524L649.879 345.855C650.064 345.241 650.2 344.611 650.285 343.971L650.339 343.488L649.196 343.383ZM649.242 338.795V341.091H650.39V338.795H649.242ZM649.242 334.202V336.499H650.39V334.202H649.242ZM649.242 329.61V331.906H650.39V329.61H649.242ZM649.242 325.017V327.313H650.39V325.017H649.242ZM649.242 320.424V322.721H650.39V320.424H649.242ZM649.816 305.822L644.649 316.155H649.242V318.128H650.39V316.155H654.982L649.816 305.822Z" fill="#3159D6"/>
<path d="M568.872 385.37V387.666H570.02V385.37H568.872ZM568.872 380.777V383.074H570.02V380.777H568.872ZM568.872 376.185V378.481H570.02V376.185H568.872ZM568.872 371.592V373.889H570.02V371.592H568.872ZM568.872 367V369.296H570.02V367H568.872ZM569.906 362.332L568.768 362.49C568.814 362.821 568.845 363.155 568.86 363.492L568.872 363.999V364.703H570.02V363.999C570.02 363.438 569.982 362.881 569.906 362.332ZM568.303 357.794L567.319 358.386C567.619 358.885 567.879 359.408 568.095 359.949L568.25 360.358L569.332 359.975C569.063 359.215 568.718 358.484 568.303 357.794ZM565.045 354.241L564.37 355.17C564.842 355.513 565.285 355.893 565.697 356.306L565.999 356.622L566.844 355.845C566.299 355.252 565.697 354.715 565.045 354.241ZM560.548 352.221L560.303 353.343C560.875 353.468 561.433 353.638 561.974 353.852L562.376 354.021L562.841 352.971C562.106 352.645 561.338 352.394 560.548 352.221ZM556.033 351.773L555.831 352.903C556.391 353.004 556.959 353.064 557.535 353.084L557.969 353.092L558.212 353.095L558.237 351.947C558.148 351.945 558.059 351.944 557.969 351.944C557.312 351.944 556.666 351.886 556.033 351.773ZM551.984 350.16L551.354 351.119C551.892 351.473 552.459 351.783 553.047 352.046L553.492 352.235L553.918 351.169C553.241 350.898 552.593 350.56 551.984 350.16ZM548.887 347.085L547.932 347.723C548.29 348.259 548.69 348.765 549.128 349.237L549.464 349.584L550.273 348.77C549.756 348.256 549.292 347.692 548.887 347.085ZM547.222 342.938L546.091 343.137C546.204 343.775 546.366 344.399 546.578 345.007L546.746 345.458L547.814 345.037C547.547 344.361 547.349 343.659 547.222 342.938ZM545.909 338.547V340.843H547.057V338.547H545.909ZM545.909 333.954V336.25H547.057V333.954H545.909ZM545.909 329.362V331.658H547.057V329.362H545.909ZM545.909 324.769V327.065H547.057V324.769H545.909ZM545.909 320.176V322.473H547.057V320.176H545.909ZM546.483 305.822L541.316 316.155L545.909 316.154V317.88H547.057V316.154L551.65 316.155L546.483 305.822Z" fill="#3159D6"/>
<path d="M215.667 125.319C218.837 125.319 221.407 127.965 221.407 131.229C221.407 134.493 218.837 137.14 215.667 137.14C212.496 137.14 209.926 134.493 209.926 131.229C209.926 127.965 212.496 125.319 215.667 125.319ZM259.597 130.051L260.013 131.435C259.054 131.724 258.058 131.894 257.042 131.94L256.532 131.952L254.016 131.952L254.016 130.507L256.529 130.507C257.58 130.503 258.61 130.348 259.597 130.051ZM249.68 130.507V131.952H243.898V130.507H249.68ZM239.561 130.507V131.952H233.779V130.507H239.561ZM229.442 130.507V131.952H223.66V130.507H229.442ZM266.427 123.877L267.762 124.433C267.016 126.226 265.849 127.815 264.371 129.066L264.049 129.329L263.153 128.195C264.592 127.058 265.723 125.571 266.427 123.877ZM268.694 114.123L268.693 119.853L268.693 119.915L267.247 119.895C267.247 119.871 267.248 119.854 267.248 119.841L267.248 114.123H268.694ZM268.694 104.004V109.786H267.248V104.004H268.694ZM268.694 93.8851V99.6673H267.248V93.8851H268.694ZM268.694 83.7663V89.5485H267.248V83.7663H268.694ZM268.694 73.6476V79.4297H267.248V73.6476H268.694Z" fill="#2D2D2D"/>
<path d="M302.64 40.3221C302.146 27.9126 292.085 18 279.711 18C269.461 18 260.788 24.7969 257.825 34.1788C255.708 33.2624 253.378 32.7524 250.931 32.7524C242.476 32.7524 235.42 38.8076 233.752 46.8692C232.488 46.5391 231.171 46.3449 229.806 46.3449C221.081 46.3449 214.008 53.5082 214.008 62.3438C214.008 71.1212 220.989 78.2392 229.636 78.3336V78.3414H302.387C312.759 78.3414 321.166 69.8294 321.166 59.3266C321.166 48.9092 312.895 40.4593 302.64 40.3221Z" fill="#598CF1"/>
<g filter="url(#filter2_d_103_1195)">
<path d="M267.587 98.7184C281.627 98.7184 293.008 87.3157 293.008 73.2497C293.008 59.1836 281.627 47.7809 267.587 47.7809C253.548 47.7809 242.167 59.1836 242.167 73.2497C242.167 87.3157 253.548 98.7184 267.587 98.7184Z" fill="black"/>
</g>
<path d="M267.587 98.7184C281.627 98.7184 293.008 87.3157 293.008 73.2497C293.008 59.1836 281.627 47.7809 267.587 47.7809C253.548 47.7809 242.167 59.1836 242.167 73.2497C242.167 87.3157 253.548 98.7184 267.587 98.7184Z" fill="white"/>
<path d="M268.755 54.054C269.475 54.054 270.113 54.5213 270.33 55.2093L271.192 57.9343C271.354 58.4481 271.759 58.8437 272.27 59.0124C272.979 59.2468 273.665 59.5328 274.322 59.8661C274.804 60.1101 275.37 60.1177 275.849 59.8687L278.383 58.5513C279.022 58.2189 279.803 58.3397 280.312 58.85L281.964 60.5048C282.473 61.0148 282.594 61.7969 282.262 62.4374L280.943 64.9844C280.695 65.4632 280.702 66.0297 280.945 66.5115C281.274 67.1675 281.558 67.8508 281.79 68.5576C281.958 69.0703 282.353 69.476 282.867 69.6389L285.598 70.5055C286.284 70.7236 286.751 71.362 286.751 72.0836V74.4236C286.751 75.1452 286.284 75.7836 285.598 76.0017L282.855 76.8721C282.343 77.0345 281.948 77.4388 281.779 77.9498C281.548 78.6502 281.266 79.3277 280.938 79.978C280.694 80.4601 280.687 81.0275 280.935 81.507L282.262 84.0698C282.594 84.7101 282.473 85.4923 281.964 86.0024L280.312 87.6572C279.803 88.1672 279.022 88.2883 278.383 87.9559L275.818 86.6225C275.34 86.3742 274.775 86.3815 274.294 86.6239C273.648 86.9499 272.975 87.2303 272.28 87.4609C271.769 87.6299 271.365 88.0252 271.203 88.5388L270.33 91.2979C270.113 91.9858 269.475 92.4531 268.755 92.4531H266.42C265.7 92.4531 265.062 91.9858 264.845 91.2979L263.973 88.5388C263.81 88.0252 263.406 87.6299 262.895 87.4609C262.2 87.2303 261.527 86.9499 260.881 86.6239C260.4 86.3813 259.835 86.374 259.357 86.6225L256.792 87.9559C256.153 88.2883 255.372 88.1672 254.863 87.6572L253.211 86.0024C252.702 85.4923 252.582 84.7101 252.913 84.0698L254.24 81.507C254.489 81.0275 254.481 80.4601 254.238 79.978C253.91 79.3277 253.628 78.6502 253.396 77.9498C253.227 77.4388 252.832 77.0345 252.32 76.8721L249.577 76.0017C248.891 75.7836 248.424 75.1452 248.424 74.4236V72.0836C248.424 71.362 248.891 70.7236 249.577 70.5055L252.309 69.6389C252.822 69.476 253.217 69.0703 253.385 68.5579C253.617 67.8513 253.901 67.1682 254.231 66.5124C254.473 66.0306 254.48 65.4641 254.232 64.9851L252.913 62.4376C252.582 61.7969 252.702 61.0148 253.211 60.5048L254.863 58.85C255.372 58.3397 256.153 58.2189 256.792 58.5513L259.327 59.8692C259.806 60.1181 260.373 60.1106 260.854 59.8666C261.512 59.5331 262.197 59.2468 262.906 59.0124C263.417 58.8437 263.821 58.4481 263.983 57.9345L264.845 55.2093C265.062 54.5213 265.7 54.054 266.42 54.054H268.755ZM267.979 64.2416C262.795 64.2416 258.593 68.4518 258.593 73.6454C258.593 78.839 262.795 83.0493 267.979 83.0493C273.162 83.0493 277.365 78.839 277.365 73.6454C277.365 68.4518 273.162 64.2416 267.979 64.2416Z" fill="#598CF1"/>
<path fill-rule="evenodd" clip-rule="evenodd" d="M79.0356 240.633V161.411H97.406V223.411H159.406V240.633H79.0356Z" fill="#2B43C5"/>
<g filter="url(#filter3_d_103_1195)">
<path d="M154.814 247.618H214.518V215.47H154.814V247.618Z" fill="black"/>
</g>
<path d="M154.814 247.618H214.518V215.47H154.814V247.618Z" fill="url(#paint6_linear_103_1195)"/>
<path fill-rule="evenodd" clip-rule="evenodd" d="M164 248.758H173.185V214.313H164V248.758Z" fill="white"/>
<path fill-rule="evenodd" clip-rule="evenodd" d="M181.223 248.758H190.408V214.313H181.223V248.758Z" fill="white"/>
<path fill-rule="evenodd" clip-rule="evenodd" d="M198.445 248.758H207.63V214.313H198.445V248.758Z" fill="white"/>
<g filter="url(#filter4_d_103_1195)">
<path d="M44.989 85.7197C42.2337 85.7197 40 87.9361 40 90.6709C40 93.4053 42.2337 95.622 44.989 95.622H46.9584L79.8848 133.018V154.608L96.5594 147.48V133.018L129.485 95.622H131.455C134.21 95.622 136.444 93.4053 136.444 90.6709C136.444 87.9361 134.21 85.7197 131.455 85.7197H44.989Z" fill="black"/>
</g>
<path d="M44.989 85.7197C42.2337 85.7197 40 87.9361 40 90.6709C40 93.4053 42.2337 95.622 44.989 95.622H46.9584L79.8848 133.018V154.608L96.5594 147.48V133.018L129.485 95.622H131.455C134.21 95.622 136.444 93.4053 136.444 90.6709C136.444 87.9361 134.21 85.7197 131.455 85.7197H44.989Z" fill="url(#paint7_linear_103_1195)"/>
<path opacity="0.5" fill-rule="evenodd" clip-rule="evenodd" d="M46.8906 94.9362L49.6907 97.7161H118.59L92.1632 123.952L89.1861 126.907V150.047L96.575 146.887V132.409L129.557 94.9362H46.8906Z" fill="#ADBCFC" fill-opacity="0.5"/>
<path fill-rule="evenodd" clip-rule="evenodd" d="M126.11 62.786H134.147V54.749H126.11V62.786Z" fill="#662D91"/>
<path fill-rule="evenodd" clip-rule="evenodd" d="M49.1836 52.4434H57.2206V44.4064H49.1836V52.4434Z" fill="#662D91"/>
<path opacity="0.493652" fill-rule="evenodd" clip-rule="evenodd" d="M81.332 158.07H84.7765V154.626H81.332V158.07Z" fill="#CCA4FD"/>
<path opacity="0.493652" fill-rule="evenodd" clip-rule="evenodd" d="M84.7773 158.07H88.2218V154.626H84.7773V158.07Z" fill="#CCA4FD"/>
<path opacity="0.493652" fill-rule="evenodd" clip-rule="evenodd" d="M89.3711 158.07H92.8155V154.626H89.3711V158.07Z" fill="#CCA4FD"/>
<path opacity="0.493652" fill-rule="evenodd" clip-rule="evenodd" d="M92.8154 158.07H96.2599V154.626H92.8154V158.07Z" fill="#CCA4FD"/>
<path opacity="0.493652" fill-rule="evenodd" clip-rule="evenodd" d="M92.8154 154.632H96.2599V151.187H92.8154V154.632Z" fill="#662D90"/>
<path opacity="0.493652" fill-rule="evenodd" clip-rule="evenodd" d="M92.8154 150.045H96.2599V147.749L92.8154 148.836V150.045Z" fill="#BBBBF9"/>
<path opacity="0.5" fill-rule="evenodd" clip-rule="evenodd" d="M89.3711 154.632H92.8155V151.187H89.3711V154.632Z" fill="#662D90"/>
<path opacity="0.493652" fill-rule="evenodd" clip-rule="evenodd" d="M84.7773 154.639H88.2218V152.343L84.7773 153.396V153.4V154.639Z" fill="#662D90"/>
<g filter="url(#filter5_d_103_1195)">
<path d="M188.114 198.357H183.062V261.32H188.114V198.357Z" fill="black"/>
</g>
<path d="M188.114 198.357H183.062V261.32H188.114V198.357Z" fill="#2539C1"/>
<g filter="url(#filter6_d_103_1195)">
<path d="M180.766 182.182H177.781C176.512 182.182 175.484 183.211 175.484 184.479V275.182C175.484 276.45 176.512 277.478 177.781 277.478H180.766C182.034 277.478 183.062 276.45 183.062 275.182V184.479C183.062 183.211 182.034 182.182 180.766 182.182Z" fill="black"/>
</g>
<path d="M180.766 182.182H177.781C176.512 182.182 175.484 183.211 175.484 184.479V275.182C175.484 276.45 176.512 277.478 177.781 277.478H180.766C182.034 277.478 183.062 276.45 183.062 275.182V184.479C183.062 183.211 182.034 182.182 180.766 182.182Z" fill="#317BFC"/>
<mask id="mask1_103_1195" style="mask-type:alpha" maskUnits="userSpaceOnUse" x="186" y="119" width="362" height="220">
<path d="M538.918 119.07H195.085C190.598 119.07 186.961 122.707 186.961 127.194V330.307C186.961 334.794 190.598 338.432 195.085 338.432H538.918C543.405 338.432 547.042 334.794 547.042 330.307V127.194C547.042 122.707 543.405 119.07 538.918 119.07Z" fill="white"/>
</mask>
<g mask="url(#mask1_103_1195)">
<g filter="url(#filter7_d_103_1195)">
<path d="M538.918 119.07H195.085C190.598 119.07 186.961 122.707 186.961 127.194V330.307C186.961 334.794 190.598 338.432 195.085 338.432H538.918C543.405 338.432 547.042 334.794 547.042 330.307V127.194C547.042 122.707 543.405 119.07 538.918 119.07Z" fill="black"/>
</g>
<path d="M538.918 119.07H195.085C190.598 119.07 186.961 122.707 186.961 127.194V330.307C186.961 334.794 190.598 338.432 195.085 338.432H538.918C543.405 338.432 547.042 334.794 547.042 330.307V127.194C547.042 122.707 543.405 119.07 538.918 119.07Z" fill="url(#paint8_linear_103_1195)"/>
<path opacity="0.2" d="M570.845 108.912H178.837V147.504H570.845V108.912Z" fill="white"/>
</g>
<path opacity="0.6" d="M503.818 128.187H248.911C247.789 128.187 246.88 129.096 246.88 130.218V139.358C246.88 140.48 247.789 141.389 248.911 141.389H503.818C504.94 141.389 505.849 140.48 505.849 139.358V130.218C505.849 129.096 504.94 128.187 503.818 128.187Z" fill="white"/>
<path d="M209.305 131.23L206.258 134.277L209.305 137.324" stroke="white" stroke-width="0.78125" stroke-linecap="round" stroke-linejoin="round"/>
<path d="M224.122 131.23L227.169 134.277L224.122 137.324" stroke="white" stroke-width="0.78125" stroke-linecap="round" stroke-linejoin="round"/>
<path d="M532.457 131.427H525.145V139.551H532.457V131.427Z" stroke="white" stroke-width="0.78125" stroke-linecap="round" stroke-linejoin="round"/>
<path d="M527.584 130.114V128.187H534.897V136.311H533.255" stroke="white" stroke-width="0.78125" stroke-linecap="round" stroke-linejoin="round"/>
<g filter="url(#filter8_d_103_1195)">
<path d="M521.023 162.588H211.463C207.525 162.588 204.333 165.781 204.333 169.718V374.937C204.333 378.874 207.525 382.067 211.463 382.067H521.023C524.961 382.067 528.153 378.874 528.153 374.937V169.718C528.153 165.781 524.961 162.588 521.023 162.588Z" fill="black"/>
</g>
<path d="M521.023 162.588H211.463C207.525 162.588 204.333 165.781 204.333 169.718V374.937C204.333 378.874 207.525 382.067 211.463 382.067H521.023C524.961 382.067 528.153 378.874 528.153 374.937V169.718C528.153 165.781 524.961 162.588 521.023 162.588Z" fill="#F0F5FF"/>
<path d="M220.759 182.015C222.746 182.015 224.357 180.404 224.357 178.417C224.357 176.43 222.746 174.819 220.759 174.819C218.772 174.819 217.161 176.43 217.161 178.417C217.161 180.404 218.772 182.015 220.759 182.015Z" fill="#FF947F"/>
<path d="M233.713 182.015C235.7 182.015 237.311 180.404 237.311 178.417C237.311 176.43 235.7 174.819 233.713 174.819C231.726 174.819 230.115 176.43 230.115 178.417C230.115 180.404 231.726 182.015 233.713 182.015Z" fill="#FFE373"/>
<path d="M246.666 182.015C248.653 182.015 250.264 180.404 250.264 178.417C250.264 176.43 248.653 174.819 246.666 174.819C244.679 174.819 243.068 176.43 243.068 178.417C243.068 180.404 244.679 182.015 246.666 182.015Z" fill="#00B8D9"/>
<path fill-rule="evenodd" clip-rule="evenodd" d="M262.384 244.174H158.149V400.76H271.816V254.077L262.384 244.174Z" fill="#FEFEFE"/>
<path d="M262.386 253.517L262.614 244.627L271.34 253.824H262.686C262.518 253.824 262.382 253.685 262.386 253.517Z" fill="#EEEEEE" stroke="#EEEEEE"/>
<rect x="167.107" y="255.509" width="79.2363" height="8.01796" fill="#C4C4C4"/>
<rect x="166.776" y="293.219" width="67.1251" height="8.39064" fill="#C4C4C4"/>
<rect x="167.107" y="267.789" width="66.9736" height="8.01796" fill="#C4C4C4"/>
<rect x="166.776" y="305.412" width="88.4831" height="8.39064" fill="#C4C4C4"/>
<rect x="166.776" y="280.236" width="54.9206" height="8.39064" fill="#C4C4C4"/>
<rect x="166.776" y="317.604" width="69.4135" height="8.39064" fill="#C4C4C4"/>
<rect x="167.107" y="365.415" width="25.9405" height="8.01796" fill="#D34426"/>
<rect x="232.192" y="365.415" width="25.9405" height="8.01796" fill="#C8E1F5"/>
<rect x="199.65" y="365.415" width="25.9405" height="8.01796" fill="#7FB2DF"/>
<rect x="167.107" y="376.71" width="25.9405" height="8.01796" fill="#E46C49"/>
<rect x="232.192" y="376.71" width="25.9405" height="8.01796" fill="#C8E1F5"/>
<rect x="199.65" y="376.71" width="25.9405" height="8.01796" fill="#7FB2DF"/>
<rect x="167.107" y="388.041" width="25.9405" height="8.01796" fill="#F5A38B"/>
<rect x="232.192" y="388.041" width="25.9405" height="8.01796" fill="#C8E1F5"/>
<path d="M165.398 381.255L150.124 371.439L143.877 381.159L159.151 390.975L165.398 381.255Z" fill="#0C3989"/>
<g filter="url(#filter9_dd_103_1195)">
<path d="M207.802 296.819C230.402 311.344 236.957 341.426 222.443 364.01C207.929 386.593 177.842 393.126 155.242 378.601C132.641 364.076 126.086 333.994 140.6 311.411C155.114 288.827 185.201 282.294 207.802 296.819ZM204.17 303.225C185.179 291.02 159.895 296.509 147.699 315.487C135.502 334.465 141.011 359.744 160.002 371.95C178.994 384.155 204.277 378.666 216.474 359.688C228.671 340.71 223.162 315.431 204.17 303.225Z" fill="black"/>
</g>
<path d="M207.802 296.819C230.402 311.344 236.957 341.426 222.443 364.01C207.929 386.593 177.842 393.126 155.242 378.601C132.641 364.076 126.086 333.994 140.6 311.411C155.114 288.827 185.201 282.294 207.802 296.819ZM204.17 303.225C185.179 291.02 159.895 296.509 147.699 315.487C135.502 334.465 141.011 359.744 160.002 371.95C178.994 384.155 204.277 378.666 216.474 359.688C228.671 340.71 223.162 315.431 204.17 303.225Z" fill="#1756C6"/>
<path d="M105.864 457.268C101.218 454.282 99.8718 448.095 102.858 443.449L143.213 380.657L161.201 392.218L120.846 455.009C117.86 459.655 111.673 461.001 107.027 458.015L105.864 457.268Z" fill="#1756C6"/>
<g filter="url(#filter10_d_103_1195)">
<path d="M416.743 202.845H306.219C299.328 202.845 293.741 208.431 293.741 215.323V325.847C293.741 332.739 299.328 338.326 306.219 338.326H416.743C423.635 338.326 429.222 332.739 429.222 325.847V215.323C429.222 208.431 423.635 202.845 416.743 202.845Z" fill="black"/>
</g>
<path d="M416.743 202.845H306.219C299.328 202.845 293.741 208.431 293.741 215.323V325.847C293.741 332.739 299.328 338.326 306.219 338.326H416.743C423.635 338.326 429.222 332.739 429.222 325.847V215.323C429.222 208.431 423.635 202.845 416.743 202.845Z" fill="white"/>
<path fill-rule="evenodd" clip-rule="evenodd" d="M359.297 246.771L357.343 246.756L357.485 229.218L359.439 229.234L359.297 246.771Z" fill="#E9DEFF"/>
<path fill-rule="evenodd" clip-rule="evenodd" d="M377.984 252.26H376.03V239.581L381.024 234.633L382.406 236.002L377.984 240.383V252.26Z" fill="#E9DEFF"/>
<path fill-rule="evenodd" clip-rule="evenodd" d="M349.598 247.04H347.644V235.165L340.356 227.943L341.738 226.574L349.598 234.363V247.04Z" fill="#E9DEFF"/>
<path fill-rule="evenodd" clip-rule="evenodd" d="M368.357 245.968H366.403V233.291L374.264 225.502L375.645 226.871L368.357 234.093V245.968Z" fill="#E9DEFF"/>
<path fill-rule="evenodd" clip-rule="evenodd" d="M366.514 311.141L364.561 311.126L364.702 293.588L366.656 293.604L366.514 311.141Z" fill="#E9DEFF"/>
<path fill-rule="evenodd" clip-rule="evenodd" d="M342.977 305.767L341.595 304.398L346.017 300.016V288.141H347.97V300.818L342.977 305.767Z" fill="#E9DEFF"/>
<path fill-rule="evenodd" clip-rule="evenodd" d="M382.262 313.785L374.401 305.995V293.318H376.355V305.193L383.644 312.415L382.262 313.785Z" fill="#E9DEFF"/>
<path fill-rule="evenodd" clip-rule="evenodd" d="M349.736 314.873L348.354 313.503L355.643 306.281V294.406H357.597V307.083L349.736 314.873Z" fill="#E9DEFF"/>
<path fill-rule="evenodd" clip-rule="evenodd" d="M403.317 267.635L385.62 267.495L385.635 265.558L403.332 265.698L403.317 267.635Z" fill="#E9DEFF"/>
<path fill-rule="evenodd" clip-rule="evenodd" d="M396.509 290.413L392.087 286.032H380.104V284.095H392.897L397.891 289.044L396.509 290.413Z" fill="#E9DEFF"/>
<path fill-rule="evenodd" clip-rule="evenodd" d="M398.135 257.899H385.342V255.962H397.326L404.614 248.74L405.996 250.109L398.135 257.899Z" fill="#E9DEFF"/>
<path fill-rule="evenodd" clip-rule="evenodd" d="M405.713 283.726L398.425 276.504H386.441V274.567H399.234L407.095 282.357L405.713 283.726Z" fill="#E9DEFF"/>
<path fill-rule="evenodd" clip-rule="evenodd" d="M338.365 274.805L320.667 274.665L320.683 272.728L338.38 272.868L338.365 274.805Z" fill="#E9DEFF"/>
<path fill-rule="evenodd" clip-rule="evenodd" d="M343.894 256.281H331.101L326.107 251.332L327.489 249.963L331.91 254.344H343.894V256.281Z" fill="#E9DEFF"/>
<path fill-rule="evenodd" clip-rule="evenodd" d="M319.382 291.631L318 290.261L325.861 282.471H338.655V284.408H326.671L319.382 291.631Z" fill="#E9DEFF"/>
<path fill-rule="evenodd" clip-rule="evenodd" d="M337.559 265.832H324.766L316.905 258.042L318.287 256.673L325.575 263.895H337.559V265.832Z" fill="#E9DEFF"/>
<g filter="url(#filter11_d_103_1195)">
<path d="M343.731 225.366C343.731 227.226 342.21 228.734 340.333 228.734C338.457 228.734 336.936 227.226 336.936 225.366C336.936 223.507 338.457 221.999 340.333 221.999C342.21 221.999 343.731 223.507 343.731 225.366Z" fill="black"/>
</g>
<path d="M343.731 225.366C343.731 227.226 342.21 228.734 340.333 228.734C338.457 228.734 336.936 227.226 336.936 225.366C336.936 223.507 338.457 221.999 340.333 221.999C342.21 221.999 343.731 223.507 343.731 225.366Z" fill="#BC8EFF"/>
<g filter="url(#filter12_d_103_1195)">
<path d="M361.788 228.309C361.788 230.168 360.266 231.676 358.39 231.676C356.513 231.676 354.992 230.168 354.992 228.309C354.992 226.449 356.513 224.942 358.39 224.942C360.266 224.942 361.788 226.449 361.788 228.309Z" fill="black"/>
</g>
<path d="M361.788 228.309C361.788 230.168 360.266 231.676 358.39 231.676C356.513 231.676 354.992 230.168 354.992 228.309C354.992 226.449 356.513 224.942 358.39 224.942C360.266 224.942 361.788 226.449 361.788 228.309Z" fill="#BC8EFF"/>
<g filter="url(#filter13_d_103_1195)">
<path d="M378.669 225.366C378.669 227.226 377.148 228.734 375.272 228.734C373.395 228.734 371.874 227.226 371.874 225.366C371.874 223.507 373.395 221.999 375.272 221.999C377.148 221.999 378.669 223.507 378.669 225.366Z" fill="black"/>
</g>
<path d="M378.669 225.366C378.669 227.226 377.148 228.734 375.272 228.734C373.395 228.734 371.874 227.226 371.874 225.366C371.874 223.507 373.395 221.999 375.272 221.999C377.148 221.999 378.669 223.507 378.669 225.366Z" fill="#BC8EFF"/>
<g filter="url(#filter14_d_103_1195)">
<path d="M385.893 234.19C385.893 236.05 384.371 237.557 382.495 237.557C380.618 237.557 379.097 236.05 379.097 234.19C379.097 232.33 380.618 230.823 382.495 230.823C384.371 230.823 385.893 232.33 385.893 234.19Z" fill="black"/>
</g>
<path d="M385.893 234.19C385.893 236.05 384.371 237.557 382.495 237.557C380.618 237.557 379.097 236.05 379.097 234.19C379.097 232.33 380.618 230.823 382.495 230.823C384.371 230.823 385.893 232.33 385.893 234.19Z" fill="#BC8EFF"/>
<g filter="url(#filter15_d_103_1195)">
<path d="M380.263 315.052C380.263 313.194 381.784 311.686 383.661 311.686C385.537 311.686 387.059 313.194 387.059 315.052C387.059 316.912 385.537 318.42 383.661 318.42C381.784 318.42 380.263 316.912 380.263 315.052Z" fill="black"/>
</g>
<path d="M380.263 315.052C380.263 313.194 381.784 311.686 383.661 311.686C385.537 311.686 387.059 313.194 387.059 315.052C387.059 316.912 385.537 318.42 383.661 318.42C381.784 318.42 380.263 316.912 380.263 315.052Z" fill="#BC8EFF"/>
<g filter="url(#filter16_d_103_1195)">
<path d="M362.212 312.106C362.212 310.246 363.733 308.739 365.609 308.739C367.486 308.739 369.008 310.246 369.008 312.106C369.008 313.965 367.486 315.472 365.609 315.472C363.733 315.472 362.212 313.965 362.212 312.106Z" fill="black"/>
</g>
<path d="M362.212 312.106C362.212 310.246 363.733 308.739 365.609 308.739C367.486 308.739 369.008 310.246 369.008 312.106C369.008 313.965 367.486 315.472 365.609 315.472C363.733 315.472 362.212 313.965 362.212 312.106Z" fill="#BC8EFF"/>
<g filter="url(#filter17_d_103_1195)">
<path d="M345.328 315.052C345.328 313.194 346.85 311.686 348.726 311.686C350.603 311.686 352.124 313.194 352.124 315.052C352.124 316.912 350.603 318.42 348.726 318.42C346.85 318.42 345.328 316.912 345.328 315.052Z" fill="black"/>
</g>
<path d="M345.328 315.052C345.328 313.194 346.85 311.686 348.726 311.686C350.603 311.686 352.124 313.194 352.124 315.052C352.124 316.912 350.603 318.42 348.726 318.42C346.85 318.42 345.328 316.912 345.328 315.052Z" fill="#BC8EFF"/>
<g filter="url(#filter18_d_103_1195)">
<path d="M338.109 306.217C338.109 304.357 339.631 302.85 341.507 302.85C343.384 302.85 344.905 304.357 344.905 306.217C344.905 308.076 343.384 309.583 341.507 309.583C339.631 309.583 338.109 308.076 338.109 306.217Z" fill="black"/>
</g>
<path d="M338.109 306.217C338.109 304.357 339.631 302.85 341.507 302.85C343.384 302.85 344.905 304.357 344.905 306.217C344.905 308.076 343.384 309.583 341.507 309.583C339.631 309.583 338.109 308.076 338.109 306.217Z" fill="#BC8EFF"/>
<g filter="url(#filter19_d_103_1195)">
<path d="M407.251 252.093C405.375 252.093 403.854 250.586 403.854 248.726C403.854 246.866 405.375 245.358 407.251 245.358C409.128 245.358 410.649 246.866 410.649 248.726C410.649 250.586 409.128 252.093 407.251 252.093Z" fill="black"/>
</g>
<path d="M407.251 252.093C405.375 252.093 403.854 250.586 403.854 248.726C403.854 246.866 405.375 245.358 407.251 245.358C409.128 245.358 410.649 246.866 410.649 248.726C410.649 250.586 409.128 252.093 407.251 252.093Z" fill="#BC8EFF"/>
<g filter="url(#filter20_d_103_1195)">
<path d="M404.277 269.986C402.401 269.986 400.88 268.478 400.88 266.619C400.88 264.759 402.401 263.252 404.277 263.252C406.154 263.252 407.675 264.759 407.675 266.619C407.675 268.478 406.154 269.986 404.277 269.986Z" fill="black"/>
</g>
<path d="M404.277 269.986C402.401 269.986 400.88 268.478 400.88 266.619C400.88 264.759 402.401 263.252 404.277 263.252C406.154 263.252 407.675 264.759 407.675 266.619C407.675 268.478 406.154 269.986 404.277 269.986Z" fill="#BC8EFF"/>
<g filter="url(#filter21_d_103_1195)">
<path d="M407.251 286.718C405.375 286.718 403.854 285.21 403.854 283.35C403.854 281.49 405.375 279.983 407.251 279.983C409.128 279.983 410.649 281.49 410.649 283.35C410.649 285.21 409.128 286.718 407.251 286.718Z" fill="black"/>
</g>
<path d="M407.251 286.718C405.375 286.718 403.854 285.21 403.854 283.35C403.854 281.49 405.375 279.983 407.251 279.983C409.128 279.983 410.649 281.49 410.649 283.35C410.649 285.21 409.128 286.718 407.251 286.718Z" fill="#BC8EFF"/>
<g filter="url(#filter22_d_103_1195)">
<path d="M398.334 293.886C396.458 293.886 394.937 292.379 394.937 290.519C394.937 288.66 396.458 287.152 398.334 287.152C400.211 287.152 401.732 288.66 401.732 290.519C401.732 292.379 400.211 293.886 398.334 293.886Z" fill="black"/>
</g>
<path d="M398.334 293.886C396.458 293.886 394.937 292.379 394.937 290.519C394.937 288.66 396.458 287.152 398.334 287.152C400.211 287.152 401.732 288.66 401.732 290.519C401.732 292.379 400.211 293.886 398.334 293.886Z" fill="#BC8EFF"/>
<g filter="url(#filter23_d_103_1195)">
<path d="M316.746 288.314C318.623 288.314 320.145 289.822 320.145 291.681C320.145 293.541 318.623 295.049 316.746 295.049C314.87 295.049 313.348 293.541 313.348 291.681C313.348 289.822 314.87 288.314 316.746 288.314Z" fill="black"/>
</g>
<path d="M316.746 288.314C318.623 288.314 320.145 289.822 320.145 291.681C320.145 293.541 318.623 295.049 316.746 295.049C314.87 295.049 313.348 293.541 313.348 291.681C313.348 289.822 314.87 288.314 316.746 288.314Z" fill="#BC8EFF"/>
<g filter="url(#filter24_d_103_1195)">
<path d="M319.718 270.425C321.594 270.425 323.116 271.933 323.116 273.792C323.116 275.652 321.594 277.159 319.718 277.159C317.841 277.159 316.319 275.652 316.319 273.792C316.319 271.933 317.841 270.425 319.718 270.425Z" fill="black"/>
</g>
<path d="M319.718 270.425C321.594 270.425 323.116 271.933 323.116 273.792C323.116 275.652 321.594 277.159 319.718 277.159C317.841 277.159 316.319 275.652 316.319 273.792C316.319 271.933 317.841 270.425 319.718 270.425Z" fill="#BC8EFF"/>
<g filter="url(#filter25_d_103_1195)">
<path d="M316.746 253.694C318.623 253.694 320.145 255.202 320.145 257.061C320.145 258.921 318.623 260.428 316.746 260.428C314.87 260.428 313.348 258.921 313.348 257.061C313.348 255.202 314.87 253.694 316.746 253.694Z" fill="black"/>
</g>
<path d="M316.746 253.694C318.623 253.694 320.145 255.202 320.145 257.061C320.145 258.921 318.623 260.428 316.746 260.428C314.87 260.428 313.348 258.921 313.348 257.061C313.348 255.202 314.87 253.694 316.746 253.694Z" fill="#BC8EFF"/>
<g filter="url(#filter26_d_103_1195)">
<path d="M325.665 246.533C327.541 246.533 329.063 248.04 329.063 249.9C329.063 251.759 327.541 253.267 325.665 253.267C323.788 253.267 322.267 251.759 322.267 249.9C322.267 248.04 323.788 246.533 325.665 246.533Z" fill="black"/>
</g>
<path d="M325.665 246.533C327.541 246.533 329.063 248.04 329.063 249.9C329.063 251.759 327.541 253.267 325.665 253.267C323.788 253.267 322.267 251.759 322.267 249.9C322.267 248.04 323.788 246.533 325.665 246.533Z" fill="#BC8EFF"/>
<path fill-rule="evenodd" clip-rule="evenodd" d="M341.507 295.688C338.645 295.688 336.304 293.367 336.304 290.532V249.915C336.304 247.078 338.645 244.759 341.507 244.759H382.495C385.357 244.759 387.698 247.078 387.698 249.915V290.532C387.698 293.367 385.357 295.688 382.495 295.688H341.507Z" fill="#DDD1FF"/>
<path fill-rule="evenodd" clip-rule="evenodd" d="M345.222 281.712V258.709C345.222 255.88 347.537 253.585 350.393 253.585H373.606C376.461 253.585 378.776 255.88 378.776 258.709V281.712C378.776 284.542 376.461 286.836 373.606 286.836H350.393C347.537 286.836 345.222 284.542 345.222 281.712Z" fill="#4F13BE"/>
<path fill-rule="evenodd" clip-rule="evenodd" d="M350.393 254.493C348.049 254.493 346.141 256.383 346.141 258.707V281.709C346.141 284.032 348.049 285.922 350.393 285.922H373.606C375.95 285.922 377.857 284.032 377.857 281.709V258.707C377.857 256.383 375.95 254.493 373.606 254.493H350.393ZM373.606 287.744H350.393C347.035 287.744 344.303 285.036 344.303 281.709V258.707C344.303 255.378 347.035 252.671 350.393 252.671H373.606C376.964 252.671 379.696 255.378 379.696 258.707V281.709C379.696 285.036 376.964 287.744 373.606 287.744Z" fill="#14CEC7"/>
<g opacity="0.567685">
<g opacity="0.567685">
<g opacity="0.567685">
<mask id="mask2_103_1195" style="mask-type:alpha" maskUnits="userSpaceOnUse" x="353" y="262" width="13" height="17">
<g opacity="0.567685">
<path opacity="0.567685" d="M353.67 262.986H365.217V278.378H353.67V262.986Z" fill="white"/>
</g>
</mask>
<g mask="url(#mask2_103_1195)">
<path opacity="0.737165" fill-rule="evenodd" clip-rule="evenodd" d="M359.671 262.993H359.439C359.206 262.967 358.964 263.05 358.814 263.256L353.871 269.931C353.606 270.289 353.602 270.771 353.863 271.133L358.768 277.946C358.946 278.193 359.226 278.345 359.531 278.38L365.217 270.59L359.671 262.993Z" fill="#E9DEFF"/>
</g>
</g>
<path opacity="0.737165" fill-rule="evenodd" clip-rule="evenodd" d="M366.481 271.45L361.361 278.464H370.4C370.793 278.464 371.064 278.101 371.07 277.737L366.481 271.45Z" fill="#E9DEFF"/>
<path opacity="0.737165" fill-rule="evenodd" clip-rule="evenodd" d="M366.497 269.823L370.797 263.931C370.843 263.868 370.868 263.801 370.886 263.733C370.974 263.388 370.712 263.017 370.305 263.017H361.529L366.468 269.784L366.497 269.823Z" fill="#E9DEFF"/>
</g>
</g>
<defs>
<filter id="filter0_d_103_1195" x="455.037" y="23.7011" width="231.962" height="229.804" filterUnits="userSpaceOnUse" color-interpolation-filters="sRGB">
<feFlood flood-opacity="0" result="BackgroundImageFix"/>
<feColorMatrix in="SourceAlpha" type="matrix" values="0 0 0 0 0 0 0 0 0 0 0 0 0 0 0 0 0 0 127 0" result="hardAlpha"/>
<feOffset dy="4"/>
<feGaussianBlur stdDeviation="13.5"/>
<feColorMatrix type="matrix" values="0 0 0 0 0.0202209 0 0 0 0 0.0174718 0 0 0 0 0.120584 0 0 0 0.141526 0"/>
<feBlend mode="normal" in2="BackgroundImageFix" result="effect1_dropShadow_103_1195"/>
<feBlend mode="normal" in="SourceGraphic" in2="effect1_dropShadow_103_1195" result="shape"/>
</filter>
<filter id="filter1_d_103_1195" x="404.962" y="0" width="144.148" height="141.852" filterUnits="userSpaceOnUse" color-interpolation-filters="sRGB">
<feFlood flood-opacity="0" result="BackgroundImageFix"/>
<feColorMatrix in="SourceAlpha" type="matrix" values="0 0 0 0 0 0 0 0 0 0 0 0 0 0 0 0 0 0 127 0" result="hardAlpha"/>
<feOffset dx="-5" dy="7"/>
<feGaussianBlur stdDeviation="12.5"/>
<feColorMatrix type="matrix" values="0 0 0 0 0.252349 0 0 0 0 0.252349 0 0 0 0 0.252349 0 0 0 0.206212 0"/>
<feBlend mode="normal" in2="BackgroundImageFix" result="effect1_dropShadow_103_1195"/>
<feBlend mode="normal" in="SourceGraphic" in2="effect1_dropShadow_103_1195" result="shape"/>
</filter>
<filter id="filter2_d_103_1195" x="220.167" y="35.7809" width="94.8413" height="94.9376" filterUnits="userSpaceOnUse" color-interpolation-filters="sRGB">
<feFlood flood-opacity="0" result="BackgroundImageFix"/>
<feColorMatrix in="SourceAlpha" type="matrix" values="0 0 0 0 0 0 0 0 0 0 0 0 0 0 0 0 0 0 127 0" result="hardAlpha"/>
<feOffset dy="10"/>
<feGaussianBlur stdDeviation="11"/>
<feColorMatrix type="matrix" values="0 0 0 0 0.0785859 0 0 0 0 0.129961 0 0 0 0 0.359375 0 0 0 0.137292 0"/>
<feBlend mode="normal" in2="BackgroundImageFix" result="effect1_dropShadow_103_1195"/>
<feBlend mode="normal" in="SourceGraphic" in2="effect1_dropShadow_103_1195" result="shape"/>
</filter>
<filter id="filter3_d_103_1195" x="114.814" y="190.47" width="159.704" height="132.148" filterUnits="userSpaceOnUse" color-interpolation-filters="sRGB">
<feFlood flood-opacity="0" result="BackgroundImageFix"/>
<feColorMatrix in="SourceAlpha" type="matrix" values="0 0 0 0 0 0 0 0 0 0 0 0 0 0 0 0 0 0 127 0" result="hardAlpha"/>
<feOffset dx="10" dy="25"/>
<feGaussianBlur stdDeviation="25"/>
<feColorMatrix type="matrix" values="0 0 0 0 0.451334 0 0 0 0 0.52807 0 0 0 0 1 0 0 0 0.147072 0"/>
<feBlend mode="normal" in2="BackgroundImageFix" result="effect1_dropShadow_103_1195"/>
<feBlend mode="normal" in="SourceGraphic" in2="effect1_dropShadow_103_1195" result="shape"/>
</filter>
<filter id="filter4_d_103_1195" x="0" y="60.7197" width="196.444" height="168.889" filterUnits="userSpaceOnUse" color-interpolation-filters="sRGB">
<feFlood flood-opacity="0" result="BackgroundImageFix"/>
<feColorMatrix in="SourceAlpha" type="matrix" values="0 0 0 0 0 0 0 0 0 0 0 0 0 0 0 0 0 0 127 0" result="hardAlpha"/>
<feOffset dx="10" dy="25"/>
<feGaussianBlur stdDeviation="25"/>
<feColorMatrix type="matrix" values="0 0 0 0 0.451334 0 0 0 0 0.52807 0 0 0 0 1 0 0 0 0.147072 0"/>
<feBlend mode="normal" in2="BackgroundImageFix" result="effect1_dropShadow_103_1195"/>
<feBlend mode="normal" in="SourceGraphic" in2="effect1_dropShadow_103_1195" result="shape"/>
</filter>
<filter id="filter5_d_103_1195" x="164.062" y="187.357" width="43.0518" height="100.963" filterUnits="userSpaceOnUse" color-interpolation-filters="sRGB">
<feFlood flood-opacity="0" result="BackgroundImageFix"/>
<feColorMatrix in="SourceAlpha" type="matrix" values="0 0 0 0 0 0 0 0 0 0 0 0 0 0 0 0 0 0 127 0" result="hardAlpha"/>
<feOffset dy="8"/>
<feGaussianBlur stdDeviation="9.5"/>
<feColorMatrix type="matrix" values="0 0 0 0 0.12549 0 0 0 0 0.167389 0 0 0 0 0.631373 0 0 0 0.157561 0"/>
<feBlend mode="normal" in2="BackgroundImageFix" result="effect1_dropShadow_103_1195"/>
<feBlend mode="normal" in="SourceGraphic" in2="effect1_dropShadow_103_1195" result="shape"/>
</filter>
<filter id="filter6_d_103_1195" x="156.484" y="171.182" width="45.5776" height="133.296" filterUnits="userSpaceOnUse" color-interpolation-filters="sRGB">
<feFlood flood-opacity="0" result="BackgroundImageFix"/>
<feColorMatrix in="SourceAlpha" type="matrix" values="0 0 0 0 0 0 0 0 0 0 0 0 0 0 0 0 0 0 127 0" result="hardAlpha"/>
<feOffset dy="8"/>
<feGaussianBlur stdDeviation="9.5"/>
<feColorMatrix type="matrix" values="0 0 0 0 0.12549 0 0 0 0 0.167389 0 0 0 0 0.631373 0 0 0 0.157561 0"/>
<feBlend mode="normal" in2="BackgroundImageFix" result="effect1_dropShadow_103_1195"/>
<feBlend mode="normal" in="SourceGraphic" in2="effect1_dropShadow_103_1195" result="shape"/>
</filter>
<filter id="filter7_d_103_1195" x="146.961" y="94.0695" width="460.082" height="319.362" filterUnits="userSpaceOnUse" color-interpolation-filters="sRGB">
<feFlood flood-opacity="0" result="BackgroundImageFix"/>
<feColorMatrix in="SourceAlpha" type="matrix" values="0 0 0 0 0 0 0 0 0 0 0 0 0 0 0 0 0 0 127 0" result="hardAlpha"/>
<feOffset dx="10" dy="25"/>
<feGaussianBlur stdDeviation="25"/>
<feColorMatrix type="matrix" values="0 0 0 0 0.451334 0 0 0 0 0.52807 0 0 0 0 1 0 0 0 0.147072 0"/>
<feBlend mode="normal" in2="BackgroundImageFix" result="effect1_dropShadow_103_1195"/>
<feBlend mode="normal" in="SourceGraphic" in2="effect1_dropShadow_103_1195" result="shape"/>
</filter>
<filter id="filter8_d_103_1195" x="152.333" y="137.588" width="427.82" height="323.478" filterUnits="userSpaceOnUse" color-interpolation-filters="sRGB">
<feFlood flood-opacity="0" result="BackgroundImageFix"/>
<feColorMatrix in="SourceAlpha" type="matrix" values="0 0 0 0 0 0 0 0 0 0 0 0 0 0 0 0 0 0 127 0" result="hardAlpha"/>
<feOffset dy="27"/>
<feGaussianBlur stdDeviation="26"/>
<feColorMatrix type="matrix" values="0 0 0 0 0.00392157 0 0 0 0 0.70671 0 0 0 0 0.8 0 0 0 0.247432 0"/>
<feBlend mode="normal" in2="BackgroundImageFix" result="effect1_dropShadow_103_1195"/>
<feBlend mode="normal" in="SourceGraphic" in2="effect1_dropShadow_103_1195" result="shape"/>
</filter>
<filter id="filter9_dd_103_1195" x="85.8823" y="254.086" width="191.279" height="191.248" filterUnits="userSpaceOnUse" color-interpolation-filters="sRGB">
<feFlood flood-opacity="0" result="BackgroundImageFix"/>
<feColorMatrix in="SourceAlpha" type="matrix" values="0 0 0 0 0 0 0 0 0 0 0 0 0 0 0 0 0 0 127 0" result="hardAlpha"/>
<feOffset dy="6"/>
<feGaussianBlur stdDeviation="11.5"/>
<feColorMatrix type="matrix" values="0 0 0 0 0.127512 0 0 0 0 0.698802 0 0 0 0 0.728402 0 0 0 0.18078 0"/>
<feBlend mode="normal" in2="BackgroundImageFix" result="effect1_dropShadow_103_1195"/>
<feColorMatrix in="SourceAlpha" type="matrix" values="0 0 0 0 0 0 0 0 0 0 0 0 0 0 0 0 0 0 127 0" result="hardAlpha"/>
<feOffset dy="12"/>
<feGaussianBlur stdDeviation="23.5"/>
<feColorMatrix type="matrix" values="0 0 0 0 0 0 0 0 0 0.271378 0 0 0 0 0.285439 0 0 0 0.598312 0"/>
<feBlend mode="normal" in2="effect1_dropShadow_103_1195" result="effect2_dropShadow_103_1195"/>
<feBlend mode="normal" in="SourceGraphic" in2="effect2_dropShadow_103_1195" result="shape"/>
</filter>
<filter id="filter10_d_103_1195" x="271.741" y="190.845" width="179.481" height="179.481" filterUnits="userSpaceOnUse" color-interpolation-filters="sRGB">
<feFlood flood-opacity="0" result="BackgroundImageFix"/>
<feColorMatrix in="SourceAlpha" type="matrix" values="0 0 0 0 0 0 0 0 0 0 0 0 0 0 0 0 0 0 127 0" result="hardAlpha"/>
<feOffset dy="10"/>
<feGaussianBlur stdDeviation="11"/>
<feColorMatrix type="matrix" values="0 0 0 0 0.0785859 0 0 0 0 0.129961 0 0 0 0 0.359375 0 0 0 0.137292 0"/>
<feBlend mode="normal" in2="BackgroundImageFix" result="effect1_dropShadow_103_1195"/>
<feBlend mode="normal" in="SourceGraphic" in2="effect1_dropShadow_103_1195" result="shape"/>
</filter>
<filter id="filter11_d_103_1195" x="278.936" y="185.999" width="122.796" height="122.734" filterUnits="userSpaceOnUse" color-interpolation-filters="sRGB">
<feFlood flood-opacity="0" result="BackgroundImageFix"/>
<feColorMatrix in="SourceAlpha" type="matrix" values="0 0 0 0 0 0 0 0 0 0 0 0 0 0 0 0 0 0 127 0" result="hardAlpha"/>
<feOffset dy="22"/>
<feGaussianBlur stdDeviation="29"/>
<feColorMatrix type="matrix" values="0 0 0 0 0.12549 0 0 0 0 0.364706 0 0 0 0 0.631373 0 0 0 0.121066 0"/>
<feBlend mode="normal" in2="BackgroundImageFix" result="effect1_dropShadow_103_1195"/>
<feBlend mode="normal" in="SourceGraphic" in2="effect1_dropShadow_103_1195" result="shape"/>
</filter>
<filter id="filter12_d_103_1195" x="296.992" y="188.942" width="122.796" height="122.734" filterUnits="userSpaceOnUse" color-interpolation-filters="sRGB">
<feFlood flood-opacity="0" result="BackgroundImageFix"/>
<feColorMatrix in="SourceAlpha" type="matrix" values="0 0 0 0 0 0 0 0 0 0 0 0 0 0 0 0 0 0 127 0" result="hardAlpha"/>
<feOffset dy="22"/>
<feGaussianBlur stdDeviation="29"/>
<feColorMatrix type="matrix" values="0 0 0 0 0.12549 0 0 0 0 0.364706 0 0 0 0 0.631373 0 0 0 0.121066 0"/>
<feBlend mode="normal" in2="BackgroundImageFix" result="effect1_dropShadow_103_1195"/>
<feBlend mode="normal" in="SourceGraphic" in2="effect1_dropShadow_103_1195" result="shape"/>
</filter>
<filter id="filter13_d_103_1195" x="313.874" y="185.999" width="122.795" height="122.734" filterUnits="userSpaceOnUse" color-interpolation-filters="sRGB">
<feFlood flood-opacity="0" result="BackgroundImageFix"/>
<feColorMatrix in="SourceAlpha" type="matrix" values="0 0 0 0 0 0 0 0 0 0 0 0 0 0 0 0 0 0 127 0" result="hardAlpha"/>
<feOffset dy="22"/>
<feGaussianBlur stdDeviation="29"/>
<feColorMatrix type="matrix" values="0 0 0 0 0.12549 0 0 0 0 0.364706 0 0 0 0 0.631373 0 0 0 0.121066 0"/>
<feBlend mode="normal" in2="BackgroundImageFix" result="effect1_dropShadow_103_1195"/>
<feBlend mode="normal" in="SourceGraphic" in2="effect1_dropShadow_103_1195" result="shape"/>
</filter>
<filter id="filter14_d_103_1195" x="321.097" y="194.823" width="122.796" height="122.734" filterUnits="userSpaceOnUse" color-interpolation-filters="sRGB">
<feFlood flood-opacity="0" result="BackgroundImageFix"/>
<feColorMatrix in="SourceAlpha" type="matrix" values="0 0 0 0 0 0 0 0 0 0 0 0 0 0 0 0 0 0 127 0" result="hardAlpha"/>
<feOffset dy="22"/>
<feGaussianBlur stdDeviation="29"/>
<feColorMatrix type="matrix" values="0 0 0 0 0.12549 0 0 0 0 0.364706 0 0 0 0 0.631373 0 0 0 0.121066 0"/>
<feBlend mode="normal" in2="BackgroundImageFix" result="effect1_dropShadow_103_1195"/>
<feBlend mode="normal" in="SourceGraphic" in2="effect1_dropShadow_103_1195" result="shape"/>
</filter>
<filter id="filter15_d_103_1195" x="322.263" y="275.686" width="122.796" height="122.734" filterUnits="userSpaceOnUse" color-interpolation-filters="sRGB">
<feFlood flood-opacity="0" result="BackgroundImageFix"/>
<feColorMatrix in="SourceAlpha" type="matrix" values="0 0 0 0 0 0 0 0 0 0 0 0 0 0 0 0 0 0 127 0" result="hardAlpha"/>
<feOffset dy="22"/>
<feGaussianBlur stdDeviation="29"/>
<feColorMatrix type="matrix" values="0 0 0 0 0.12549 0 0 0 0 0.364706 0 0 0 0 0.631373 0 0 0 0.121066 0"/>
<feBlend mode="normal" in2="BackgroundImageFix" result="effect1_dropShadow_103_1195"/>
<feBlend mode="normal" in="SourceGraphic" in2="effect1_dropShadow_103_1195" result="shape"/>
</filter>
<filter id="filter16_d_103_1195" x="304.212" y="272.739" width="122.796" height="122.734" filterUnits="userSpaceOnUse" color-interpolation-filters="sRGB">
<feFlood flood-opacity="0" result="BackgroundImageFix"/>
<feColorMatrix in="SourceAlpha" type="matrix" values="0 0 0 0 0 0 0 0 0 0 0 0 0 0 0 0 0 0 127 0" result="hardAlpha"/>
<feOffset dy="22"/>
<feGaussianBlur stdDeviation="29"/>
<feColorMatrix type="matrix" values="0 0 0 0 0.12549 0 0 0 0 0.364706 0 0 0 0 0.631373 0 0 0 0.121066 0"/>
<feBlend mode="normal" in2="BackgroundImageFix" result="effect1_dropShadow_103_1195"/>
<feBlend mode="normal" in="SourceGraphic" in2="effect1_dropShadow_103_1195" result="shape"/>
</filter>
<filter id="filter17_d_103_1195" x="287.328" y="275.686" width="122.796" height="122.734" filterUnits="userSpaceOnUse" color-interpolation-filters="sRGB">
<feFlood flood-opacity="0" result="BackgroundImageFix"/>
<feColorMatrix in="SourceAlpha" type="matrix" values="0 0 0 0 0 0 0 0 0 0 0 0 0 0 0 0 0 0 127 0" result="hardAlpha"/>
<feOffset dy="22"/>
<feGaussianBlur stdDeviation="29"/>
<feColorMatrix type="matrix" values="0 0 0 0 0.12549 0 0 0 0 0.364706 0 0 0 0 0.631373 0 0 0 0.121066 0"/>
<feBlend mode="normal" in2="BackgroundImageFix" result="effect1_dropShadow_103_1195"/>
<feBlend mode="normal" in="SourceGraphic" in2="effect1_dropShadow_103_1195" result="shape"/>
</filter>
<filter id="filter18_d_103_1195" x="280.109" y="266.85" width="122.796" height="122.734" filterUnits="userSpaceOnUse" color-interpolation-filters="sRGB">
<feFlood flood-opacity="0" result="BackgroundImageFix"/>
<feColorMatrix in="SourceAlpha" type="matrix" values="0 0 0 0 0 0 0 0 0 0 0 0 0 0 0 0 0 0 127 0" result="hardAlpha"/>
<feOffset dy="22"/>
<feGaussianBlur stdDeviation="29"/>
<feColorMatrix type="matrix" values="0 0 0 0 0.12549 0 0 0 0 0.364706 0 0 0 0 0.631373 0 0 0 0.121066 0"/>
<feBlend mode="normal" in2="BackgroundImageFix" result="effect1_dropShadow_103_1195"/>
<feBlend mode="normal" in="SourceGraphic" in2="effect1_dropShadow_103_1195" result="shape"/>
</filter>
<filter id="filter19_d_103_1195" x="345.854" y="209.358" width="122.796" height="122.734" filterUnits="userSpaceOnUse" color-interpolation-filters="sRGB">
<feFlood flood-opacity="0" result="BackgroundImageFix"/>
<feColorMatrix in="SourceAlpha" type="matrix" values="0 0 0 0 0 0 0 0 0 0 0 0 0 0 0 0 0 0 127 0" result="hardAlpha"/>
<feOffset dy="22"/>
<feGaussianBlur stdDeviation="29"/>
<feColorMatrix type="matrix" values="0 0 0 0 0.12549 0 0 0 0 0.364706 0 0 0 0 0.631373 0 0 0 0.121066 0"/>
<feBlend mode="normal" in2="BackgroundImageFix" result="effect1_dropShadow_103_1195"/>
<feBlend mode="normal" in="SourceGraphic" in2="effect1_dropShadow_103_1195" result="shape"/>
</filter>
<filter id="filter20_d_103_1195" x="342.88" y="227.252" width="122.795" height="122.734" filterUnits="userSpaceOnUse" color-interpolation-filters="sRGB">
<feFlood flood-opacity="0" result="BackgroundImageFix"/>
<feColorMatrix in="SourceAlpha" type="matrix" values="0 0 0 0 0 0 0 0 0 0 0 0 0 0 0 0 0 0 127 0" result="hardAlpha"/>
<feOffset dy="22"/>
<feGaussianBlur stdDeviation="29"/>
<feColorMatrix type="matrix" values="0 0 0 0 0.12549 0 0 0 0 0.364706 0 0 0 0 0.631373 0 0 0 0.121066 0"/>
<feBlend mode="normal" in2="BackgroundImageFix" result="effect1_dropShadow_103_1195"/>
<feBlend mode="normal" in="SourceGraphic" in2="effect1_dropShadow_103_1195" result="shape"/>
</filter>
<filter id="filter21_d_103_1195" x="345.854" y="243.983" width="122.796" height="122.734" filterUnits="userSpaceOnUse" color-interpolation-filters="sRGB">
<feFlood flood-opacity="0" result="BackgroundImageFix"/>
<feColorMatrix in="SourceAlpha" type="matrix" values="0 0 0 0 0 0 0 0 0 0 0 0 0 0 0 0 0 0 127 0" result="hardAlpha"/>
<feOffset dy="22"/>
<feGaussianBlur stdDeviation="29"/>
<feColorMatrix type="matrix" values="0 0 0 0 0.12549 0 0 0 0 0.364706 0 0 0 0 0.631373 0 0 0 0.121066 0"/>
<feBlend mode="normal" in2="BackgroundImageFix" result="effect1_dropShadow_103_1195"/>
<feBlend mode="normal" in="SourceGraphic" in2="effect1_dropShadow_103_1195" result="shape"/>
</filter>
<filter id="filter22_d_103_1195" x="336.937" y="251.152" width="122.795" height="122.734" filterUnits="userSpaceOnUse" color-interpolation-filters="sRGB">
<feFlood flood-opacity="0" result="BackgroundImageFix"/>
<feColorMatrix in="SourceAlpha" type="matrix" values="0 0 0 0 0 0 0 0 0 0 0 0 0 0 0 0 0 0 127 0" result="hardAlpha"/>
<feOffset dy="22"/>
<feGaussianBlur stdDeviation="29"/>
<feColorMatrix type="matrix" values="0 0 0 0 0.12549 0 0 0 0 0.364706 0 0 0 0 0.631373 0 0 0 0.121066 0"/>
<feBlend mode="normal" in2="BackgroundImageFix" result="effect1_dropShadow_103_1195"/>
<feBlend mode="normal" in="SourceGraphic" in2="effect1_dropShadow_103_1195" result="shape"/>
</filter>
<filter id="filter23_d_103_1195" x="255.348" y="252.314" width="122.796" height="122.734" filterUnits="userSpaceOnUse" color-interpolation-filters="sRGB">
<feFlood flood-opacity="0" result="BackgroundImageFix"/>
<feColorMatrix in="SourceAlpha" type="matrix" values="0 0 0 0 0 0 0 0 0 0 0 0 0 0 0 0 0 0 127 0" result="hardAlpha"/>
<feOffset dy="22"/>
<feGaussianBlur stdDeviation="29"/>
<feColorMatrix type="matrix" values="0 0 0 0 0.12549 0 0 0 0 0.364706 0 0 0 0 0.631373 0 0 0 0.121066 0"/>
<feBlend mode="normal" in2="BackgroundImageFix" result="effect1_dropShadow_103_1195"/>
<feBlend mode="normal" in="SourceGraphic" in2="effect1_dropShadow_103_1195" result="shape"/>
</filter>
<filter id="filter24_d_103_1195" x="258.319" y="234.425" width="122.796" height="122.734" filterUnits="userSpaceOnUse" color-interpolation-filters="sRGB">
<feFlood flood-opacity="0" result="BackgroundImageFix"/>
<feColorMatrix in="SourceAlpha" type="matrix" values="0 0 0 0 0 0 0 0 0 0 0 0 0 0 0 0 0 0 127 0" result="hardAlpha"/>
<feOffset dy="22"/>
<feGaussianBlur stdDeviation="29"/>
<feColorMatrix type="matrix" values="0 0 0 0 0.12549 0 0 0 0 0.364706 0 0 0 0 0.631373 0 0 0 0.121066 0"/>
<feBlend mode="normal" in2="BackgroundImageFix" result="effect1_dropShadow_103_1195"/>
<feBlend mode="normal" in="SourceGraphic" in2="effect1_dropShadow_103_1195" result="shape"/>
</filter>
<filter id="filter25_d_103_1195" x="255.348" y="217.694" width="122.796" height="122.734" filterUnits="userSpaceOnUse" color-interpolation-filters="sRGB">
<feFlood flood-opacity="0" result="BackgroundImageFix"/>
<feColorMatrix in="SourceAlpha" type="matrix" values="0 0 0 0 0 0 0 0 0 0 0 0 0 0 0 0 0 0 127 0" result="hardAlpha"/>
<feOffset dy="22"/>
<feGaussianBlur stdDeviation="29"/>
<feColorMatrix type="matrix" values="0 0 0 0 0.12549 0 0 0 0 0.364706 0 0 0 0 0.631373 0 0 0 0.121066 0"/>
<feBlend mode="normal" in2="BackgroundImageFix" result="effect1_dropShadow_103_1195"/>
<feBlend mode="normal" in="SourceGraphic" in2="effect1_dropShadow_103_1195" result="shape"/>
</filter>
<filter id="filter26_d_103_1195" x="264.267" y="210.533" width="122.796" height="122.734" filterUnits="userSpaceOnUse" color-interpolation-filters="sRGB">
<feFlood flood-opacity="0" result="BackgroundImageFix"/>
<feColorMatrix in="SourceAlpha" type="matrix" values="0 0 0 0 0 0 0 0 0 0 0 0 0 0 0 0 0 0 127 0" result="hardAlpha"/>
<feOffset dy="22"/>
<feGaussianBlur stdDeviation="29"/>
<feColorMatrix type="matrix" values="0 0 0 0 0.12549 0 0 0 0 0.364706 0 0 0 0 0.631373 0 0 0 0.121066 0"/>
<feBlend mode="normal" in2="BackgroundImageFix" result="effect1_dropShadow_103_1195"/>
<feBlend mode="normal" in="SourceGraphic" in2="effect1_dropShadow_103_1195" result="shape"/>
</filter>
<linearGradient id="paint0_linear_103_1195" x1="644.945" y1="395.41" x2="603.372" y2="407.245" gradientUnits="userSpaceOnUse">
<stop stop-color="#4D8AF9"/>
<stop offset="0.24" stop-color="#427EEA"/>
<stop offset="0.623812" stop-color="#407BE6"/>
<stop offset="1" stop-color="#276EED"/>
</linearGradient>
<linearGradient id="paint1_linear_103_1195" x1="648.501" y1="411.635" x2="600.673" y2="411.635" gradientUnits="userSpaceOnUse">
<stop stop-color="#FDE89F"/>
<stop offset="1" stop-color="#FACD66"/>
</linearGradient>
<linearGradient id="paint2_linear_103_1195" x1="644.945" y1="427.276" x2="603.372" y2="439.11" gradientUnits="userSpaceOnUse">
<stop stop-color="#4D8AF9"/>
<stop offset="0.24" stop-color="#427EEA"/>
<stop offset="0.623812" stop-color="#407BE6"/>
<stop offset="1" stop-color="#276EED"/>
</linearGradient>
<linearGradient id="paint3_linear_103_1195" x1="589.835" y1="395.41" x2="548.262" y2="407.245" gradientUnits="userSpaceOnUse">
<stop stop-color="#4D8AF9"/>
<stop offset="0.24" stop-color="#427EEA"/>
<stop offset="0.623812" stop-color="#407BE6"/>
<stop offset="1" stop-color="#276EED"/>
</linearGradient>
<linearGradient id="paint4_linear_103_1195" x1="593.391" y1="411.635" x2="545.563" y2="411.635" gradientUnits="userSpaceOnUse">
<stop stop-color="#FDE89F"/>
<stop offset="1" stop-color="#FACD66"/>
</linearGradient>
<linearGradient id="paint5_linear_103_1195" x1="589.835" y1="427.276" x2="548.262" y2="439.11" gradientUnits="userSpaceOnUse">
<stop stop-color="#4D8AF9"/>
<stop offset="0.24" stop-color="#427EEA"/>
<stop offset="0.623812" stop-color="#407BE6"/>
<stop offset="1" stop-color="#276EED"/>
</linearGradient>
<linearGradient id="paint6_linear_103_1195" x1="167.602" y1="228.055" x2="196.061" y2="245.949" gradientUnits="userSpaceOnUse">
<stop stop-color="#4169D8"/>
<stop offset="1" stop-color="#0F14AE"/>
</linearGradient>
<linearGradient id="paint7_linear_103_1195" x1="60.657" y1="107.006" x2="106.643" y2="145.363" gradientUnits="userSpaceOnUse">
<stop stop-color="#4169D8"/>
<stop offset="1" stop-color="#0F14AE"/>
</linearGradient>
<linearGradient id="paint8_linear_103_1195" x1="264.085" y1="198.273" x2="433.55" y2="318.83" gradientUnits="userSpaceOnUse">
<stop stop-color="#4E6DD7"/>
<stop offset="1" stop-color="#0F14AE"/>
</linearGradient>
</defs>
</svg>
