<svg width="682" height="465" viewBox="0 0 682 465" fill="none" xmlns="http://www.w3.org/2000/svg">
<path d="M542.375 250.45C547.204 250.45 551.119 254.426 551.119 259.329C551.119 264.233 547.204 268.208 542.375 268.208C537.546 268.208 533.631 264.233 533.631 259.329C533.631 254.426 537.546 250.45 542.375 250.45ZM609.287 257.56L609.922 259.639C608.46 260.073 606.944 260.328 605.395 260.397L604.619 260.415L600.788 260.415L600.788 258.244L604.615 258.243C606.216 258.238 607.785 258.006 609.287 257.56ZM594.182 258.244V260.415H585.375V258.244H594.182ZM578.77 258.244V260.415H569.963V258.244H578.77ZM563.358 258.244V260.415H554.551V258.244H563.358ZM619.691 248.284L621.724 249.119C620.587 251.813 618.811 254.199 616.559 256.08L616.069 256.475L614.704 254.771C616.896 253.063 618.618 250.828 619.691 248.284ZM623.143 233.63L623.142 242.238L623.141 242.331L620.94 242.302C620.94 242.265 620.94 242.241 620.941 242.22L620.941 233.63H623.143ZM623.143 218.428V227.115H620.941V218.428H623.143ZM623.143 203.227V211.913H620.941V203.227H623.143ZM623.143 188.025V196.712H620.941V188.025H623.143ZM623.143 172.824V181.51H620.941V172.824H623.143Z" fill="#2D2D2D"/>
<g filter="url(#filter0_d_106_1460)">
<path d="M621.335 210.739C642.689 210.739 660 193.756 660 172.806C660 151.856 642.689 134.873 621.335 134.873C599.98 134.873 582.669 151.856 582.669 172.806C582.669 193.756 599.98 210.739 621.335 210.739Z" fill="black"/>
</g>
<path d="M621.335 210.739C642.689 210.739 660 193.756 660 172.806C660 151.856 642.689 134.873 621.335 134.873C599.98 134.873 582.669 151.856 582.669 172.806C582.669 193.756 599.98 210.739 621.335 210.739Z" fill="white"/>
<path d="M623.111 144.239C624.206 144.239 625.176 144.935 625.506 145.96L626.817 150.018C627.064 150.783 627.679 151.373 628.456 151.624C629.535 151.973 630.578 152.399 631.578 152.895C632.31 153.259 633.172 153.27 633.9 152.899L637.755 150.937C638.727 150.442 639.914 150.622 640.689 151.382L643.201 153.847C643.976 154.606 644.159 155.771 643.654 156.725L641.648 160.518C641.271 161.232 641.282 162.075 641.651 162.793C642.152 163.77 642.584 164.788 642.937 165.84C643.193 166.604 643.793 167.208 644.574 167.451L648.728 168.742C649.772 169.066 650.482 170.017 650.482 171.092V174.577C650.482 175.652 649.772 176.603 648.728 176.927L644.556 178.224C643.777 178.466 643.178 179.068 642.92 179.829C642.568 180.872 642.139 181.881 641.64 182.85C641.27 183.568 641.258 184.413 641.636 185.127L643.654 188.944C644.159 189.898 643.976 191.063 643.201 191.822L640.689 194.287C639.914 195.047 638.727 195.227 637.755 194.732L633.853 192.746C633.127 192.376 632.267 192.387 631.535 192.748C630.552 193.234 629.529 193.651 628.471 193.995C627.695 194.246 627.08 194.835 626.833 195.6L625.506 199.709C625.176 200.734 624.206 201.43 623.111 201.43H619.558C618.463 201.43 617.494 200.734 617.163 199.709L615.836 195.6C615.589 194.835 614.974 194.246 614.198 193.995C613.14 193.651 612.117 193.234 611.134 192.748C610.402 192.387 609.543 192.376 608.816 192.746L604.914 194.732C603.942 195.227 602.755 195.047 601.98 194.287L599.468 191.822C598.694 191.063 598.51 189.898 599.015 188.944L601.033 185.127C601.411 184.413 601.399 183.568 601.029 182.85C600.53 181.881 600.101 180.872 599.748 179.829C599.491 179.068 598.892 178.466 598.113 178.224L593.941 176.927C592.897 176.603 592.187 175.652 592.187 174.577V171.092C592.187 170.017 592.897 169.066 593.941 168.742L598.095 167.451C598.876 167.208 599.476 166.604 599.732 165.841C600.086 164.788 600.517 163.771 601.019 162.794C601.388 162.077 601.398 161.233 601.021 160.519L599.015 156.725C598.51 155.771 598.694 154.606 599.468 153.847L601.98 151.382C602.755 150.622 603.942 150.442 604.914 150.937L608.771 152.9C609.499 153.271 610.361 153.259 611.093 152.896C612.093 152.399 613.135 151.973 614.213 151.624C614.99 151.373 615.605 150.783 615.852 150.018L617.163 145.96C617.494 144.935 618.463 144.239 619.558 144.239H623.111ZM621.929 159.412C614.045 159.412 607.653 165.683 607.653 173.418C607.653 181.153 614.045 187.424 621.929 187.424C629.814 187.424 636.206 181.153 636.206 173.418C636.206 165.683 629.814 159.412 621.929 159.412Z" fill="#598CF1"/>
<g filter="url(#filter1_d_106_1460)">
<path d="M533.118 151.96C548.829 151.96 561.566 139.488 561.566 124.104C561.566 108.719 548.829 96.2476 533.118 96.2476C517.407 96.2476 504.67 108.719 504.67 124.104C504.67 139.488 517.407 151.96 533.118 151.96Z" fill="black"/>
</g>
<path d="M533.118 151.96C548.829 151.96 561.566 139.488 561.566 124.104C561.566 108.719 548.829 96.2476 533.118 96.2476C517.407 96.2476 504.67 108.719 504.67 124.104C504.67 139.488 517.407 151.96 533.118 151.96Z" fill="#FF7474"/>
<path d="M529.159 110.052C530.879 107.042 535.068 107.046 536.786 110.052L547.481 130.481C549.238 133.556 547.108 137.442 543.668 137.442H522.277C518.834 137.442 516.707 133.553 518.464 130.481L529.159 110.052ZM532.342 130.031C531.299 130.031 530.449 130.862 530.449 131.883C530.449 132.905 531.299 133.736 532.342 133.736C533.385 133.736 534.234 132.905 534.234 131.883C534.234 130.862 533.385 130.031 532.342 130.031ZM532.342 115.207C531.299 115.207 530.449 115.999 530.449 116.972V125.795C530.449 126.768 531.299 127.56 532.342 127.56C533.385 127.56 534.234 126.768 534.234 125.795V116.972C534.234 115.999 533.385 115.207 532.342 115.207Z" fill="#FFE6E6"/>
<path d="M95.8367 103.927C97.3946 103.927 98.7738 104.915 99.2444 106.37L101.108 112.133C101.46 113.219 102.335 114.056 103.441 114.413C104.975 114.908 106.459 115.513 107.882 116.218C108.923 116.734 110.149 116.75 111.184 116.224L116.669 113.438C118.052 112.735 119.741 112.99 120.843 114.069L124.416 117.569C125.518 118.647 125.779 120.301 125.062 121.656L122.208 127.042C121.671 128.055 121.687 129.253 122.211 130.272C122.925 131.659 123.538 133.104 124.041 134.599C124.405 135.683 125.259 136.541 126.37 136.885L132.28 138.718C133.765 139.179 134.775 140.53 134.775 142.056V147.004C134.775 148.53 133.765 149.88 132.28 150.341L126.345 152.182C125.237 152.526 124.383 153.381 124.017 154.461C123.516 155.943 122.906 157.375 122.196 158.751C121.67 159.77 121.653 160.97 122.19 161.984L125.062 167.404C125.779 168.758 125.518 170.412 124.416 171.491L120.843 174.99C119.741 176.069 118.052 176.325 116.669 175.622L111.119 172.802C110.085 172.277 108.862 172.293 107.821 172.805C106.423 173.495 104.967 174.088 103.462 174.575C102.358 174.933 101.484 175.769 101.132 176.855L99.2444 182.69C98.7738 184.144 97.3946 185.133 95.8367 185.133H90.7827C89.2248 185.133 87.8455 184.144 87.3749 182.69L85.4876 176.855C85.1358 175.769 84.2616 174.933 83.157 174.575C81.6524 174.088 80.1965 173.495 78.799 172.805C77.7578 172.292 76.535 172.277 75.5004 172.802L69.9505 175.622C68.5672 176.325 66.8783 176.069 65.7762 174.99L62.203 171.491C61.1009 170.412 60.84 168.758 61.5578 167.404L64.4289 161.984C64.9665 160.97 64.9498 159.77 64.4234 158.751C63.7137 157.375 63.1035 155.943 62.6015 154.461C62.236 153.381 61.3826 152.526 60.2745 152.182L54.3397 150.341C52.8544 149.88 51.8447 148.53 51.8447 147.004V142.056C51.8447 140.53 52.8544 139.179 54.3397 138.718L60.2496 136.885C61.3603 136.541 62.2146 135.683 62.5786 134.599C63.0812 133.105 63.6944 131.661 64.4086 130.274C64.9335 129.255 64.9488 128.057 64.4122 127.044L61.5578 121.656C60.84 120.301 61.1009 118.647 62.203 117.569L65.7762 114.069C66.8783 112.99 68.5672 112.735 69.9505 113.438L75.4364 116.225C76.4725 116.751 77.6985 116.735 78.7396 116.219C80.1625 115.514 81.6453 114.908 83.1789 114.413C84.2845 114.056 85.1591 113.219 85.5104 112.133L87.3749 106.37C87.8455 104.915 89.2248 103.927 90.7827 103.927H95.8367ZM94.1559 125.471C82.9394 125.471 73.8465 134.375 73.8465 145.358C73.8465 156.342 82.9394 165.246 94.1559 165.246C105.372 165.246 114.465 156.342 114.465 145.358C114.465 134.375 105.372 125.471 94.1559 125.471Z" fill="#00338F"/>
<path d="M563.886 319.263H492.824C489.916 319.263 487.559 321.572 487.559 324.419V411.984C487.559 414.831 489.916 417.14 492.824 417.14H563.886C566.794 417.14 569.152 414.831 569.152 411.984V324.419C569.152 321.572 566.794 319.263 563.886 319.263Z" fill="#855ED6"/>
<g filter="url(#filter2_dd_106_1460)">
<path d="M500.898 307.688H569.819L574.67 312.642L579.707 317.6V405.63C579.707 408.516 577.318 410.856 574.37 410.856H500.898C497.95 410.856 495.561 408.516 495.561 405.63V312.914C495.561 310.028 497.95 307.688 500.898 307.688Z" fill="black"/>
</g>
<path d="M500.898 307.688H569.819L574.67 312.642L579.707 317.6V405.63C579.707 408.516 577.318 410.856 574.37 410.856H500.898C497.95 410.856 495.561 408.516 495.561 405.63V312.914C495.561 310.028 497.95 307.688 500.898 307.688Z" fill="#BD91FD"/>
<g filter="url(#filter3_d_106_1460)">
<path d="M572.754 317.406C571.154 317.406 569.853 316.123 569.853 314.545V307.688L579.708 317.406H572.754Z" fill="black"/>
</g>
<path d="M572.754 317.406C571.154 317.406 569.853 316.123 569.853 314.545V307.688L579.708 317.406H572.754Z" fill="#855ED6"/>
<path d="M566.328 344.758H509.738V347.234H566.328V344.758Z" fill="#F0E5FF"/>
<path d="M566.328 359.617H509.738V362.093H566.328V359.617Z" fill="#F0E5FF"/>
<path d="M566.328 374.464H509.738V376.94H566.328V374.464Z" fill="#F0E5FF"/>
<g filter="url(#filter4_d_106_1460)">
<path d="M350.103 55.1965H293.677C291.722 55.1965 290.137 53.6596 290.137 51.7639V35.2654C290.137 33.3698 291.722 31.8328 293.677 31.8328H350.103C352.058 31.8328 353.643 33.3698 353.643 35.2654V51.7639C353.643 53.6596 352.058 55.1965 350.103 55.1965Z" fill="black"/>
</g>
<path d="M350.103 55.1965H293.677C291.722 55.1965 290.137 53.6596 290.137 51.7639V35.2654C290.137 33.3698 291.722 31.8328 293.677 31.8328H350.103C352.058 31.8328 353.643 33.3698 353.643 35.2654V51.7639C353.643 53.6596 352.058 55.1965 350.103 55.1965Z" fill="white"/>
<path d="M340.738 52.1078C345.578 52.1078 349.501 48.3041 349.501 43.612C349.501 38.9199 345.578 35.1162 340.738 35.1162C335.898 35.1162 331.975 38.9199 331.975 43.612C331.975 48.3041 335.898 52.1078 340.738 52.1078Z" fill="#DFD9FF"/>
<path d="M324.972 37.6434H296.035C295.556 37.6434 295.167 38.0237 295.167 38.493C295.167 38.9622 295.556 39.3425 296.035 39.3425H324.972C325.451 39.3425 325.839 38.9622 325.839 38.493C325.839 38.0237 325.451 37.6434 324.972 37.6434Z" fill="#DFD9FF"/>
<path d="M324.972 42.7367H296.035C295.556 42.7367 295.167 43.1171 295.167 43.5863C295.167 44.0555 295.556 44.4359 296.035 44.4359H324.972C325.451 44.4359 325.839 44.0555 325.839 43.5863C325.839 43.1171 325.451 42.7367 324.972 42.7367Z" fill="#DFD9FF"/>
<path d="M324.972 47.834H296.035C295.556 47.834 295.167 48.2143 295.167 48.6835C295.167 49.1527 295.556 49.5331 296.035 49.5331H324.972C325.451 49.5331 325.839 49.1527 325.839 48.6835C325.839 48.2143 325.451 47.834 324.972 47.834Z" fill="#DFD9FF"/>
<g filter="url(#filter5_d_106_1460)">
<path d="M236.796 73.4851C253.154 73.4851 266.414 60.3928 266.414 44.2426C266.414 28.0923 253.154 15 236.796 15C220.439 15 207.178 28.0923 207.178 44.2426C207.178 60.3928 220.439 73.4851 236.796 73.4851Z" fill="black"/>
</g>
<path d="M236.796 73.4851C253.154 73.4851 266.414 60.3928 266.414 44.2426C266.414 28.0923 253.154 15 236.796 15C220.439 15 207.178 28.0923 207.178 44.2426C207.178 60.3928 220.439 73.4851 236.796 73.4851Z" fill="#29E5C1"/>
<path d="M237.182 62.541C247.231 62.541 255.377 54.503 255.377 44.5877C255.377 34.6723 247.231 26.6343 237.182 26.6343C227.134 26.6343 218.988 34.6723 218.988 44.5877C218.988 54.503 227.134 62.541 237.182 62.541Z" fill="#E6FFFA" stroke="#29E5C1" stroke-width="2.25384"/>
<path fill-rule="evenodd" clip-rule="evenodd" d="M236.984 32.2392C230.187 32.2392 224.657 37.6926 224.657 44.3957C224.657 51.0989 230.187 56.5523 236.984 56.5523C243.781 56.5523 249.311 51.0989 249.311 44.3957C249.311 37.6926 243.781 32.2392 236.984 32.2392ZM236.984 58.1731C229.281 58.1731 223.014 51.9928 223.014 44.3957C223.014 36.7987 229.281 30.6183 236.984 30.6183C244.688 30.6183 250.955 36.7987 250.955 44.3957C250.955 51.9928 244.688 58.1731 236.984 58.1731Z" fill="#29E5C1"/>
<path fill-rule="evenodd" clip-rule="evenodd" d="M237.32 43.9699C236.892 43.9699 236.544 44.3136 236.544 44.7354C236.544 45.1571 236.892 45.5008 237.32 45.5008C237.749 45.5008 238.096 45.1571 238.096 44.7354C238.096 44.3136 237.749 43.9699 237.32 43.9699ZM237.32 47.0316C236.036 47.0316 234.992 46.0013 234.992 44.7354C234.992 43.4694 236.036 42.4391 237.32 42.4391C238.604 42.4391 239.649 43.4694 239.649 44.7354C239.649 46.0013 238.604 47.0316 237.32 47.0316Z" fill="#29E5C1"/>
<path fill-rule="evenodd" clip-rule="evenodd" d="M236.988 43.1C236.62 43.1 236.323 42.7408 236.323 42.2982V36.6852C236.323 36.2425 236.62 35.8833 236.988 35.8833C237.356 35.8833 237.653 36.2425 237.653 36.6852V42.2982C237.653 42.7408 237.356 43.1 236.988 43.1Z" fill="#29E5C1"/>
<path fill-rule="evenodd" clip-rule="evenodd" d="M232.44 49.668C232.242 49.668 232.043 49.593 231.892 49.4437C231.588 49.1444 231.588 48.6607 231.892 48.3615L234.996 45.2999C235.299 45.0007 235.79 45.0007 236.093 45.2999C236.397 45.5992 236.397 46.0829 236.093 46.3822L232.989 49.4437C232.838 49.593 232.639 49.668 232.44 49.668Z" fill="#29E5C1"/>
<path d="M282.086 105.193C285.721 105.193 288.667 108.164 288.667 111.829C288.667 115.493 285.721 118.464 282.086 118.464C278.723 118.464 275.95 115.922 275.553 112.64L272.726 112.64V111.017L275.553 111.018C275.949 107.736 278.723 105.193 282.086 105.193ZM238.855 109.675C239.623 110.462 240.659 110.94 241.779 111.008L242.061 111.017H244.552V112.64H242.061C240.489 112.64 239.01 112.053 237.891 111.024L237.657 110.797L238.855 109.675ZM256.153 111.017V112.64H249.524V111.017H256.153ZM267.754 111.017V112.64H261.125V111.017H267.754ZM237.625 99.1522V105.644H235.967V99.1522H237.625ZM237.625 87.7922V94.2836H235.967V87.7922H237.625ZM237.625 76.4322V82.9236H235.967V76.4322H237.625Z" fill="#2D2D2D"/>
<g filter="url(#filter6_d_106_1460)">
<path d="M373.221 163.255H296.505C292.971 163.255 290.107 160.451 290.107 156.991V67.6882C290.107 64.2292 292.971 61.4251 296.505 61.4251H373.221C376.754 61.4251 379.619 64.2292 379.619 67.6882V156.991C379.619 160.451 376.754 163.255 373.221 163.255Z" fill="black"/>
</g>
<path d="M373.221 163.255H296.505C292.971 163.255 290.107 160.451 290.107 156.991V67.6882C290.107 64.2292 292.971 61.4251 296.505 61.4251H373.221C376.754 61.4251 379.619 64.2292 379.619 67.6882V156.991C379.619 160.451 376.754 163.255 373.221 163.255Z" fill="white"/>
<path d="M351.032 120.047V136.393" stroke="#979797" stroke-width="0.5"/>
<path fill-rule="evenodd" clip-rule="evenodd" d="M351.03 137.975L352.596 134.811H349.464L351.03 137.975Z" fill="#D8D8D8"/>
<path d="M351.03 111.604C351.895 111.604 352.596 110.896 352.596 110.023C352.596 109.149 351.895 108.441 351.03 108.441C350.165 108.441 349.464 109.149 349.464 110.023C349.464 110.896 350.165 111.604 351.03 111.604Z" fill="#97EFF5"/>
<path d="M351.03 141.139C351.895 141.139 352.596 140.431 352.596 139.557C352.596 138.683 351.895 137.975 351.03 137.975C350.165 137.975 349.464 138.683 349.464 139.557C349.464 140.431 350.165 141.139 351.03 141.139Z" fill="#D8D8D8"/>
<path d="M351.03 121.085C351.895 121.085 352.596 120.377 352.596 119.503C352.596 118.63 351.895 117.921 351.03 117.921C350.165 117.921 349.464 118.63 349.464 119.503C349.464 120.377 350.165 121.085 351.03 121.085Z" fill="#59CCD2"/>
<path d="M351.03 150.62C351.895 150.62 352.596 149.911 352.596 149.038C352.596 148.164 351.895 147.456 351.03 147.456C350.165 147.456 349.464 148.164 349.464 149.038C349.464 149.911 350.165 150.62 351.03 150.62Z" fill="#59CCD2"/>
<path d="M364.522 109.474H338.587C338.254 109.474 337.983 109.739 337.983 110.065V119.429C337.983 119.756 338.254 120.02 338.587 120.02H364.522C364.855 120.02 365.125 119.756 365.125 119.429V110.065C365.125 109.739 364.855 109.474 364.522 109.474Z" fill="#FFD678"/>
<path d="M364.522 139.009H338.587C338.254 139.009 337.983 139.273 337.983 139.599V148.964C337.983 149.29 338.254 149.554 338.587 149.554H364.522C364.855 149.554 365.125 149.29 365.125 148.964V139.599C365.125 139.273 364.855 139.009 364.522 139.009Z" fill="#6CFCE0"/>
<path d="M324.933 78.9094C325.797 78.9094 326.498 78.2011 326.498 77.3275C326.498 76.4538 325.797 75.7456 324.933 75.7456C324.068 75.7456 323.367 76.4538 323.367 77.3275C323.367 78.2011 324.068 78.9094 324.933 78.9094Z" fill="#D8D8D8"/>
<path d="M316.581 133.778C317.445 133.778 318.146 133.07 318.146 132.196C318.146 131.322 317.445 130.614 316.581 130.614C315.716 130.614 315.015 131.322 315.015 132.196C315.015 133.07 315.716 133.778 316.581 133.778Z" fill="#97EFF5"/>
<path d="M316.581 143.259C317.445 143.259 318.146 142.551 318.146 141.677C318.146 140.803 317.445 140.095 316.581 140.095C315.716 140.095 315.015 140.803 315.015 141.677C315.015 142.551 315.716 143.259 316.581 143.259Z" fill="#59CCD2"/>
<path d="M324.934 78.9046V80.6905C324.934 81.0107 324.801 81.3172 324.566 81.5398L316.95 88.7526C316.715 88.9752 316.583 89.2817 316.583 89.6019V101.051" stroke="#979797" stroke-width="0.5"/>
<path d="M316.583 112.69V129.036" stroke="#979797" stroke-width="0.5"/>
<path d="M330.072 131.652H304.137C303.804 131.652 303.534 131.916 303.534 132.242V141.607C303.534 141.933 303.804 142.197 304.137 142.197H330.072C330.406 142.197 330.676 141.933 330.676 141.607V132.242C330.676 131.916 330.406 131.652 330.072 131.652Z" fill="#6CFCE0"/>
<path d="M338.424 71.5493H312.489C312.156 71.5493 311.886 71.8138 311.886 72.14V76.2314C311.886 76.5577 312.156 76.8222 312.489 76.8222H338.424C338.758 76.8222 339.028 76.5577 339.028 76.2314V72.14C339.028 71.8138 338.758 71.5493 338.424 71.5493Z" fill="#76A4FF"/>
<path d="M316.581 104.247C317.445 104.247 318.146 103.539 318.146 102.666C318.146 101.792 317.445 101.084 316.581 101.084C315.716 101.084 315.015 101.792 315.015 102.666C315.015 103.539 315.716 104.247 316.581 104.247Z" fill="#97EFF5"/>
<path d="M316.581 113.728C317.445 113.728 318.146 113.02 318.146 112.146C318.146 111.273 317.445 110.564 316.581 110.564C315.716 110.564 315.015 111.273 315.015 112.146C315.015 113.02 315.716 113.728 316.581 113.728Z" fill="#59CCD2"/>
<path d="M330.072 102.117H304.137C303.804 102.117 303.534 102.382 303.534 102.708V112.072C303.534 112.399 303.804 112.663 304.137 112.663H330.072C330.406 112.663 330.676 112.399 330.676 112.072V102.708C330.676 102.382 330.406 102.117 330.072 102.117Z" fill="#FFD678"/>
<path fill-rule="evenodd" clip-rule="evenodd" d="M316.581 101.084L318.146 97.9199H315.015L316.581 101.084Z" fill="#D8D8D8"/>
<path fill-rule="evenodd" clip-rule="evenodd" d="M316.581 130.614L318.146 127.45H315.015L316.581 130.614Z" fill="#D8D8D8"/>
<path fill-rule="evenodd" clip-rule="evenodd" d="M84.7529 334.54V245.601H105.814V315.206H176.897V334.54H84.7529Z" fill="#2B43C5"/>
<g filter="url(#filter7_d_106_1460)">
<path d="M142.673 342.384H211.123V306.292H142.673V342.384Z" fill="black"/>
</g>
<path d="M142.673 342.384H211.123V306.292H142.673V342.384Z" fill="url(#paint0_linear_106_1460)"/>
<path fill-rule="evenodd" clip-rule="evenodd" d="M153.202 343.691H163.733V305.022H153.202V343.691Z" fill="white"/>
<path fill-rule="evenodd" clip-rule="evenodd" d="M172.951 343.691H183.482V305.022H172.951V343.691Z" fill="white"/>
<path fill-rule="evenodd" clip-rule="evenodd" d="M192.697 343.691H203.228V305.022H192.697V343.691Z" fill="white"/>
<path fill-rule="evenodd" clip-rule="evenodd" d="M545.963 138.028C545.963 133.157 541.904 129.171 536.944 129.171H212.235C207.274 129.171 203.215 133.157 203.215 138.028V337.324H545.963V138.028Z" fill="#78A8FF"/>
<path fill-rule="evenodd" clip-rule="evenodd" d="M203.215 336.231V353.76C203.215 358.581 207.274 362.525 212.235 362.525H536.944C541.904 362.525 545.963 358.581 545.963 353.76V336.231H203.215Z" fill="#4F89F2"/>
<g filter="url(#filter8_d_106_1460)">
<path d="M222.118 325.284H527.061C530.696 325.284 533.643 322.399 533.643 318.839V147.678C533.643 144.118 530.696 141.233 527.061 141.233H222.118C218.483 141.233 215.536 144.118 215.536 147.678V318.839C215.536 322.399 218.483 325.284 222.118 325.284Z" fill="black"/>
</g>
<path d="M222.118 325.284H527.061C530.696 325.284 533.643 322.399 533.643 318.839V147.678C533.643 144.118 530.696 141.233 527.061 141.233H222.118C218.483 141.233 215.536 144.118 215.536 147.678V318.839C215.536 322.399 218.483 325.284 222.118 325.284Z" fill="url(#paint1_linear_106_1460)"/>
<path fill-rule="evenodd" clip-rule="evenodd" d="M348.828 386.646H400.352V362.544H348.828V386.646Z" fill="#3771DA"/>
<path fill-rule="evenodd" clip-rule="evenodd" d="M380.19 348.277C380.19 351.302 377.683 353.754 374.59 353.754C371.497 353.754 368.989 351.302 368.989 348.277C368.989 345.252 371.497 342.799 374.59 342.799C377.683 342.799 380.19 345.252 380.19 348.277Z" fill="white"/>
<path fill-rule="evenodd" clip-rule="evenodd" d="M319.701 392.085H429.478C431.332 392.085 432.834 390.613 432.834 388.798C432.834 386.983 431.332 385.511 429.478 385.511H319.701C317.847 385.511 316.345 386.983 316.345 388.798C316.345 390.613 317.847 392.085 319.701 392.085Z" fill="#78A8FF"/>
<g filter="url(#filter9_d_106_1460)">
<path d="M45.7199 160.675C42.5609 160.675 40 163.163 40 166.233C40 169.303 42.5609 171.792 45.7199 171.792H47.9778L85.7279 213.775V238.014L104.845 230.011V213.775L142.595 171.792H144.853C148.012 171.792 150.573 169.303 150.573 166.233C150.573 163.163 148.012 160.675 144.853 160.675H45.7199Z" fill="black"/>
</g>
<path d="M45.7199 160.675C42.5609 160.675 40 163.163 40 166.233C40 169.303 42.5609 171.792 45.7199 171.792H47.9778L85.7279 213.775V238.014L104.845 230.011V213.775L142.595 171.792H144.853C148.012 171.792 150.573 169.303 150.573 166.233C150.573 163.163 148.012 160.675 144.853 160.675H45.7199Z" fill="url(#paint2_linear_106_1460)"/>
<path opacity="0.5" fill-rule="evenodd" clip-rule="evenodd" d="M47.8989 170.967L51.1093 174.088H130.102L99.8039 203.542L96.3907 206.86V232.838L104.862 229.291V213.037L142.676 170.967H47.8989Z" fill="#ADBCFC" fill-opacity="0.5"/>
<path opacity="0.493652" fill-rule="evenodd" clip-rule="evenodd" d="M87.3857 241.875H91.3348V238.008H87.3857V241.875Z" fill="#CCA4FD"/>
<path opacity="0.493652" fill-rule="evenodd" clip-rule="evenodd" d="M91.3389 241.875H95.2879V238.008H91.3389V241.875Z" fill="#CCA4FD"/>
<path opacity="0.493652" fill-rule="evenodd" clip-rule="evenodd" d="M96.605 241.875H100.554V238.008H96.605V241.875Z" fill="#CCA4FD"/>
<path opacity="0.493652" fill-rule="evenodd" clip-rule="evenodd" d="M100.551 241.875H104.5V238.008H100.551V241.875Z" fill="#CCA4FD"/>
<path opacity="0.493652" fill-rule="evenodd" clip-rule="evenodd" d="M100.551 238.006H104.5V234.139H100.551V238.006Z" fill="#662D90"/>
<path opacity="0.493652" fill-rule="evenodd" clip-rule="evenodd" d="M100.551 232.848H104.5V230.27L100.551 231.49V232.848Z" fill="#BBBBF9"/>
<path opacity="0.5" fill-rule="evenodd" clip-rule="evenodd" d="M96.605 238.006H100.554V234.139H96.605V238.006Z" fill="#662D90"/>
<path opacity="0.493652" fill-rule="evenodd" clip-rule="evenodd" d="M91.3389 237.988H95.2879V235.41L91.3389 236.592V236.598V237.988Z" fill="#662D90"/>
<g style="mix-blend-mode:luminosity">
<g style="mix-blend-mode:luminosity">
<path d="M239.31 153.209C240.551 153.209 241.557 152.225 241.557 151.012C241.557 149.798 240.551 148.815 239.31 148.815C238.07 148.815 237.064 149.798 237.064 151.012C237.064 152.225 238.07 153.209 239.31 153.209Z" fill="#FFFCFC"/>
</g>
<g style="mix-blend-mode:luminosity">
<path d="M231.224 153.209C232.464 153.209 233.47 152.225 233.47 151.012C233.47 149.798 232.464 148.815 231.224 148.815C229.983 148.815 228.977 149.798 228.977 151.012C228.977 152.225 229.983 153.209 231.224 153.209Z" fill="#FFFCFC"/>
</g>
<g style="mix-blend-mode:luminosity">
<path d="M247.398 153.209C248.639 153.209 249.644 152.225 249.644 151.012C249.644 149.798 248.639 148.815 247.398 148.815C246.157 148.815 245.151 149.798 245.151 151.012C245.151 152.225 246.157 153.209 247.398 153.209Z" fill="#FFFCFC"/>
</g>
</g>
<rect x="413.709" y="165.73" width="64.7664" height="76.2058" fill="white" stroke="#D1E5FF" stroke-width="5"/>
<rect x="322.882" y="181.206" width="100.308" height="117.453" fill="white" stroke="#D1E5FF" stroke-width="5"/>
<path opacity="0.212" d="M405.895 215.777C392.582 215.777 382.382 212.262 373.758 204.514C365.133 212.262 354.934 215.777 341.622 215.777C341.622 235.954 337.102 264.858 373.757 276.597C410.414 264.858 405.895 235.954 405.895 215.777V215.777Z" fill="#357AFD"/>
<path d="M401.99 218.749C390.296 218.749 381.336 215.653 373.761 208.828C366.184 215.653 357.226 218.749 345.533 218.749C345.533 236.525 341.563 261.988 373.76 272.329C405.96 261.988 401.99 236.525 401.99 218.75V218.749Z" fill="#357AFD"/>
<g filter="url(#filter10_d_106_1460)">
<path d="M398.514 221.407C388.258 221.407 380.402 218.688 373.759 212.693C367.116 218.687 359.26 221.407 349.004 221.407C349.004 237.02 345.523 259.386 373.758 268.469C401.994 259.386 398.513 237.02 398.513 221.407H398.514Z" fill="black"/>
</g>
<path d="M398.514 221.407C388.258 221.407 380.402 218.688 373.759 212.693C367.116 218.687 359.26 221.407 349.004 221.407C349.004 237.02 345.523 259.386 373.758 268.469C401.994 259.386 398.513 237.02 398.513 221.407H398.514Z" fill="#2468EE"/>
<path opacity="0.19" d="M394.166 224.62C385.709 224.62 379.232 222.361 373.755 217.38C368.276 222.361 361.798 224.62 353.344 224.62C353.344 237.591 350.473 256.172 373.754 263.718C397.037 256.172 394.166 237.591 394.166 224.62Z" stroke="white" stroke-width="0.5"/>
<path fill-rule="evenodd" clip-rule="evenodd" d="M374.443 233.058C375.963 233.058 377.195 234.285 377.195 235.798C377.195 236.862 376.585 237.785 375.694 238.239V246.009H373.191V238.239C372.3 237.785 371.691 236.862 371.691 235.798C371.691 234.285 372.923 233.058 374.442 233.058H374.443Z" fill="white"/>
<path d="M255.093 301.343L272.867 318.747L260.801 330.562L243.028 313.158L255.093 301.343Z" fill="#0C3989"/>
<g filter="url(#filter11_dd_106_1460)">
<path d="M264.828 329.749L243.823 309.181L195.606 356.395C189.806 362.075 189.806 371.284 195.606 376.964C201.407 382.643 210.811 382.643 216.611 376.964L264.828 329.749Z" fill="black"/>
</g>
<path d="M264.828 329.749L243.823 309.181L195.606 356.395C189.806 362.075 189.806 371.284 195.606 376.964C201.407 382.643 210.811 382.643 216.611 376.964L264.828 329.749Z" fill="#327BFC"/>
<path opacity="0.675758" d="M267.338 308.286C244.359 285.785 244.099 249.56 266.755 227.374C289.411 205.189 326.406 205.445 349.384 227.945C372.362 250.446 372.623 286.671 349.967 308.856C327.31 331.042 290.316 330.786 267.338 308.286Z" fill="#F6F6FF"/>
<g filter="url(#filter12_dd_106_1460)">
<path d="M356.081 220.648C329.533 194.652 286.584 194.561 260.152 220.444C233.719 246.327 233.813 288.383 260.361 314.378C286.908 340.374 329.857 340.466 356.29 314.583C382.722 288.7 382.629 246.644 356.081 220.648ZM348.438 227.341C370.747 249.186 370.825 284.528 348.613 306.278C326.401 328.028 290.309 327.952 268 306.106C245.691 284.261 245.613 248.92 267.825 227.17C290.037 205.419 326.129 205.496 348.438 227.341Z" fill="black"/>
</g>
<path d="M356.081 220.648C329.533 194.652 286.584 194.561 260.152 220.444C233.719 246.327 233.813 288.383 260.361 314.378C286.908 340.374 329.857 340.466 356.29 314.583C382.722 288.7 382.629 246.644 356.081 220.648ZM348.438 227.341C370.747 249.186 370.825 284.528 348.613 306.278C326.401 328.028 290.309 327.952 268 306.106C245.691 284.261 245.613 248.92 267.825 227.17C290.037 205.419 326.129 205.496 348.438 227.341Z" fill="#327BFC"/>
<path d="M447.176 187.714C447.844 187.714 448.435 188.137 448.636 188.761L449.435 191.23C449.586 191.696 449.961 192.055 450.435 192.208C451.092 192.42 451.728 192.679 452.338 192.981C452.785 193.203 453.31 193.209 453.754 192.984L456.104 191.79C456.697 191.488 457.421 191.598 457.893 192.06L459.424 193.56C459.897 194.023 460.009 194.731 459.701 195.312L458.478 197.62C458.248 198.054 458.255 198.568 458.479 199.004C458.785 199.599 459.048 200.218 459.263 200.859C459.419 201.323 459.786 201.691 460.262 201.839L462.794 202.624C463.431 202.822 463.864 203.401 463.864 204.055V206.175C463.864 206.829 463.431 207.408 462.794 207.606L460.251 208.394C459.776 208.542 459.41 208.908 459.253 209.371C459.038 210.006 458.777 210.62 458.473 211.21C458.247 211.646 458.24 212.161 458.47 212.595L459.701 214.918C460.009 215.498 459.897 216.207 459.424 216.67L457.893 218.169C457.421 218.632 456.697 218.741 456.104 218.44L453.726 217.232C453.282 217.007 452.758 217.013 452.312 217.233C451.713 217.528 451.089 217.783 450.444 217.992C449.971 218.145 449.596 218.503 449.445 218.968L448.636 221.469C448.435 222.093 447.844 222.516 447.176 222.516H445.01C444.342 222.516 443.751 222.093 443.55 221.469L442.741 218.968C442.59 218.503 442.215 218.145 441.742 217.992C441.097 217.783 440.473 217.528 439.874 217.233C439.428 217.013 438.904 217.006 438.46 217.232L436.082 218.44C435.489 218.741 434.765 218.632 434.293 218.169L432.762 216.67C432.289 216.207 432.177 215.498 432.485 214.918L433.716 212.595C433.946 212.161 433.939 211.646 433.713 211.21C433.409 210.62 433.147 210.006 432.932 209.371C432.776 208.908 432.41 208.542 431.935 208.394L429.392 207.606C428.755 207.408 428.322 206.829 428.322 206.175V204.055C428.322 203.401 428.755 202.822 429.392 202.624L431.924 201.839C432.4 201.691 432.767 201.323 432.923 200.859C433.138 200.219 433.401 199.6 433.707 199.005C433.932 198.568 433.938 198.055 433.708 197.621L432.485 195.312C432.177 194.731 432.289 194.023 432.762 193.56L434.293 192.06C434.765 191.598 435.489 191.488 436.082 191.79L438.433 192.984C438.877 193.21 439.402 193.203 439.849 192.982C440.458 192.68 441.094 192.42 441.751 192.208C442.225 192.055 442.6 191.696 442.75 191.231L443.55 188.761C443.751 188.137 444.342 187.714 445.01 187.714H447.176ZM446.626 197.11C441.817 197.11 437.918 200.928 437.918 205.637C437.918 210.346 441.817 214.164 446.626 214.164C451.435 214.164 455.334 210.346 455.334 205.637C455.334 200.928 451.435 197.11 446.626 197.11Z" fill="#1756C6"/>
<defs>
<filter id="filter0_d_106_1460" x="560.669" y="122.873" width="121.33" height="119.866" filterUnits="userSpaceOnUse" color-interpolation-filters="sRGB">
<feFlood flood-opacity="0" result="BackgroundImageFix"/>
<feColorMatrix in="SourceAlpha" type="matrix" values="0 0 0 0 0 0 0 0 0 0 0 0 0 0 0 0 0 0 127 0" result="hardAlpha"/>
<feOffset dy="10"/>
<feGaussianBlur stdDeviation="11"/>
<feColorMatrix type="matrix" values="0 0 0 0 0.0785859 0 0 0 0 0.129961 0 0 0 0 0.359375 0 0 0 0.137292 0"/>
<feBlend mode="normal" in2="BackgroundImageFix" result="effect1_dropShadow_106_1460"/>
<feBlend mode="normal" in="SourceGraphic" in2="effect1_dropShadow_106_1460" result="shape"/>
</filter>
<filter id="filter1_d_106_1460" x="492.67" y="90.2476" width="76.8955" height="75.7125" filterUnits="userSpaceOnUse" color-interpolation-filters="sRGB">
<feFlood flood-opacity="0" result="BackgroundImageFix"/>
<feColorMatrix in="SourceAlpha" type="matrix" values="0 0 0 0 0 0 0 0 0 0 0 0 0 0 0 0 0 0 127 0" result="hardAlpha"/>
<feOffset dx="-2" dy="4"/>
<feGaussianBlur stdDeviation="5"/>
<feColorMatrix type="matrix" values="0 0 0 0 0.53626 0 0 0 0 0.0640998 0 0 0 0 0.183198 0 0 0 0.257293 0"/>
<feBlend mode="normal" in2="BackgroundImageFix" result="effect1_dropShadow_106_1460"/>
<feBlend mode="normal" in="SourceGraphic" in2="effect1_dropShadow_106_1460" result="shape"/>
</filter>
<filter id="filter2_dd_106_1460" x="448.561" y="267.688" width="178.147" height="197.169" filterUnits="userSpaceOnUse" color-interpolation-filters="sRGB">
<feFlood flood-opacity="0" result="BackgroundImageFix"/>
<feColorMatrix in="SourceAlpha" type="matrix" values="0 0 0 0 0 0 0 0 0 0 0 0 0 0 0 0 0 0 127 0" result="hardAlpha"/>
<feOffset dy="6"/>
<feGaussianBlur stdDeviation="11.5"/>
<feColorMatrix type="matrix" values="0 0 0 0 0.0729203 0 0 0 0 0.595866 0 0 0 0 0.622962 0 0 0 0.10312 0"/>
<feBlend mode="normal" in2="BackgroundImageFix" result="effect1_dropShadow_106_1460"/>
<feColorMatrix in="SourceAlpha" type="matrix" values="0 0 0 0 0 0 0 0 0 0 0 0 0 0 0 0 0 0 127 0" result="hardAlpha"/>
<feOffset dy="7"/>
<feGaussianBlur stdDeviation="23.5"/>
<feColorMatrix type="matrix" values="0 0 0 0 0.00392157 0 0 0 0 0.760784 0 0 0 0 0.8 0 0 0 0.536495 0"/>
<feBlend mode="normal" in2="effect1_dropShadow_106_1460" result="effect2_dropShadow_106_1460"/>
<feBlend mode="normal" in="SourceGraphic" in2="effect2_dropShadow_106_1460" result="shape"/>
</filter>
<filter id="filter3_d_106_1460" x="562.853" y="301.688" width="23.855" height="23.7188" filterUnits="userSpaceOnUse" color-interpolation-filters="sRGB">
<feFlood flood-opacity="0" result="BackgroundImageFix"/>
<feColorMatrix in="SourceAlpha" type="matrix" values="0 0 0 0 0 0 0 0 0 0 0 0 0 0 0 0 0 0 127 0" result="hardAlpha"/>
<feOffset dy="1"/>
<feGaussianBlur stdDeviation="3.5"/>
<feColorMatrix type="matrix" values="0 0 0 0 0.486275 0 0 0 0 0.392157 0 0 0 0 0.827451 0 0 0 0.141663 0"/>
<feBlend mode="normal" in2="BackgroundImageFix" result="effect1_dropShadow_106_1460"/>
<feBlend mode="normal" in="SourceGraphic" in2="effect1_dropShadow_106_1460" result="shape"/>
</filter>
<filter id="filter4_d_106_1460" x="269.137" y="19.8328" width="105.507" height="65.3636" filterUnits="userSpaceOnUse" color-interpolation-filters="sRGB">
<feFlood flood-opacity="0" result="BackgroundImageFix"/>
<feColorMatrix in="SourceAlpha" type="matrix" values="0 0 0 0 0 0 0 0 0 0 0 0 0 0 0 0 0 0 127 0" result="hardAlpha"/>
<feOffset dy="9"/>
<feGaussianBlur stdDeviation="10.5"/>
<feColorMatrix type="matrix" values="0 0 0 0 0.12549 0 0 0 0 0.167389 0 0 0 0 0.631373 0 0 0 0.157561 0"/>
<feBlend mode="normal" in2="BackgroundImageFix" result="effect1_dropShadow_106_1460"/>
<feBlend mode="normal" in="SourceGraphic" in2="effect1_dropShadow_106_1460" result="shape"/>
</filter>
<filter id="filter5_d_106_1460" x="182.178" y="0" width="101.236" height="100.485" filterUnits="userSpaceOnUse" color-interpolation-filters="sRGB">
<feFlood flood-opacity="0" result="BackgroundImageFix"/>
<feColorMatrix in="SourceAlpha" type="matrix" values="0 0 0 0 0 0 0 0 0 0 0 0 0 0 0 0 0 0 127 0" result="hardAlpha"/>
<feOffset dx="-4" dy="6"/>
<feGaussianBlur stdDeviation="10.5"/>
<feColorMatrix type="matrix" values="0 0 0 0 0.896767 0 0 0 0 0.896767 0 0 0 0 0.896767 0 0 0 1 0"/>
<feBlend mode="normal" in2="BackgroundImageFix" result="effect1_dropShadow_106_1460"/>
<feBlend mode="normal" in="SourceGraphic" in2="effect1_dropShadow_106_1460" result="shape"/>
</filter>
<filter id="filter6_d_106_1460" x="269.107" y="49.4251" width="131.512" height="143.83" filterUnits="userSpaceOnUse" color-interpolation-filters="sRGB">
<feFlood flood-opacity="0" result="BackgroundImageFix"/>
<feColorMatrix in="SourceAlpha" type="matrix" values="0 0 0 0 0 0 0 0 0 0 0 0 0 0 0 0 0 0 127 0" result="hardAlpha"/>
<feOffset dy="9"/>
<feGaussianBlur stdDeviation="10.5"/>
<feColorMatrix type="matrix" values="0 0 0 0 0.12549 0 0 0 0 0.167389 0 0 0 0 0.631373 0 0 0 0.157561 0"/>
<feBlend mode="normal" in2="BackgroundImageFix" result="effect1_dropShadow_106_1460"/>
<feBlend mode="normal" in="SourceGraphic" in2="effect1_dropShadow_106_1460" result="shape"/>
</filter>
<filter id="filter7_d_106_1460" x="102.673" y="281.292" width="168.45" height="136.091" filterUnits="userSpaceOnUse" color-interpolation-filters="sRGB">
<feFlood flood-opacity="0" result="BackgroundImageFix"/>
<feColorMatrix in="SourceAlpha" type="matrix" values="0 0 0 0 0 0 0 0 0 0 0 0 0 0 0 0 0 0 127 0" result="hardAlpha"/>
<feOffset dx="10" dy="25"/>
<feGaussianBlur stdDeviation="25"/>
<feColorMatrix type="matrix" values="0 0 0 0 0.451334 0 0 0 0 0.52807 0 0 0 0 1 0 0 0 0.147072 0"/>
<feBlend mode="normal" in2="BackgroundImageFix" result="effect1_dropShadow_106_1460"/>
<feBlend mode="normal" in="SourceGraphic" in2="effect1_dropShadow_106_1460" result="shape"/>
</filter>
<filter id="filter8_d_106_1460" x="175.536" y="116.233" width="418.106" height="284.051" filterUnits="userSpaceOnUse" color-interpolation-filters="sRGB">
<feFlood flood-opacity="0" result="BackgroundImageFix"/>
<feColorMatrix in="SourceAlpha" type="matrix" values="0 0 0 0 0 0 0 0 0 0 0 0 0 0 0 0 0 0 127 0" result="hardAlpha"/>
<feOffset dx="10" dy="25"/>
<feGaussianBlur stdDeviation="25"/>
<feColorMatrix type="matrix" values="0 0 0 0 0.451334 0 0 0 0 0.52807 0 0 0 0 1 0 0 0 0.147072 0"/>
<feBlend mode="normal" in2="BackgroundImageFix" result="effect1_dropShadow_106_1460"/>
<feBlend mode="normal" in="SourceGraphic" in2="effect1_dropShadow_106_1460" result="shape"/>
</filter>
<filter id="filter9_d_106_1460" x="0" y="135.675" width="210.573" height="177.339" filterUnits="userSpaceOnUse" color-interpolation-filters="sRGB">
<feFlood flood-opacity="0" result="BackgroundImageFix"/>
<feColorMatrix in="SourceAlpha" type="matrix" values="0 0 0 0 0 0 0 0 0 0 0 0 0 0 0 0 0 0 127 0" result="hardAlpha"/>
<feOffset dx="10" dy="25"/>
<feGaussianBlur stdDeviation="25"/>
<feColorMatrix type="matrix" values="0 0 0 0 0.451334 0 0 0 0 0.52807 0 0 0 0 1 0 0 0 0.147072 0"/>
<feBlend mode="normal" in2="BackgroundImageFix" result="effect1_dropShadow_106_1460"/>
<feBlend mode="normal" in="SourceGraphic" in2="effect1_dropShadow_106_1460" result="shape"/>
</filter>
<filter id="filter10_d_106_1460" x="328.868" y="200.693" width="99.7808" height="105.776" filterUnits="userSpaceOnUse" color-interpolation-filters="sRGB">
<feFlood flood-opacity="0" result="BackgroundImageFix"/>
<feColorMatrix in="SourceAlpha" type="matrix" values="0 0 0 0 0 0 0 0 0 0 0 0 0 0 0 0 0 0 127 0" result="hardAlpha"/>
<feOffset dx="5" dy="13"/>
<feGaussianBlur stdDeviation="12.5"/>
<feColorMatrix type="matrix" values="0 0 0 0 0.451334 0 0 0 0 0.52807 0 0 0 0 1 0 0 0 0.147072 0"/>
<feBlend mode="normal" in2="BackgroundImageFix" result="effect1_dropShadow_106_1460"/>
<feBlend mode="normal" in="SourceGraphic" in2="effect1_dropShadow_106_1460" result="shape"/>
</filter>
<filter id="filter11_dd_106_1460" x="164.256" y="289.181" width="127.572" height="126.042" filterUnits="userSpaceOnUse" color-interpolation-filters="sRGB">
<feFlood flood-opacity="0" result="BackgroundImageFix"/>
<feColorMatrix in="SourceAlpha" type="matrix" values="0 0 0 0 0 0 0 0 0 0 0 0 0 0 0 0 0 0 127 0" result="hardAlpha"/>
<feOffset dy="3"/>
<feGaussianBlur stdDeviation="6.5"/>
<feColorMatrix type="matrix" values="0 0 0 0 0.127512 0 0 0 0 0.698802 0 0 0 0 0.728402 0 0 0 0.18078 0"/>
<feBlend mode="normal" in2="BackgroundImageFix" result="effect1_dropShadow_106_1460"/>
<feColorMatrix in="SourceAlpha" type="matrix" values="0 0 0 0 0 0 0 0 0 0 0 0 0 0 0 0 0 0 127 0" result="hardAlpha"/>
<feOffset dy="7"/>
<feGaussianBlur stdDeviation="13.5"/>
<feColorMatrix type="matrix" values="0 0 0 0 0 0 0 0 0 0.271378 0 0 0 0 0.285439 0 0 0 0.598312 0"/>
<feBlend mode="normal" in2="effect1_dropShadow_106_1460" result="effect2_dropShadow_106_1460"/>
<feBlend mode="normal" in="SourceGraphic" in2="effect2_dropShadow_106_1460" result="shape"/>
</filter>
<filter id="filter12_dd_106_1460" x="213.389" y="181.091" width="189.665" height="186.844" filterUnits="userSpaceOnUse" color-interpolation-filters="sRGB">
<feFlood flood-opacity="0" result="BackgroundImageFix"/>
<feColorMatrix in="SourceAlpha" type="matrix" values="0 0 0 0 0 0 0 0 0 0 0 0 0 0 0 0 0 0 127 0" result="hardAlpha"/>
<feOffset dy="3"/>
<feGaussianBlur stdDeviation="6.5"/>
<feColorMatrix type="matrix" values="0 0 0 0 0.127512 0 0 0 0 0.698802 0 0 0 0 0.728402 0 0 0 0.18078 0"/>
<feBlend mode="normal" in2="BackgroundImageFix" result="effect1_dropShadow_106_1460"/>
<feColorMatrix in="SourceAlpha" type="matrix" values="0 0 0 0 0 0 0 0 0 0 0 0 0 0 0 0 0 0 127 0" result="hardAlpha"/>
<feOffset dy="7"/>
<feGaussianBlur stdDeviation="13.5"/>
<feColorMatrix type="matrix" values="0 0 0 0 0 0 0 0 0 0.271378 0 0 0 0 0.285439 0 0 0 0.598312 0"/>
<feBlend mode="normal" in2="effect1_dropShadow_106_1460" result="effect2_dropShadow_106_1460"/>
<feBlend mode="normal" in="SourceGraphic" in2="effect2_dropShadow_106_1460" result="shape"/>
</filter>
<linearGradient id="paint0_linear_106_1460" x1="157.334" y1="320.42" x2="189.571" y2="341.12" gradientUnits="userSpaceOnUse">
<stop stop-color="#4169D8"/>
<stop offset="1" stop-color="#0F14AE"/>
</linearGradient>
<linearGradient id="paint1_linear_106_1460" x1="283.67" y1="209.203" x2="431.597" y2="313.438" gradientUnits="userSpaceOnUse">
<stop stop-color="#4169D8"/>
<stop offset="1" stop-color="#0F14AE"/>
</linearGradient>
<linearGradient id="paint2_linear_106_1460" x1="63.6832" y1="184.572" x2="115.494" y2="228.705" gradientUnits="userSpaceOnUse">
<stop stop-color="#4169D8"/>
<stop offset="1" stop-color="#0F14AE"/>
</linearGradient>
</defs>
</svg>
