<svg width="729" height="464" viewBox="0 0 729 464" fill="none" xmlns="http://www.w3.org/2000/svg">
<path fill-rule="evenodd" clip-rule="evenodd" d="M536.201 268.641V252.001H519.548V268.641H536.201Z" fill="white"/>
<path fill-rule="evenodd" clip-rule="evenodd" d="M528.789 344.375V327.736H512.136V344.375H528.789Z" fill="white"/>
<path fill-rule="evenodd" clip-rule="evenodd" d="M499.844 343.91V336.053H491.98V343.91H499.844Z" fill="white"/>
<path fill-rule="evenodd" clip-rule="evenodd" d="M502.474 311.605V308.148H499.014V311.605H502.474Z" fill="white"/>
<path fill-rule="evenodd" clip-rule="evenodd" d="M516.067 300.801V292.943H508.203V300.801H516.067Z" fill="white"/>
<path fill-rule="evenodd" clip-rule="evenodd" d="M490.885 342.883V329.106H477.098V342.883H490.885Z" fill="#CCA4FD"/>
<path opacity="0.251116" fill-rule="evenodd" clip-rule="evenodd" d="M526.408 358.125V355.262H523.543V358.125H526.408Z" fill="#ADBCFC"/>
<path fill-rule="evenodd" clip-rule="evenodd" d="M476.865 273.457V270.594H474V273.457H476.865Z" fill="#662D91"/>
<path opacity="0.251116" fill-rule="evenodd" clip-rule="evenodd" d="M528.861 313.309V306.803H522.35V313.309H528.861Z" fill="#662D91"/>
<path fill-rule="evenodd" clip-rule="evenodd" d="M481.414 314.266V307.76H474.903V314.266H481.414Z" fill="#CCA4FD"/>
<g filter="url(#filter0_d_103_252)">
<path d="M463 411.445C470.18 411.445 476 405.625 476 398.445C476 391.266 470.18 385.445 463 385.445C455.82 385.445 450 391.266 450 398.445C450 405.625 455.82 411.445 463 411.445Z" fill="black"/>
</g>
<path d="M463 411.445C470.18 411.445 476 405.625 476 398.445C476 391.266 470.18 385.445 463 385.445C455.82 385.445 450 391.266 450 398.445C450 405.625 455.82 411.445 463 411.445Z" fill="#1756C6"/>
<path fill-rule="evenodd" clip-rule="evenodd" d="M428 329.445H446V311.445H428V329.445Z" fill="#CCA4FD"/>
<path fill-rule="evenodd" clip-rule="evenodd" d="M423 395.445H432V386.445H423V395.445Z" fill="#662D91"/>
<path d="M414 329.445H410V333.445H414V329.445Z" fill="#CCA4FD"/>
<path d="M466 354.445H457V363.445H466V354.445Z" fill="#662D91"/>
<path d="M469.019 394.832C468.941 392.949 467.35 391.445 465.392 391.445C463.771 391.445 462.399 392.476 461.931 393.9C461.596 393.761 461.227 393.683 460.84 393.683C459.503 393.683 458.387 394.602 458.123 395.825C457.923 395.775 457.715 395.745 457.499 395.745C456.119 395.745 455 396.832 455 398.173C455 399.504 456.104 400.584 457.472 400.598V400.6H468.979C470.62 400.6 471.949 399.308 471.949 397.715C471.949 396.134 470.641 394.853 469.019 394.832Z" fill="#7BA5F4"/>
<path d="M465.413 395.148H461.432C461.156 395.148 460.932 395.372 460.932 395.648V402.894C460.932 403.17 461.156 403.394 461.432 403.394H465.413C465.689 403.394 465.913 403.17 465.913 402.894V395.648C465.913 395.372 465.689 395.148 465.413 395.148Z" fill="#E4EDFF"/>
<path d="M465.239 397.219H461.78V398.296H465.239V397.219Z" fill="#1756C6"/>
<path d="M465.239 398.562H461.78V399.639H465.239V398.562Z" fill="#1756C6"/>
<g style="mix-blend-mode:darken">
<path d="M464.68 401.645C465.232 401.645 465.68 401.197 465.68 400.645C465.68 400.092 465.232 399.645 464.68 399.645C464.128 399.645 463.68 400.092 463.68 400.645C463.68 401.197 464.128 401.645 464.68 401.645Z" fill="#1756C6"/>
</g>
<g style="mix-blend-mode:darken">
<path d="M463.991 401.645C464.543 401.645 464.991 401.197 464.991 400.645C464.991 400.092 464.543 399.645 463.991 399.645C463.439 399.645 462.991 400.092 462.991 400.645C462.991 401.197 463.439 401.645 463.991 401.645Z" fill="#1756C6"/>
</g>
<g style="mix-blend-mode:darken">
<path d="M464.956 402.137C465.508 402.137 465.956 401.689 465.956 401.137C465.956 400.584 465.508 400.137 464.956 400.137C464.404 400.137 463.956 400.584 463.956 401.137C463.956 401.689 464.404 402.137 464.956 402.137Z" fill="#1756C6"/>
</g>
<g style="mix-blend-mode:darken">
<path d="M464.405 402.137C464.957 402.137 465.405 401.689 465.405 401.137C465.405 400.584 464.957 400.137 464.405 400.137C463.852 400.137 463.405 400.584 463.405 401.137C463.405 401.689 463.852 402.137 464.405 402.137Z" fill="#1756C6"/>
</g>
<g style="mix-blend-mode:darken">
<path d="M463.44 401.645C463.992 401.645 464.44 401.197 464.44 400.645C464.44 400.092 463.992 399.645 463.44 399.645C462.888 399.645 462.44 400.092 462.44 400.645C462.44 401.197 462.888 401.645 463.44 401.645Z" fill="#1756C6"/>
</g>
<g style="mix-blend-mode:darken">
<path d="M463.716 402.137C464.268 402.137 464.716 401.689 464.716 401.137C464.716 400.584 464.268 400.137 463.716 400.137C463.163 400.137 462.716 400.584 462.716 401.137C462.716 401.689 463.163 402.137 463.716 402.137Z" fill="#1756C6"/>
</g>
<g style="mix-blend-mode:darken">
<path d="M462.889 401.645C463.441 401.645 463.889 401.197 463.889 400.645C463.889 400.092 463.441 399.645 462.889 399.645C462.337 399.645 461.889 400.092 461.889 400.645C461.889 401.197 462.337 401.645 462.889 401.645Z" fill="#1756C6"/>
</g>
<g style="mix-blend-mode:darken">
<path d="M463.165 402.137C463.717 402.137 464.165 401.689 464.165 401.137C464.165 400.584 463.717 400.137 463.165 400.137C462.612 400.137 462.165 400.584 462.165 401.137C462.165 401.689 462.612 402.137 463.165 402.137Z" fill="#1756C6"/>
</g>
<g style="mix-blend-mode:darken">
<path d="M462.2 401.645C462.752 401.645 463.2 401.197 463.2 400.645C463.2 400.092 462.752 399.645 462.2 399.645C461.648 399.645 461.2 400.092 461.2 400.645C461.2 401.197 461.648 401.645 462.2 401.645Z" fill="#1756C6"/>
</g>
<g style="mix-blend-mode:darken">
<path d="M462.613 402.137C463.166 402.137 463.613 401.689 463.613 401.137C463.613 400.584 463.166 400.137 462.613 400.137C462.061 400.137 461.613 400.584 461.613 401.137C461.613 401.689 462.061 402.137 462.613 402.137Z" fill="#1756C6"/>
</g>
<g style="mix-blend-mode:darken">
<path d="M464.68 402.746C465.232 402.746 465.68 402.298 465.68 401.746C465.68 401.194 465.232 400.746 464.68 400.746C464.128 400.746 463.68 401.194 463.68 401.746C463.68 402.298 464.128 402.746 464.68 402.746Z" fill="#1756C6"/>
</g>
<g style="mix-blend-mode:darken">
<path d="M463.991 402.746C464.543 402.746 464.991 402.298 464.991 401.746C464.991 401.194 464.543 400.746 463.991 400.746C463.439 400.746 462.991 401.194 462.991 401.746C462.991 402.298 463.439 402.746 463.991 402.746Z" fill="#1756C6"/>
</g>
<g style="mix-blend-mode:darken">
<path d="M464.956 403.238C465.508 403.238 465.956 402.791 465.956 402.238C465.956 401.686 465.508 401.238 464.956 401.238C464.404 401.238 463.956 401.686 463.956 402.238C463.956 402.791 464.404 403.238 464.956 403.238Z" fill="#1756C6"/>
</g>
<g style="mix-blend-mode:darken">
<path d="M464.405 403.238C464.957 403.238 465.405 402.791 465.405 402.238C465.405 401.686 464.957 401.238 464.405 401.238C463.852 401.238 463.405 401.686 463.405 402.238C463.405 402.791 463.852 403.238 464.405 403.238Z" fill="#1756C6"/>
</g>
<g style="mix-blend-mode:darken">
<path d="M463.44 402.746C463.992 402.746 464.44 402.298 464.44 401.746C464.44 401.194 463.992 400.746 463.44 400.746C462.888 400.746 462.44 401.194 462.44 401.746C462.44 402.298 462.888 402.746 463.44 402.746Z" fill="#1756C6"/>
</g>
<g style="mix-blend-mode:darken">
<path d="M463.716 403.238C464.268 403.238 464.716 402.791 464.716 402.238C464.716 401.686 464.268 401.238 463.716 401.238C463.163 401.238 462.716 401.686 462.716 402.238C462.716 402.791 463.163 403.238 463.716 403.238Z" fill="#1756C6"/>
</g>
<g style="mix-blend-mode:darken">
<path d="M462.889 402.746C463.441 402.746 463.889 402.298 463.889 401.746C463.889 401.194 463.441 400.746 462.889 400.746C462.337 400.746 461.889 401.194 461.889 401.746C461.889 402.298 462.337 402.746 462.889 402.746Z" fill="#1756C6"/>
</g>
<g style="mix-blend-mode:darken">
<path d="M463.165 403.238C463.717 403.238 464.165 402.791 464.165 402.238C464.165 401.686 463.717 401.238 463.165 401.238C462.612 401.238 462.165 401.686 462.165 402.238C462.165 402.791 462.612 403.238 463.165 403.238Z" fill="#1756C6"/>
</g>
<g style="mix-blend-mode:darken">
<path d="M462.2 402.746C462.752 402.746 463.2 402.298 463.2 401.746C463.2 401.194 462.752 400.746 462.2 400.746C461.648 400.746 461.2 401.194 461.2 401.746C461.2 402.298 461.648 402.746 462.2 402.746Z" fill="#1756C6"/>
</g>
<g style="mix-blend-mode:darken">
<path d="M462.613 403.238C463.166 403.238 463.613 402.791 463.613 402.238C463.613 401.686 463.166 401.238 462.613 401.238C462.061 401.238 461.613 401.686 461.613 402.238C461.613 402.791 462.061 403.238 462.613 403.238Z" fill="#1756C6"/>
</g>
<g style="mix-blend-mode:darken">
<path d="M461.78 397.117C462.332 397.117 462.78 396.669 462.78 396.117C462.78 395.565 462.332 395.117 461.78 395.117C461.227 395.117 460.78 395.565 460.78 396.117C460.78 396.669 461.227 397.117 461.78 397.117Z" fill="#1756C6"/>
</g>
<path d="M288.954 85.5352L265.303 62.0026L145.972 62.0025C145.723 64.2521 143.816 66.0018 141.5 66.0018C139.015 66.0018 137 63.9871 137 61.5018C137 59.0165 139.015 57.0018 141.5 57.0018C143.816 57.0018 145.724 58.7519 145.973 61.0021L265.714 61.0018L265.861 61.1473L289.659 84.8263L288.954 85.5352Z" fill="#AA65FF"/>
<path d="M342.705 372L366.357 395.532L485.687 395.533C485.936 393.283 487.843 391.533 490.159 391.533C492.644 391.533 494.659 393.548 494.659 396.033C494.659 398.519 492.644 400.533 490.159 400.533C487.843 400.533 485.935 398.783 485.687 396.533L365.945 396.533L365.798 396.388L342 372.709L342.705 372Z" fill="#AA65FF"/>
<rect x="487" y="177" width="153" height="7" fill="#BB8EFF"/>
<rect x="103" y="296" width="153" height="7" fill="#BB8EFF"/>
<g filter="url(#filter1_d_103_252)">
<path d="M359.5 389C460.292 389 542 307.516 542 207C542 106.484 460.292 25 359.5 25C258.708 25 177 106.484 177 207C177 307.516 258.708 389 359.5 389Z" fill="black"/>
</g>
<path d="M359.5 389C460.292 389 542 307.516 542 207C542 106.484 460.292 25 359.5 25C258.708 25 177 106.484 177 207C177 307.516 258.708 389 359.5 389Z" fill="#000B70"/>
<path opacity="0.1998" fill-rule="evenodd" clip-rule="evenodd" d="M193.036 220.363V216.906H189.575V220.363H193.036Z" fill="white"/>
<path opacity="0.1998" fill-rule="evenodd" clip-rule="evenodd" d="M206.969 233.555V230.097H203.509V233.555H206.969Z" fill="white"/>
<path opacity="0.1998" fill-rule="evenodd" clip-rule="evenodd" d="M191.305 199.164V191.307H183.441V199.164H191.305Z" fill="white"/>
<path opacity="0.1998" fill-rule="evenodd" clip-rule="evenodd" d="M211.373 177.199V169.342H203.509V177.199H211.373Z" fill="white"/>
<path opacity="0.201079" fill-rule="evenodd" clip-rule="evenodd" d="M208.665 288.988V272.349H192.012V288.988H208.665Z" fill="white"/>
<path opacity="0.251116" fill-rule="evenodd" clip-rule="evenodd" d="M197.528 249.773V235.997H183.74V249.773H197.528Z" fill="#BBBBF9"/>
<path opacity="0.1998" fill-rule="evenodd" clip-rule="evenodd" d="M215.337 195.625V189.119H208.826V195.625H215.337Z" fill="#CCA4FD"/>
<path fill-rule="evenodd" clip-rule="evenodd" d="M222.945 231.828V228.966H220.08V231.828H222.945Z" fill="#BBBBF9"/>
<path opacity="0.251116" fill-rule="evenodd" clip-rule="evenodd" d="M181.25 222.793V216.287H174.739V222.793H181.25Z" fill="#ADBCFC"/>
<path opacity="0.251116" fill-rule="evenodd" clip-rule="evenodd" d="M215.337 244.414V237.909H208.826V244.414H215.337Z" fill="#662D91"/>
<path opacity="0.299874" fill-rule="evenodd" clip-rule="evenodd" d="M184.888 187.777V174.001H171.101V187.777H184.888Z" fill="#CCA4FD"/>
<path opacity="0.251116" fill-rule="evenodd" clip-rule="evenodd" d="M176.73 250.852V244.346H170.22V250.852H176.73Z" fill="#CCA4FD"/>
<path opacity="0.251116" fill-rule="evenodd" clip-rule="evenodd" d="M212.847 220.496V206.719H199.06V220.496H212.847Z" fill="#CCA4FD"/>
<g filter="url(#filter2_d_103_252)">
<path d="M231 170H227C226.448 170 226 170.448 226 171V243C226 243.552 226.448 244 227 244H231C231.552 244 232 243.552 232 243V171C232 170.448 231.552 170 231 170Z" fill="black"/>
</g>
<path d="M231 170H227C226.448 170 226 170.448 226 171V243C226 243.552 226.448 244 227 244H231C231.552 244 232 243.552 232 243V171C232 170.448 231.552 170 231 170Z" fill="#5995FF"/>
<g filter="url(#filter3_d_103_252)">
<path d="M224 151H219C217.895 151 217 151.895 217 153V261C217 262.105 217.895 263 219 263H224C225.105 263 226 262.105 226 261V153C226 151.895 225.105 151 224 151Z" fill="black"/>
</g>
<path d="M224 151H219C217.895 151 217 151.895 217 153V261C217 262.105 217.895 263 219 263H224C225.105 263 226 262.105 226 261V153C226 151.895 225.105 151 224 151Z" fill="#2E74F1"/>
<g filter="url(#filter4_d_103_252)">
<path d="M364.515 61.4836L481.12 129.032C484.824 131.178 487.105 135.135 487.105 139.416V274.583C487.105 278.863 484.824 282.82 481.12 284.966L364.515 352.515C360.795 354.67 356.206 354.67 352.485 352.515L235.88 284.966C232.176 282.82 229.896 278.863 229.896 274.583V139.416C229.896 135.135 232.176 131.178 235.88 129.032L352.485 61.4836C356.206 59.3284 360.795 59.3284 364.515 61.4836Z" fill="black"/>
</g>
<path d="M364.515 61.4836L481.12 129.032C484.824 131.178 487.105 135.135 487.105 139.416V274.583C487.105 278.863 484.824 282.82 481.12 284.966L364.515 352.515C360.795 354.67 356.206 354.67 352.485 352.515L235.88 284.966C232.176 282.82 229.896 278.863 229.896 274.583V139.416C229.896 135.135 232.176 131.178 235.88 129.032L352.485 61.4836C356.206 59.3284 360.795 59.3284 364.515 61.4836Z" fill="#C6DFFF"/>
<path d="M361 321C423.961 321 475 269.96 475 207C475 144.04 423.961 93 361 93C298.04 93 247 144.04 247 207C247 269.96 298.04 321 361 321Z" fill="#093A94"/>
<path d="M360.198 309.625C417.083 309.625 463.198 263.51 463.198 206.625C463.198 149.74 417.083 103.625 360.198 103.625C303.313 103.625 257.198 149.74 257.198 206.625C257.198 263.51 303.313 309.625 360.198 309.625Z" fill="#1956CF"/>
<path opacity="0.103632" d="M360 300C411.362 300 453 258.362 453 207C453 155.638 411.362 114 360 114C308.638 114 267 155.638 267 207C267 258.362 308.638 300 360 300Z" fill="white"/>
<path fill-rule="evenodd" clip-rule="evenodd" d="M335.722 16.6484V13.1908H332.262V16.6484H335.722Z" fill="white"/>
<path fill-rule="evenodd" clip-rule="evenodd" d="M327.05 62.9961V49.2197H313.263V62.9961H327.05Z" fill="#CCA4FD"/>
<path fill-rule="evenodd" clip-rule="evenodd" d="M292.865 17.7852V14.9226H290V17.7852H292.865Z" fill="#662D91"/>
<path fill-rule="evenodd" clip-rule="evenodd" d="M310.773 36.0156V29.5102H304.263V36.0156H310.773Z" fill="#CCA4FD"/>
<path fill-rule="evenodd" clip-rule="evenodd" d="M297.414 58.5938V52.0883H290.903V58.5938H297.414Z" fill="#CCA4FD"/>
<path fill-rule="evenodd" clip-rule="evenodd" d="M313.911 13.7773V0.000900269H300.123V13.7773H313.911Z" fill="#CCA4FD"/>
<path fill-rule="evenodd" clip-rule="evenodd" d="M356.129 41.9961V29.9961H344.129V41.9961H356.129Z" fill="#662D91"/>
<path fill-rule="evenodd" clip-rule="evenodd" d="M340.129 31.9961V19.9961H328.129V31.9961H340.129Z" fill="#662D91"/>
<path d="M255.5 389C266.546 389 275.5 380.046 275.5 369C275.5 357.954 266.546 349 255.5 349C244.454 349 235.5 357.954 235.5 369C235.5 380.046 244.454 389 255.5 389Z" fill="#FF7474"/>
<g opacity="0.896205">
<path opacity="0.896205" d="M265.084 373.029L258.019 360.395C256.884 358.536 254.117 358.534 252.981 360.395L245.916 373.029C244.756 374.928 246.16 377.333 248.435 377.333H262.565C264.837 377.333 266.245 374.93 265.084 373.029ZM255.5 375.053C254.854 375.053 254.328 374.542 254.328 373.914C254.328 373.285 254.854 372.774 255.5 372.774C256.146 372.774 256.672 373.285 256.672 373.914C256.672 374.542 256.146 375.053 255.5 375.053ZM256.672 370.494C256.672 371.122 256.146 371.634 255.5 371.634C254.854 371.634 254.328 371.122 254.328 370.494V364.794C254.328 364.166 254.854 363.654 255.5 363.654C256.146 363.654 256.672 364.166 256.672 364.794V370.494Z" fill="white"/>
</g>
<path d="M477 77C484.732 77 491 70.732 491 63C491 55.268 484.732 49 477 49C469.268 49 463 55.268 463 63C463 70.732 469.268 77 477 77Z" fill="#FFCC58"/>
<path d="M481.856 63.7506C481.695 63.7506 481.564 63.6199 481.564 63.4588C481.564 62.8153 482.088 62.292 482.733 62.292H484.488C484.649 62.292 484.78 62.161 484.78 62.0003V60.5417C484.78 60.3807 484.911 60.25 485.072 60.25C485.234 60.25 485.365 60.3807 485.365 60.5417V62.0003C485.365 62.4828 484.971 62.8754 484.488 62.8754H482.733C482.411 62.8754 482.148 63.1371 482.148 63.4588C482.148 63.6199 482.017 63.7506 481.856 63.7506Z" fill="#C79218"/>
<path d="M473.669 60.5421H472.207C470.756 60.5421 469.575 59.3642 469.575 57.9167C469.575 57.7557 469.706 57.625 469.867 57.625C470.029 57.625 470.16 57.7557 470.16 57.9167C470.16 59.0427 471.078 59.9587 472.207 59.9587H473.669C473.83 59.9587 473.961 60.0894 473.961 60.2504C473.961 60.4114 473.83 60.5421 473.669 60.5421Z" fill="#C79218"/>
<path d="M475.715 70.4587H473.376C473.215 70.4587 473.084 70.328 473.084 70.167C473.084 70.006 473.215 69.8753 473.376 69.8753H475.715C476.522 69.8753 477.178 69.221 477.178 68.4167C477.178 68.2557 477.309 68.125 477.47 68.125C477.631 68.125 477.762 68.2557 477.762 68.4167C477.762 69.5427 476.844 70.4587 475.715 70.4587Z" fill="#C79218"/>
<path d="M473.669 66.9584H470.745C470.583 66.9584 470.452 66.8277 470.452 66.6667C470.452 66.5057 470.583 66.375 470.745 66.375H473.669C473.83 66.375 473.961 66.5057 473.961 66.6667C473.961 66.8277 473.83 66.9584 473.669 66.9584Z" fill="#C79218"/>
<path d="M477.47 57.0406C477.309 57.0406 477.178 56.9099 477.178 56.7489C477.178 56.4271 476.915 56.1655 476.593 56.1655H475.131C474.969 56.1655 474.838 56.0348 474.838 55.8737C474.838 55.7127 474.969 55.582 475.131 55.582H476.593C477.238 55.582 477.762 56.1054 477.762 56.7489C477.762 56.9099 477.631 57.0406 477.47 57.0406Z" fill="#C79218"/>
<path d="M477.47 58.7907C477.309 58.7907 477.178 58.66 477.178 58.499V56.7487C477.178 56.5877 477.309 56.457 477.47 56.457C477.631 56.457 477.762 56.5877 477.762 56.7487V58.499C477.762 58.66 477.631 58.7907 477.47 58.7907Z" fill="#C79218"/>
<path d="M479.809 59.3742C479.648 59.3742 479.517 59.2435 479.517 59.0824C479.517 58.4389 480.041 57.9156 480.686 57.9156H481.564C481.725 57.9156 481.856 57.7846 481.856 57.6239V56.7487C481.856 56.5877 481.987 56.457 482.148 56.457C482.31 56.457 482.441 56.5877 482.441 56.7487V57.6239C482.441 58.1064 482.047 58.499 481.564 58.499H480.686C480.364 58.499 480.102 58.7607 480.102 59.0824C480.102 59.2435 479.971 59.3742 479.809 59.3742Z" fill="#C79218"/>
<path d="M485.072 67.2492C484.911 67.2492 484.78 67.1185 484.78 66.9574V66.0823C484.78 65.9216 484.649 65.7906 484.488 65.7906H481.703C481.095 65.7906 480.686 65.3218 480.686 64.6237C480.686 64.4627 480.817 64.332 480.979 64.332C481.14 64.332 481.271 64.4627 481.271 64.6237C481.271 64.7994 481.313 65.2072 481.703 65.2072H484.488C484.971 65.2072 485.365 65.5998 485.365 66.0823V66.9574C485.365 67.1185 485.234 67.2492 485.072 67.2492Z" fill="#C79218"/>
<path d="M481.333 69.585C481.166 69.585 481.03 69.4543 481.03 69.2932C481.03 69.1325 480.894 69.0015 480.727 69.0015C480.06 69.0015 479.517 68.4782 479.517 67.8347C479.517 67.6737 479.652 67.543 479.82 67.543C479.987 67.543 480.122 67.6737 480.122 67.8347C480.122 68.1564 480.394 68.4181 480.727 68.4181C481.228 68.4181 481.635 68.8108 481.635 69.2932C481.635 69.4543 481.5 69.585 481.333 69.585Z" fill="#C79218"/>
<path d="M469.862 58.043C470.415 58.043 470.862 57.5953 470.862 57.043C470.862 56.4907 470.415 56.043 469.862 56.043C469.31 56.043 468.862 56.4907 468.862 57.043C468.862 57.5953 469.31 58.043 469.862 58.043Z" fill="#FFF5E0"/>
<path d="M474.459 56.875C475.011 56.875 475.459 56.4273 475.459 55.875C475.459 55.3227 475.011 54.875 474.459 54.875C473.906 54.875 473.459 55.3227 473.459 55.875C473.459 56.4273 473.906 56.875 474.459 56.875Z" fill="#FFF5E0"/>
<path d="M485.088 60.6758C485.64 60.6758 486.088 60.2281 486.088 59.6758C486.088 59.1235 485.64 58.6758 485.088 58.6758C484.535 58.6758 484.088 59.1235 484.088 59.6758C484.088 60.2281 484.535 60.6758 485.088 60.6758Z" fill="#FFF5E0"/>
<path d="M485.088 68.8555C485.64 68.8555 486.088 68.4078 486.088 67.8555C486.088 67.3032 485.64 66.8555 485.088 66.8555C484.535 66.8555 484.088 67.3032 484.088 67.8555C484.088 68.4078 484.535 68.8555 485.088 68.8555Z" fill="#FFF5E0"/>
<path d="M472.448 71.1953C473 71.1953 473.448 70.7476 473.448 70.1953C473.448 69.643 473 69.1953 472.448 69.1953C471.895 69.1953 471.448 69.643 471.448 70.1953C471.448 70.7476 471.895 71.1953 472.448 71.1953Z" fill="#FFF5E0"/>
<path d="M469.862 67.6875C470.415 67.6875 470.862 67.2398 470.862 66.6875C470.862 66.1352 470.415 65.6875 469.862 65.6875C469.31 65.6875 468.862 66.1352 468.862 66.6875C468.862 67.2398 469.31 67.6875 469.862 67.6875Z" fill="#FFF5E0"/>
<path d="M482.215 56.875C482.767 56.875 483.215 56.4273 483.215 55.875C483.215 55.3227 482.767 54.875 482.215 54.875C481.663 54.875 481.215 55.3227 481.215 55.875C481.215 56.4273 481.663 56.875 482.215 56.875Z" fill="#FFF5E0"/>
<path d="M477.619 68.4396C480.316 68.4396 482.502 66.2154 482.502 63.4718C482.502 60.7281 480.316 58.5039 477.619 58.5039C474.921 58.5039 472.735 60.7281 472.735 63.4718C472.735 66.2154 474.921 68.4396 477.619 68.4396Z" fill="#FFF5E0"/>
<path d="M481.353 70.4879C481.195 70.4879 481.066 70.336 481.066 70.1489V69.132C481.066 68.9448 481.195 68.793 481.353 68.793C481.512 68.793 481.641 68.9448 481.641 69.132V70.1489C481.641 70.336 481.512 70.4879 481.353 70.4879Z" fill="#C79218"/>
<path d="M475.321 62.8867H479.917V66.3934H475.321V62.8867Z" fill="#FFC84A"/>
<path d="M476.757 64.0586H478.48V65.2275H476.757V64.0586Z" fill="white"/>
<path d="M477.619 59.9648C476.667 59.9648 475.895 60.7498 475.895 61.7182V62.8871H477.044V61.7182C477.044 61.3953 477.302 61.1338 477.619 61.1338C477.936 61.1338 478.193 61.3953 478.193 61.7182V62.8871H479.342V61.7182C479.342 60.7498 478.571 59.9648 477.619 59.9648Z" fill="#FFC84A"/>
<path d="M481.353 72.0703C481.906 72.0703 482.353 71.6226 482.353 71.0703C482.353 70.518 481.906 70.0703 481.353 70.0703C480.801 70.0703 480.353 70.518 480.353 71.0703C480.353 71.6226 480.801 72.0703 481.353 72.0703Z" fill="#FFF5E0"/>
<path d="M527 131C541.912 131 554 118.912 554 104C554 89.0883 541.912 77 527 77C512.088 77 500 89.0883 500 104C500 118.912 512.088 131 527 131Z" fill="#8F4ADE"/>
<path fill-rule="evenodd" clip-rule="evenodd" d="M527.099 87.444V119.664C532.825 116.897 536.624 110.522 536.624 103.554C536.624 96.5855 532.825 90.2104 527.099 87.444ZM526.146 121.108V86L526.811 86.2813C533.25 89.008 537.577 95.9498 537.577 103.554C537.577 111.158 533.25 118.1 526.811 120.827L526.146 121.108Z" fill="white" stroke="white" stroke-width="0.25"/>
<path fill-rule="evenodd" clip-rule="evenodd" d="M526.009 87.4468C520.283 90.2124 516.484 96.5864 516.484 103.554C516.484 110.521 520.283 116.895 526.009 119.661V87.4468ZM526.962 121.108L526.298 120.827C519.858 118.1 515.531 111.158 515.531 103.554C515.531 95.9495 519.858 89.0082 526.298 86.281L526.962 86V121.108Z" fill="white" stroke="white" stroke-width="0.25"/>
<path fill-rule="evenodd" clip-rule="evenodd" d="M509 103.961H544.108V103.145H509V103.961Z" fill="white" stroke="white" stroke-width="0.25"/>
<path fill-rule="evenodd" clip-rule="evenodd" d="M514.553 92.4749C511.584 95.6251 509.954 99.7183 509.954 104.05C509.954 113.385 517.584 120.98 526.962 120.98C536.341 120.98 543.971 113.385 543.971 104.05C543.971 99.5778 542.247 95.3882 539.108 92.2044C535.654 95.1868 531.254 96.8246 526.666 96.8246C522.239 96.8246 517.956 95.2834 514.553 92.4749ZM526.962 121.928C517.058 121.928 509 113.908 509 104.05C509 99.3199 510.84 94.8597 514.181 91.4909L514.495 91.1738L514.833 91.4664C518.116 94.3096 522.319 95.875 526.666 95.875C531.168 95.875 535.479 94.2157 538.805 91.2022L539.136 90.9023L539.458 91.2123C542.983 94.6125 544.925 99.1712 544.925 104.05C544.925 113.908 536.867 121.928 526.962 121.928Z" fill="white" stroke="white" stroke-width="0.25"/>
<path fill-rule="evenodd" clip-rule="evenodd" d="M514.579 91.7153L513.899 91.0784C517.307 87.8035 521.852 86 526.697 86C531.391 86 535.835 87.7092 539.21 90.8125L538.545 91.4637C535.349 88.5245 531.141 86.9064 526.697 86.9064C522.11 86.9064 517.806 88.6141 514.579 91.7153Z" fill="white" stroke="white" stroke-width="0.25"/>
<path fill-rule="evenodd" clip-rule="evenodd" d="M515.31 91.6064C518.547 94.2292 522.609 95.6681 526.805 95.6681C531.155 95.6681 535.329 94.1392 538.616 91.3517C535.458 88.5065 531.39 86.946 527.102 86.946C522.671 86.946 518.504 88.597 515.31 91.6064ZM526.805 96.6141C522.204 96.6141 517.758 94.9719 514.284 91.9897L513.899 91.6588L514.258 91.3003C517.678 87.8823 522.24 86 527.102 86C531.813 86 536.273 87.7839 539.66 91.0227L540.026 91.3734L539.649 91.7124C536.129 94.8732 531.568 96.6141 526.805 96.6141Z" fill="white" stroke="white" stroke-width="0.25"/>
<path fill-rule="evenodd" clip-rule="evenodd" d="M515.31 116.32C518.504 119.33 522.671 120.981 527.102 120.981C531.389 120.981 535.457 119.42 538.616 116.575C535.329 113.788 531.155 112.258 526.805 112.258C522.608 112.258 518.547 113.698 515.31 116.32ZM527.102 121.927C522.24 121.927 517.678 120.044 514.258 116.626L513.899 116.268L514.284 115.937C517.758 112.955 522.204 111.312 526.805 111.312C531.567 111.312 536.129 113.053 539.649 116.214L540.026 116.553L539.66 116.904C536.272 120.143 531.813 121.927 527.102 121.927Z" fill="white" stroke="white" stroke-width="0.25"/>
<g filter="url(#filter5_d_103_252)">
<path d="M621.5 228C648.838 228 671 205.838 671 178.5C671 151.162 648.838 129 621.5 129C594.162 129 572 151.162 572 178.5C572 205.838 594.162 228 621.5 228Z" fill="black"/>
</g>
<path d="M621.5 228C648.838 228 671 205.838 671 178.5C671 151.162 648.838 129 621.5 129C594.162 129 572 151.162 572 178.5C572 205.838 594.162 228 621.5 228Z" fill="#BC8EFF"/>
<path opacity="0.235491" d="M647.83 160C636.922 160 628.565 157.151 621.498 150.871C614.432 157.151 606.076 160 595.168 160C595.168 176.355 591.465 199.784 621.498 209.299C651.533 199.784 647.83 176.355 647.83 160Z" fill="white"/>
<path d="M618.4 173.633L624.598 179.663" stroke="#979797" stroke-width="1.76923" stroke-linecap="square"/>
<g filter="url(#filter6_d_103_252)">
<path d="M644.589 162.444C635.024 162.444 627.695 159.942 621.498 154.426C615.302 159.942 607.974 162.444 598.409 162.444C598.409 176.81 595.162 197.39 621.498 205.748C647.836 197.39 644.589 176.811 644.589 162.444Z" fill="black"/>
</g>
<path d="M644.589 162.444C635.024 162.444 627.695 159.942 621.498 154.426C615.302 159.942 607.974 162.444 598.409 162.444C598.409 176.81 595.162 197.39 621.498 205.748C647.836 197.39 644.589 176.811 644.589 162.444Z" fill="white"/>
<path opacity="0.189848" d="M640.538 165.427C632.651 165.427 626.608 163.349 621.498 158.766C616.389 163.349 610.347 165.427 602.46 165.427C602.46 177.362 599.782 194.459 621.498 201.402C643.216 194.459 640.538 177.362 640.538 165.427Z" stroke="#5516B6" stroke-width="0.884615"/>
<path opacity="0.142415" d="M621.499 192.395C628.493 192.395 634.162 186.87 634.162 180.055C634.162 173.24 628.493 167.715 621.499 167.715C614.506 167.715 608.836 173.24 608.836 180.055C608.836 186.87 614.506 192.395 621.499 192.395Z" fill="white"/>
<path fill-rule="evenodd" clip-rule="evenodd" d="M621.499 172.949C623.781 172.949 625.631 174.749 625.631 176.97C625.631 178.458 624.8 179.757 623.565 180.452L623.565 187.021H619.433L619.433 180.452C618.198 179.757 617.367 178.458 617.367 176.97C617.367 174.749 619.217 172.949 621.499 172.949Z" fill="#A065FF"/>
<g filter="url(#filter7_d_103_252)">
<path d="M107.5 347C134.838 347 157 324.838 157 297.5C157 270.162 134.838 248 107.5 248C80.1619 248 58 270.162 58 297.5C58 324.838 80.1619 347 107.5 347Z" fill="black"/>
</g>
<path d="M107.5 347C134.838 347 157 324.838 157 297.5C157 270.162 134.838 248 107.5 248C80.1619 248 58 270.162 58 297.5C58 324.838 80.1619 347 107.5 347Z" fill="#BC8EFF"/>
<path opacity="0.235491" d="M133.83 279C122.922 279 114.565 276.151 107.498 269.871C100.432 276.151 92.0756 279 81.1681 279C81.1681 295.355 77.4653 318.784 107.498 328.299C137.533 318.784 133.83 295.355 133.83 279Z" fill="white"/>
<path d="M104.4 292.633L110.598 298.663" stroke="#979797" stroke-width="1.76923" stroke-linecap="square"/>
<g filter="url(#filter8_d_103_252)">
<path d="M130.589 281.444C121.024 281.444 113.695 278.942 107.498 273.426C101.302 278.942 93.9738 281.444 84.4088 281.444C84.4088 295.81 81.1617 316.39 107.498 324.748C133.836 316.39 130.589 295.811 130.589 281.444Z" fill="black"/>
</g>
<path d="M130.589 281.444C121.024 281.444 113.695 278.942 107.498 273.426C101.302 278.942 93.9738 281.444 84.4088 281.444C84.4088 295.81 81.1617 316.39 107.498 324.748C133.836 316.39 130.589 295.811 130.589 281.444Z" fill="white"/>
<path opacity="0.189848" d="M126.538 284.427C118.651 284.427 112.608 282.349 107.498 277.766C102.389 282.349 96.3467 284.427 88.4597 284.427C88.4597 296.362 85.7823 313.459 107.498 320.402C129.216 313.459 126.538 296.362 126.538 284.427Z" stroke="#5516B6" stroke-width="0.884615"/>
<path opacity="0.142415" d="M107.499 311.395C114.493 311.395 120.162 305.87 120.162 299.055C120.162 292.24 114.493 286.715 107.499 286.715C100.506 286.715 94.8363 292.24 94.8363 299.055C94.8363 305.87 100.506 311.395 107.499 311.395Z" fill="white"/>
<path fill-rule="evenodd" clip-rule="evenodd" d="M107.499 291.949C109.781 291.949 111.631 293.749 111.631 295.97C111.631 297.458 110.8 298.757 109.565 299.452L109.565 306.021H105.433L105.433 299.452C104.198 298.757 103.367 297.458 103.367 295.97C103.367 293.749 105.217 291.949 107.499 291.949Z" fill="#A065FF"/>
<path d="M359.857 186.668C353.841 186.668 348.996 191.512 348.996 197.529V199.339C347.005 199.339 345.375 200.969 345.375 202.96V221.062C345.375 223.053 347.005 224.682 348.996 224.682H370.719C372.71 224.682 374.339 223.053 374.339 221.062V202.96C374.339 200.969 372.71 199.339 370.719 199.339V197.529C370.719 191.512 365.874 186.668 359.857 186.668ZM359.857 190.288C363.978 190.288 367.098 193.409 367.098 197.529V199.339H352.616V197.529C352.616 193.409 355.737 190.288 359.857 190.288ZM359.857 208.39C361.849 208.39 363.478 210.019 363.478 212.011C363.478 214.002 361.849 215.631 359.857 215.631C357.866 215.631 356.237 214.002 356.237 212.011C356.237 210.019 357.866 208.39 359.857 208.39Z" fill="white"/>
<path d="M389.809 188.294C390.511 189.117 390.678 190.271 390.217 191.249C389.695 192.358 389.124 193.481 388.52 194.613C387.557 196.416 385.057 196.581 383.742 195.015C381.534 192.387 379.162 189.819 376.669 187.312C373.13 183.754 369.47 180.442 365.688 177.498C363.126 175.413 360.441 173.573 357.879 171.855C355.073 169.892 352.145 168.297 349.339 166.825C346.044 165.108 342.872 163.758 339.822 162.654C335.064 161.059 330.671 160.201 326.645 160.201C321.887 160.201 318.226 161.427 315.664 164.004C311.354 168.337 310.714 176.584 313.85 186.823C314.132 187.744 313.964 188.749 313.383 189.517C312.663 190.469 311.959 191.432 311.275 192.403C309.935 194.304 306.987 194.05 306.224 191.853C301.212 177.421 301.894 164.845 309.32 157.379C313.468 153.208 319.446 151 326.645 151C333.234 151 340.798 152.84 348.485 156.275C351.535 157.625 354.707 159.219 357.879 161.059C360.686 162.777 363.614 164.617 366.42 166.702C369.104 168.665 371.666 170.628 374.35 172.836C377.279 175.29 380.207 177.989 383.013 180.81C385.391 183.305 387.68 185.799 389.809 188.294Z" fill="white"/>
<path d="M411.585 259.585C407.441 263.777 401.47 265.997 394.28 265.997C387.699 265.997 380.143 264.147 372.466 260.694C369.419 259.338 366.251 257.735 363.082 255.885C360.28 254.159 357.355 252.309 354.552 250.336C351.871 248.363 349.311 246.39 346.63 244.17C343.706 241.704 340.781 238.991 337.978 236.155C335.607 233.756 333.324 231.269 331.202 228.768C330.494 227.935 330.337 226.767 330.802 225.778C331.332 224.651 331.905 223.488 332.529 222.297C333.465 220.511 335.913 220.341 337.215 221.881C339.431 224.501 341.812 227.122 344.315 229.742C347.849 233.318 351.505 236.648 355.283 239.608C357.842 241.704 360.523 243.554 363.082 245.28C365.885 247.253 368.81 248.856 371.613 250.336C374.903 252.062 378.072 253.419 381.118 254.529C385.871 256.132 390.258 257.118 394.28 257.118C396.595 257.118 398.789 256.748 400.617 256.132C402.445 255.515 404.029 254.529 405.248 253.295C409.553 248.939 410.192 240.648 406.953 230.355C406.662 229.431 406.825 228.419 407.407 227.645C408.182 226.615 408.941 225.572 409.684 224.521C411.004 222.654 413.888 222.913 414.607 225.083C414.699 225.36 414.788 225.638 414.875 225.919C419.994 240.347 418.775 252.309 411.585 259.585Z" fill="white"/>
<path d="M338.716 254.991C339.612 254.719 340.587 254.872 341.34 255.429C342.405 256.217 343.459 256.988 344.512 257.744C346.367 259.074 346.094 261.945 343.942 262.709C337.87 264.866 332.091 266.005 326.849 266.005C319.712 266.005 313.682 263.809 309.374 259.662C301.006 251.368 301.129 236.61 308.267 220.509C309.62 217.46 311.22 214.289 313.066 211.118C314.666 208.312 316.512 205.507 318.604 202.58C320.573 199.896 322.542 197.213 324.88 194.652C327.342 191.724 330.049 188.797 332.879 185.991C335.279 183.613 337.768 181.322 340.27 179.192C341.092 178.493 342.242 178.327 343.221 178.781C344.354 179.306 345.495 179.874 346.658 180.492C348.454 181.446 348.604 183.926 347.044 185.231C344.394 187.447 341.805 189.83 339.279 192.334C335.587 195.993 332.264 199.652 329.434 203.311C327.342 205.995 325.372 208.556 323.65 211.118C321.681 214.045 320.081 216.85 318.604 219.655C316.881 222.949 315.528 226.12 314.42 229.169C310.728 240.025 311.22 248.807 315.774 253.319C318.235 255.759 322.05 257.101 326.849 257.101C330.396 256.991 334.441 256.288 338.716 254.991Z" fill="white"/>
<path d="M414.927 190.829C414.31 192.656 413.57 194.605 412.707 196.554C411.35 199.599 409.746 202.766 407.896 205.933C406.169 208.734 404.319 211.657 402.346 214.459C400.372 217.139 398.399 219.818 396.179 222.376C393.712 225.299 390.998 228.223 388.161 231.024C385.753 233.401 383.257 235.691 380.748 237.819C379.927 238.514 378.781 238.679 377.804 238.229C376.668 237.704 375.525 237.138 374.359 236.52C372.558 235.568 372.408 233.081 373.973 231.776C376.626 229.565 379.217 227.189 381.747 224.69C385.324 221.158 388.654 217.504 391.615 213.728C393.712 211.17 395.562 208.491 397.289 205.933C399.139 203.131 400.866 200.208 402.346 197.407C403.939 194.259 405.411 191.112 406.398 188.083C406.41 188.046 406.416 188.053 406.416 188.015C406.416 187.973 406.423 187.885 406.437 187.846C410.238 177.033 409.738 168.288 405.183 163.789C402.716 161.353 398.892 160.013 394.082 160.013C390.415 160.013 386.448 160.705 382.18 162C381.287 162.271 380.315 162.118 379.563 161.565C378.487 160.772 377.423 159.996 376.359 159.236C374.504 157.912 374.77 155.047 376.916 154.281C382.937 152.133 388.739 151 394.082 151C401.236 151 407.28 153.192 411.597 157.334C418.751 164.52 419.984 176.335 414.927 190.829Z" fill="white"/>
<defs>
<filter id="filter0_d_103_252" x="425" y="370.445" width="68" height="68" filterUnits="userSpaceOnUse" color-interpolation-filters="sRGB">
<feFlood flood-opacity="0" result="BackgroundImageFix"/>
<feColorMatrix in="SourceAlpha" type="matrix" values="0 0 0 0 0 0 0 0 0 0 0 0 0 0 0 0 0 0 127 0" result="hardAlpha"/>
<feOffset dx="-4" dy="6"/>
<feGaussianBlur stdDeviation="10.5"/>
<feColorMatrix type="matrix" values="0 0 0 0 0.896767 0 0 0 0 0.896767 0 0 0 0 0.896767 0 0 0 1 0"/>
<feBlend mode="normal" in2="BackgroundImageFix" result="effect1_dropShadow_103_252"/>
<feBlend mode="normal" in="SourceGraphic" in2="effect1_dropShadow_103_252" result="shape"/>
</filter>
<filter id="filter1_d_103_252" x="137" y="0" width="465" height="464" filterUnits="userSpaceOnUse" color-interpolation-filters="sRGB">
<feFlood flood-opacity="0" result="BackgroundImageFix"/>
<feColorMatrix in="SourceAlpha" type="matrix" values="0 0 0 0 0 0 0 0 0 0 0 0 0 0 0 0 0 0 127 0" result="hardAlpha"/>
<feOffset dx="10" dy="25"/>
<feGaussianBlur stdDeviation="25"/>
<feColorMatrix type="matrix" values="0 0 0 0 0.451334 0 0 0 0 0.52807 0 0 0 0 1 0 0 0 0.147072 0"/>
<feBlend mode="normal" in2="BackgroundImageFix" result="effect1_dropShadow_103_252"/>
<feBlend mode="normal" in="SourceGraphic" in2="effect1_dropShadow_103_252" result="shape"/>
</filter>
<filter id="filter2_d_103_252" x="207" y="159" width="44" height="112" filterUnits="userSpaceOnUse" color-interpolation-filters="sRGB">
<feFlood flood-opacity="0" result="BackgroundImageFix"/>
<feColorMatrix in="SourceAlpha" type="matrix" values="0 0 0 0 0 0 0 0 0 0 0 0 0 0 0 0 0 0 127 0" result="hardAlpha"/>
<feOffset dy="8"/>
<feGaussianBlur stdDeviation="9.5"/>
<feColorMatrix type="matrix" values="0 0 0 0 0.12549 0 0 0 0 0.167389 0 0 0 0 0.631373 0 0 0 0.157561 0"/>
<feBlend mode="normal" in2="BackgroundImageFix" result="effect1_dropShadow_103_252"/>
<feBlend mode="normal" in="SourceGraphic" in2="effect1_dropShadow_103_252" result="shape"/>
</filter>
<filter id="filter3_d_103_252" x="198" y="140" width="47" height="150" filterUnits="userSpaceOnUse" color-interpolation-filters="sRGB">
<feFlood flood-opacity="0" result="BackgroundImageFix"/>
<feColorMatrix in="SourceAlpha" type="matrix" values="0 0 0 0 0 0 0 0 0 0 0 0 0 0 0 0 0 0 127 0" result="hardAlpha"/>
<feOffset dy="8"/>
<feGaussianBlur stdDeviation="9.5"/>
<feColorMatrix type="matrix" values="0 0 0 0 0.12549 0 0 0 0 0.167389 0 0 0 0 0.631373 0 0 0 0.157561 0"/>
<feBlend mode="normal" in2="BackgroundImageFix" result="effect1_dropShadow_103_252"/>
<feBlend mode="normal" in="SourceGraphic" in2="effect1_dropShadow_103_252" result="shape"/>
</filter>
<filter id="filter4_d_103_252" x="208.896" y="47.8672" width="299.209" height="336.264" filterUnits="userSpaceOnUse" color-interpolation-filters="sRGB">
<feFlood flood-opacity="0" result="BackgroundImageFix"/>
<feColorMatrix in="SourceAlpha" type="matrix" values="0 0 0 0 0 0 0 0 0 0 0 0 0 0 0 0 0 0 127 0" result="hardAlpha"/>
<feOffset dy="9"/>
<feGaussianBlur stdDeviation="10.5"/>
<feColorMatrix type="matrix" values="0 0 0 0 0.768909 0 0 0 0 0.0449427 0 0 0 0 0.0349584 0 0 0 0.157561 0"/>
<feBlend mode="normal" in2="BackgroundImageFix" result="effect1_dropShadow_103_252"/>
<feBlend mode="normal" in="SourceGraphic" in2="effect1_dropShadow_103_252" result="shape"/>
</filter>
<filter id="filter5_d_103_252" x="514" y="93" width="215" height="215" filterUnits="userSpaceOnUse" color-interpolation-filters="sRGB">
<feFlood flood-opacity="0" result="BackgroundImageFix"/>
<feColorMatrix in="SourceAlpha" type="matrix" values="0 0 0 0 0 0 0 0 0 0 0 0 0 0 0 0 0 0 127 0" result="hardAlpha"/>
<feOffset dy="22"/>
<feGaussianBlur stdDeviation="29"/>
<feColorMatrix type="matrix" values="0 0 0 0 0.12549 0 0 0 0 0.364706 0 0 0 0 0.631373 0 0 0 0.121066 0"/>
<feBlend mode="normal" in2="BackgroundImageFix" result="effect1_dropShadow_103_252"/>
<feBlend mode="normal" in="SourceGraphic" in2="effect1_dropShadow_103_252" result="shape"/>
</filter>
<filter id="filter6_d_103_252" x="558.282" y="129.426" width="146.435" height="151.322" filterUnits="userSpaceOnUse" color-interpolation-filters="sRGB">
<feFlood flood-opacity="0" result="BackgroundImageFix"/>
<feColorMatrix in="SourceAlpha" type="matrix" values="0 0 0 0 0 0 0 0 0 0 0 0 0 0 0 0 0 0 127 0" result="hardAlpha"/>
<feOffset dx="10" dy="25"/>
<feGaussianBlur stdDeviation="25"/>
<feColorMatrix type="matrix" values="0 0 0 0 0.451334 0 0 0 0 0.52807 0 0 0 0 1 0 0 0 0.147072 0"/>
<feBlend mode="normal" in2="BackgroundImageFix" result="effect1_dropShadow_103_252"/>
<feBlend mode="normal" in="SourceGraphic" in2="effect1_dropShadow_103_252" result="shape"/>
</filter>
<filter id="filter7_d_103_252" x="0" y="212" width="215" height="215" filterUnits="userSpaceOnUse" color-interpolation-filters="sRGB">
<feFlood flood-opacity="0" result="BackgroundImageFix"/>
<feColorMatrix in="SourceAlpha" type="matrix" values="0 0 0 0 0 0 0 0 0 0 0 0 0 0 0 0 0 0 127 0" result="hardAlpha"/>
<feOffset dy="22"/>
<feGaussianBlur stdDeviation="29"/>
<feColorMatrix type="matrix" values="0 0 0 0 0.12549 0 0 0 0 0.364706 0 0 0 0 0.631373 0 0 0 0.121066 0"/>
<feBlend mode="normal" in2="BackgroundImageFix" result="effect1_dropShadow_103_252"/>
<feBlend mode="normal" in="SourceGraphic" in2="effect1_dropShadow_103_252" result="shape"/>
</filter>
<filter id="filter8_d_103_252" x="44.2817" y="248.426" width="146.435" height="151.322" filterUnits="userSpaceOnUse" color-interpolation-filters="sRGB">
<feFlood flood-opacity="0" result="BackgroundImageFix"/>
<feColorMatrix in="SourceAlpha" type="matrix" values="0 0 0 0 0 0 0 0 0 0 0 0 0 0 0 0 0 0 127 0" result="hardAlpha"/>
<feOffset dx="10" dy="25"/>
<feGaussianBlur stdDeviation="25"/>
<feColorMatrix type="matrix" values="0 0 0 0 0.451334 0 0 0 0 0.52807 0 0 0 0 1 0 0 0 0.147072 0"/>
<feBlend mode="normal" in2="BackgroundImageFix" result="effect1_dropShadow_103_252"/>
<feBlend mode="normal" in="SourceGraphic" in2="effect1_dropShadow_103_252" result="shape"/>
</filter>
</defs>
</svg>
