<svg width="571" height="359" viewBox="0 0 571 359" fill="none" xmlns="http://www.w3.org/2000/svg">
<path d="M529.249 33H474.751C472.679 33 471 34.6792 471 36.7507V89.3118C471 91.3833 472.679 93.0625 474.751 93.0625H529.249C531.321 93.0625 533 91.3833 533 89.3118V36.7507C533 34.6792 531.321 33 529.249 33Z" fill="#2CE4C1"/>
<g opacity="0.95">
<g opacity="0.95">
<path opacity="0.9" d="M519.438 83.3751V81.2375C519.438 78.3157 518.775 75.5204 517.468 72.9294C516.815 71.6336 516.001 70.414 515.059 69.3027L505.339 83.3751H519.438Z" fill="white"/>
<path opacity="0.9" d="M484.589 72.9312C483.286 75.5233 482.625 78.3228 482.625 81.2519V83.3751H496.723L486.994 69.3027C486.054 70.4121 485.242 71.6323 484.589 72.9312Z" fill="white"/>
<path opacity="0.9" d="M499.856 83.3751L496.601 66.4206C492.517 64.7147 489.627 60.6994 489.564 56.0122H483.408L488.994 63.4274H485.93L499.856 83.3751Z" fill="white"/>
<path opacity="0.9" d="M518.654 56.0122H512.607C512.543 60.6965 509.624 64.7099 505.497 66.4175L502.206 83.3751L516.083 63.4274H513.005L518.654 56.0122Z" fill="white"/>
<path opacity="0.9" d="M502.989 66.957C502.477 67.0388 501.953 67.0819 501.42 67.0819C500.889 67.0819 500.367 67.0391 499.856 66.958L501.423 77.1204L502.989 66.957Z" fill="white"/>
<path opacity="0.9" d="M501.031 65.3935C505.998 65.3935 510.039 61.3142 510.039 56.3001C510.039 55.4017 509.907 54.5153 509.653 53.6665H492.41C492.156 54.5153 492.024 55.4017 492.024 56.3001C492.024 61.3141 496.065 65.3935 501.031 65.3935Z" fill="white"/>
<path opacity="0.9" d="M513.955 50.5395V48.0096H509.626L508.789 41.4833C508.646 40.37 507.87 39.4258 506.763 39.0195C505.656 38.613 504.408 38.8142 503.507 39.544L501.38 41.2662C501.178 41.4295 500.885 41.4296 500.683 41.2662L498.556 39.5441C497.654 38.8142 496.406 38.6131 495.3 39.0195C494.193 39.4258 493.416 40.37 493.274 41.4833L492.436 48.0096H488.108V50.5395H513.955Z" fill="white"/>
</g>
</g>
<g filter="url(#filter0_d_1024_7321)">
<path d="M542.352 215H450.648C446.424 215 443 211.696 443 207.619V102.381C443 98.3045 446.424 95 450.648 95H542.352C546.576 95 550 98.3045 550 102.381V207.619C550 211.696 546.576 215 542.352 215Z" fill="black"/>
</g>
<path d="M544.731 218.608H450.831C446.506 218.608 443 215.094 443 210.759V98.849C443 94.514 446.506 91 450.831 91H544.731C549.056 91 552.562 94.514 552.562 98.849V210.759C552.562 215.094 549.056 218.608 544.731 218.608Z" fill="white"/>
<path d="M517.88 164.648V185.145" stroke="#979797" stroke-width="0.5"/>
<path fill-rule="evenodd" clip-rule="evenodd" d="M517.874 187.139L519.791 183.172H515.958L517.874 187.139Z" fill="#D8D8D8"/>
<path d="M517.874 154.072C518.933 154.072 519.791 153.184 519.791 152.088C519.791 150.993 518.933 150.105 517.874 150.105C516.816 150.105 515.958 150.993 515.958 152.088C515.958 153.184 516.816 154.072 517.874 154.072Z" fill="#97EFF5"/>
<path d="M517.874 191.106C518.933 191.106 519.791 190.218 519.791 189.122C519.791 188.027 518.933 187.139 517.874 187.139C516.816 187.139 515.958 188.027 515.958 189.122C515.958 190.218 516.816 191.106 517.874 191.106Z" fill="#D8D8D8"/>
<path d="M517.874 165.967C518.933 165.967 519.791 165.079 519.791 163.983C519.791 162.888 518.933 162 517.874 162C516.816 162 515.958 162.888 515.958 163.983C515.958 165.079 516.816 165.967 517.874 165.967Z" fill="#59CCD2"/>
<path d="M517.874 203.001C518.933 203.001 519.791 202.113 519.791 201.017C519.791 199.922 518.933 199.034 517.874 199.034C516.816 199.034 515.958 199.922 515.958 201.017C515.958 202.113 516.816 203.001 517.874 203.001Z" fill="#59CCD2"/>
<path d="M534.535 151.403H502.495C502.169 151.403 501.904 151.668 501.904 151.994V164.037C501.904 164.363 502.169 164.627 502.495 164.627H534.535C534.861 164.627 535.126 164.363 535.126 164.037V151.994C535.126 151.668 534.861 151.403 534.535 151.403Z" fill="#FFD678"/>
<path d="M534.535 188.438H502.495C502.169 188.438 501.904 188.702 501.904 189.028V201.071C501.904 201.397 502.169 201.662 502.495 201.662H534.535C534.861 201.662 535.126 201.397 535.126 201.071V189.028C535.126 188.702 534.861 188.438 534.535 188.438Z" fill="#6CFCE0"/>
<path d="M485.939 113.097C486.997 113.097 487.856 112.209 487.856 111.113C487.856 110.018 486.997 109.13 485.939 109.13C484.88 109.13 484.022 110.018 484.022 111.113C484.022 112.209 484.88 113.097 485.939 113.097Z" fill="#D8D8D8"/>
<path d="M475.714 181.865C476.772 181.865 477.631 180.977 477.631 179.881C477.631 178.786 476.772 177.898 475.714 177.898C474.655 177.898 473.797 178.786 473.797 179.881C473.797 180.977 474.655 181.865 475.714 181.865Z" fill="#97EFF5"/>
<path d="M475.714 193.76C476.772 193.76 477.631 192.872 477.631 191.776C477.631 190.681 476.772 189.793 475.714 189.793C474.655 189.793 473.797 190.681 473.797 191.776C473.797 192.872 474.655 193.76 475.714 193.76Z" fill="#59CCD2"/>
<path d="M485.941 113.073V115.44C485.941 115.76 485.812 116.066 485.583 116.288L476.078 125.51C475.849 125.733 475.719 126.039 475.719 126.358V140.843" stroke="#979797" stroke-width="0.5"/>
<path d="M475.719 155.407V175.904" stroke="#979797" stroke-width="0.5"/>
<path d="M492.375 179.196H460.335C460.008 179.196 459.744 179.461 459.744 179.787V191.83C459.744 192.156 460.008 192.42 460.335 192.42H492.375C492.701 192.42 492.965 192.156 492.965 191.83V179.787C492.965 179.461 492.701 179.196 492.375 179.196Z" fill="#6CFCE0"/>
<path d="M502.6 103.83H470.559C470.233 103.83 469.969 104.094 469.969 104.42V109.851C469.969 110.177 470.233 110.442 470.559 110.442H502.6C502.926 110.442 503.19 110.177 503.19 109.851V104.42C503.19 104.094 502.926 103.83 502.6 103.83Z" fill="#76A4FF"/>
<path d="M475.714 144.831C476.772 144.831 477.631 143.943 477.631 142.847C477.631 141.752 476.772 140.864 475.714 140.864C474.655 140.864 473.797 141.752 473.797 142.847C473.797 143.943 474.655 144.831 475.714 144.831Z" fill="#97EFF5"/>
<path d="M475.714 156.726C476.772 156.726 477.631 155.838 477.631 154.742C477.631 153.647 476.772 152.759 475.714 152.759C474.655 152.759 473.797 153.647 473.797 154.742C473.797 155.838 474.655 156.726 475.714 156.726Z" fill="#59CCD2"/>
<path d="M492.375 142.162H460.335C460.008 142.162 459.744 142.427 459.744 142.753V154.796C459.744 155.122 460.008 155.386 460.335 155.386H492.375C492.701 155.386 492.965 155.122 492.965 154.796V142.753C492.965 142.427 492.701 142.162 492.375 142.162Z" fill="#FFD678"/>
<path fill-rule="evenodd" clip-rule="evenodd" d="M475.714 140.864L477.631 136.896H473.797L475.714 140.864Z" fill="#D8D8D8"/>
<path fill-rule="evenodd" clip-rule="evenodd" d="M475.714 177.898L477.631 173.93H473.797L475.714 177.898Z" fill="#D8D8D8"/>
<path d="M105.475 219.669H43.4095C40.975 219.669 39 217.599 39 215.048V199.955C39 197.404 40.975 195.334 43.4095 195.334H105.474C107.91 195.334 109.884 197.404 109.884 199.955V215.047C109.885 217.599 107.91 219.669 105.475 219.669Z" fill="#74A4F9"/>
<path fill-rule="evenodd" clip-rule="evenodd" d="M105.475 244.003H43.4095C40.975 244.003 39 241.934 39 239.382V224.29C39 221.739 40.975 219.669 43.4095 219.669H105.474C107.91 219.669 109.884 221.739 109.884 224.29V239.381C109.885 241.934 107.91 244.003 105.475 244.003Z" fill="#4B77EF"/>
<g style="mix-blend-mode:darken">
<path d="M51.1248 212.181C53.7003 212.181 55.7882 210.086 55.7882 207.501C55.7882 204.917 53.7003 202.822 51.1248 202.822C48.5493 202.822 46.4614 204.917 46.4614 207.501C46.4614 210.086 48.5493 212.181 51.1248 212.181Z" fill="#164BB6"/>
</g>
<g style="mix-blend-mode:darken">
<path d="M51.1248 236.516C53.7003 236.516 55.7882 234.42 55.7882 231.836C55.7882 229.251 53.7003 227.156 51.1248 227.156C48.5493 227.156 46.4614 229.251 46.4614 231.836C46.4614 234.42 48.5493 236.516 51.1248 236.516Z" fill="#164BB6"/>
</g>
<path fill-rule="evenodd" clip-rule="evenodd" d="M105.474 195.334H43.4094C40.975 195.334 39 193.265 39 190.713V175.621C39 173.07 40.975 171 43.4094 171H105.473C107.909 171 109.884 173.07 109.884 175.621V190.712C109.884 193.265 107.909 195.334 105.474 195.334Z" fill="#4B77EF"/>
<g style="mix-blend-mode:darken">
<path d="M51.1248 189.719C53.7003 189.719 55.7882 187.624 55.7882 185.039C55.7882 182.455 53.7003 180.359 51.1248 180.359C48.5493 180.359 46.4614 182.455 46.4614 185.039C46.4614 187.624 48.5493 189.719 51.1248 189.719Z" fill="#164BB6"/>
</g>
<path d="M91.23 185.975C92.2602 185.975 93.0953 185.137 93.0953 184.103C93.0953 183.07 92.2602 182.231 91.23 182.231C90.1998 182.231 89.3646 183.07 89.3646 184.103C89.3646 185.137 90.1998 185.975 91.23 185.975Z" fill="white"/>
<path d="M91.23 210.309C92.2602 210.309 93.0953 209.471 93.0953 208.437C93.0953 207.403 92.2602 206.565 91.23 206.565C90.1998 206.565 89.3646 207.403 89.3646 208.437C89.3646 209.471 90.1998 210.309 91.23 210.309Z" fill="white"/>
<path d="M91.23 234.644C92.2602 234.644 93.0953 233.806 93.0953 232.772C93.0953 231.738 92.2602 230.9 91.23 230.9C90.1998 230.9 89.3646 231.738 89.3646 232.772C89.3646 233.806 90.1998 234.644 91.23 234.644Z" fill="white"/>
<path d="M100.557 185.975C101.587 185.975 102.422 185.137 102.422 184.103C102.422 183.07 101.587 182.231 100.557 182.231C99.5266 182.231 98.6914 183.07 98.6914 184.103C98.6914 185.137 99.5266 185.975 100.557 185.975Z" fill="white"/>
<path d="M100.557 210.309C101.587 210.309 102.422 209.471 102.422 208.437C102.422 207.403 101.587 206.565 100.557 206.565C99.5266 206.565 98.6914 207.403 98.6914 208.437C98.6914 209.471 99.5266 210.309 100.557 210.309Z" fill="white"/>
<path d="M100.557 234.644C101.587 234.644 102.422 233.806 102.422 232.772C102.422 231.738 101.587 230.9 100.557 230.9C99.5266 230.9 98.6914 231.738 98.6914 232.772C98.6914 233.806 99.5266 234.644 100.557 234.644Z" fill="white"/>
<g filter="url(#filter1_d_1024_7321)">
<path d="M121 282C144.196 282 163 263.196 163 240C163 216.804 144.196 198 121 198C97.804 198 79 216.804 79 240C79 263.196 97.804 282 121 282Z" fill="black"/>
</g>
<path d="M121 286C146.405 286 167 265.405 167 240C167 214.595 146.405 194 121 194C95.5949 194 75 214.595 75 240C75 265.405 95.5949 286 121 286Z" fill="white"/>
<path d="M123.113 205.323C124.416 205.323 125.57 206.167 125.963 207.41L127.522 212.331C127.816 213.259 128.548 213.974 129.473 214.279C130.756 214.702 131.997 215.219 133.187 215.821C134.058 216.261 135.083 216.275 135.949 215.825L140.535 213.446C141.692 212.846 143.104 213.064 144.026 213.985L147.014 216.974C147.936 217.895 148.154 219.308 147.554 220.465L145.167 225.065C144.719 225.93 144.732 226.953 145.17 227.823C145.767 229.008 146.28 230.242 146.7 231.519C147.005 232.445 147.719 233.177 148.648 233.471L153.59 235.037C154.833 235.431 155.677 236.584 155.677 237.887V242.113C155.677 243.417 154.833 244.57 153.59 244.964L148.627 246.536C147.7 246.829 146.987 247.559 146.681 248.482C146.261 249.747 145.751 250.971 145.158 252.145C144.717 253.016 144.703 254.041 145.153 254.907L147.554 259.536C148.154 260.692 147.936 262.105 147.014 263.026L144.026 266.015C143.104 266.936 141.692 267.155 140.535 266.554L135.894 264.146C135.029 263.698 134.006 263.711 133.136 264.149C131.967 264.737 130.749 265.244 129.491 265.66C128.567 265.966 127.836 266.68 127.542 267.607L125.963 272.591C125.57 273.833 124.416 274.677 123.113 274.677H118.887C117.584 274.677 116.43 273.833 116.037 272.591L114.458 267.607C114.164 266.68 113.433 265.966 112.509 265.66C111.251 265.244 110.034 264.737 108.865 264.149C107.994 263.711 106.971 263.697 106.106 264.146L101.465 266.554C100.308 267.155 98.8956 266.936 97.9739 266.015L94.9857 263.026C94.064 262.105 93.8458 260.692 94.4461 259.536L96.8472 254.907C97.2968 254.041 97.2828 253.016 96.8426 252.145C96.2491 250.971 95.7388 249.747 95.3189 248.482C95.0133 247.559 94.2996 246.829 93.3729 246.536L88.4097 244.964C87.1675 244.57 86.3231 243.417 86.3231 242.113V237.887C86.3231 236.584 87.1675 235.431 88.4097 235.037L93.3521 233.471C94.2809 233.177 94.9954 232.445 95.2998 231.519C95.7201 230.243 96.2329 229.009 96.8302 227.825C97.2692 226.954 97.2819 225.931 96.8332 225.066L94.4461 220.465C93.8458 219.308 94.064 217.895 94.9857 216.974L97.9739 213.985C98.8956 213.064 100.308 212.846 101.465 213.446L106.053 215.826C106.919 216.276 107.944 216.262 108.815 215.822C110.005 215.219 111.245 214.702 112.528 214.279C113.452 213.974 114.184 213.259 114.478 212.332L116.037 207.41C116.43 206.167 117.584 205.323 118.887 205.323H123.113ZM121.708 223.723C112.327 223.723 104.723 231.328 104.723 240.708C104.723 250.088 112.327 257.692 121.708 257.692C131.088 257.692 138.692 250.088 138.692 240.708C138.692 231.328 131.088 223.723 121.708 223.723Z" fill="#598CF1"/>
<mask id="mask0_1024_7321" style="mask-type:alpha" maskUnits="userSpaceOnUse" x="123" y="57" width="314" height="192">
<path d="M429.544 57H130.076C126.168 57 123 60.1681 123 64.0762V240.982C123 244.89 126.168 248.058 130.076 248.058H429.544C433.452 248.058 436.62 244.89 436.62 240.982V64.0762C436.62 60.1681 433.452 57 429.544 57Z" fill="white"/>
</mask>
<g mask="url(#mask0_1024_7321)">
<g filter="url(#filter2_d_1024_7321)">
<path d="M429.544 57H130.076C126.168 57 123 60.1681 123 64.0762V240.982C123 244.89 126.168 248.058 130.076 248.058H429.544C433.452 248.058 436.62 244.89 436.62 240.982V64.0762C436.62 60.1681 433.452 57 429.544 57Z" fill="black"/>
</g>
<path d="M429.544 57H130.076C126.168 57 123 60.1681 123 64.0762V240.982C123 244.89 126.168 248.058 130.076 248.058H429.544C433.452 248.058 436.62 244.89 436.62 240.982V64.0762C436.62 60.1681 433.452 57 429.544 57Z" fill="url(#paint0_linear_1024_7321)"/>
<path opacity="0.2" d="M457.351 48.1548H115.924V81.7668H457.351V48.1548Z" fill="white"/>
</g>
<path opacity="0.6" d="M398.972 64.9609H176.956C175.979 64.9609 175.187 65.753 175.187 66.73V74.6907C175.187 75.6678 175.979 76.4598 176.956 76.4598H398.972C399.949 76.4598 400.742 75.6678 400.742 74.6907V66.73C400.742 65.753 399.949 64.9609 398.972 64.9609Z" fill="white"/>
<path d="M142.46 67.6143L139.806 70.2678L142.46 72.9214" stroke="white" stroke-width="0.78125" stroke-linecap="round" stroke-linejoin="round"/>
<path d="M155.365 67.6143L158.019 70.2678L155.365 72.9214" stroke="white" stroke-width="0.78125" stroke-linecap="round" stroke-linejoin="round"/>
<path d="M423.916 67.7915H417.547V74.8677H423.916V67.7915Z" stroke="white" stroke-width="0.78125" stroke-linecap="round" stroke-linejoin="round"/>
<path d="M419.67 66.6391V64.9609H426.039V72.0372H424.609" stroke="white" stroke-width="0.78125" stroke-linecap="round" stroke-linejoin="round"/>
<g filter="url(#filter3_d_1024_7321)">
<path d="M408.989 95H148.011C144.691 95 142 97.6907 142 101.01V273.99C142 277.309 144.691 280 148.011 280H408.989C412.309 280 415 277.309 415 273.99V101.01C415 97.6907 412.309 95 408.989 95Z" fill="black"/>
</g>
<path d="M413.957 94.9248H144.339C140.909 94.9248 138.129 97.7051 138.129 101.135V279.874C138.129 283.303 140.909 286.084 144.339 286.084H413.957C417.386 286.084 420.167 283.303 420.167 279.874V101.135C420.167 97.7051 417.386 94.9248 413.957 94.9248Z" fill="#F0F5FF"/>
<path d="M152.437 118.268C154.167 118.268 155.57 116.864 155.57 115.134C155.57 113.403 154.167 112 152.437 112C150.706 112 149.303 113.403 149.303 115.134C149.303 116.864 150.706 118.268 152.437 118.268Z" fill="#FF947F"/>
<path d="M163.718 118.268C165.449 118.268 166.852 116.864 166.852 115.134C166.852 113.403 165.449 112 163.718 112C161.987 112 160.584 113.403 160.584 115.134C160.584 116.864 161.987 118.268 163.718 118.268Z" fill="#FFE373"/>
<path d="M175 118.268C176.73 118.268 178.133 116.864 178.133 115.134C178.133 113.403 176.73 112 175 112C173.269 112 171.866 113.403 171.866 115.134C171.866 116.864 173.269 118.268 175 118.268Z" fill="#00B8D9"/>
<path d="M201 141H151C149.343 141 148 142.343 148 144V269C148 270.657 149.343 272 151 272H201C202.657 272 204 270.657 204 269V144C204 142.343 202.657 141 201 141Z" fill="#DEF0FF"/>
<path d="M409 141H328C326.343 141 325 142.343 325 144V269C325 270.657 326.343 272 328 272H409C410.657 272 412 270.657 412 269V144C412 142.343 410.657 141 409 141Z" fill="#DEF0FF"/>
<path d="M312 141H217C215.343 141 214 142.343 214 144V191C214 192.657 215.343 194 217 194H312C313.657 194 315 192.657 315 191V144C315 142.343 313.657 141 312 141Z" fill="#DEF0FF"/>
<path d="M312 206H217C215.343 206 214 207.343 214 209V269C214 270.657 215.343 272 217 272H312C313.657 272 315 270.657 315 269V209C315 207.343 313.657 206 312 206Z" fill="#DEF0FF"/>
<g opacity="0.0337379">
<g opacity="0.0337379" filter="url(#filter4_d_1024_7321)">
<path d="M127.5 114.073C155.39 114.073 178 91.8781 178 64.4999C178 37.1217 155.39 14.9272 127.5 14.9272C99.6096 14.9272 77 37.1217 77 64.4999C77 91.8781 99.6096 114.073 127.5 114.073Z" fill="black"/>
</g>
<path opacity="0.0337379" d="M127.5 114.073C155.39 114.073 178 91.8781 178 64.4999C178 37.1217 155.39 14.9272 127.5 14.9272C99.6096 14.9272 77 37.1217 77 64.4999C77 91.8781 99.6096 114.073 127.5 114.073Z" fill="#BD91FD"/>
</g>
<g opacity="0.0904715">
<g opacity="0.0904715" filter="url(#filter5_d_1024_7321)">
<path d="M127.5 106.38C151.1 106.38 170.231 87.6298 170.231 64.5C170.231 41.3701 151.1 22.6196 127.5 22.6196C103.901 22.6196 84.7693 41.3701 84.7693 64.5C84.7693 87.6298 103.901 106.38 127.5 106.38Z" fill="black"/>
</g>
<path opacity="0.0904715" d="M127.5 106.38C151.1 106.38 170.231 87.6298 170.231 64.5C170.231 41.3701 151.1 22.6196 127.5 22.6196C103.901 22.6196 84.7693 41.3701 84.7693 64.5C84.7693 87.6298 103.901 106.38 127.5 106.38Z" fill="#BD91FD"/>
</g>
<path d="M127.5 100.825C147.762 100.825 164.188 84.5617 164.188 64.5001C164.188 44.4385 147.762 28.1753 127.5 28.1753C107.238 28.1753 90.812 44.4385 90.812 64.5001C90.812 84.5617 107.238 100.825 127.5 100.825Z" fill="#BD91FD"/>
<path opacity="0.235491" d="M150.23 48.4352C140.813 48.4352 133.599 46.0006 127.498 40.6328C121.399 46.0006 114.185 48.4352 104.769 48.4352C104.769 62.4141 101.573 82.4388 127.498 90.5713C153.426 82.4389 150.23 62.4142 150.23 48.4352Z" fill="white"/>
<path d="M124.824 60.0859L130.175 65.2404" stroke="#979797" stroke-width="1.76923" stroke-linecap="square"/>
<g filter="url(#filter6_d_1024_7321)">
<path d="M147.432 50.5229C139.174 50.5229 132.848 48.3844 127.499 43.6694C122.15 48.3844 115.824 50.5229 107.567 50.5229C107.567 62.8017 104.764 80.3909 127.498 87.5343C150.235 80.391 147.432 62.8018 147.432 50.5229Z" fill="black"/>
</g>
<path d="M147.432 50.5229C139.174 50.5229 132.848 48.3844 127.499 43.6694C122.15 48.3844 115.824 50.5229 107.567 50.5229C107.567 62.8017 104.764 80.3909 127.498 87.5343C150.235 80.391 147.432 62.8018 147.432 50.5229Z" fill="white"/>
<path opacity="0.189848" d="M143.935 53.075C137.126 53.075 131.91 51.2984 127.499 47.3813C123.088 51.2984 117.872 53.075 111.064 53.075C111.064 63.2758 108.752 77.8884 127.499 83.8229C146.246 77.8885 143.935 63.2759 143.935 53.075Z" stroke="#1C26B9" stroke-width="0.884615"/>
<path opacity="0.142415" d="M127.499 76.1236C133.536 76.1236 138.43 71.4015 138.43 65.5765C138.43 59.7514 133.536 55.0293 127.499 55.0293C121.462 55.0293 116.568 59.7514 116.568 65.5765C116.568 71.4015 121.462 76.1236 127.499 76.1236Z" fill="white"/>
<path fill-rule="evenodd" clip-rule="evenodd" d="M127.499 59.5039C129.469 59.5039 131.067 61.0424 131.067 62.9402C131.067 64.2121 130.349 65.3226 129.283 65.9167L129.283 71.5309H125.716L125.716 65.9167C124.649 65.3226 123.932 64.2121 123.932 62.9402C123.932 61.0424 125.529 59.5039 127.499 59.5039Z" fill="#B990FD"/>
<path d="M451.421 6.57031H272.689C270.48 6.57031 268.689 8.36117 268.689 10.5703V251.134C268.689 253.343 270.48 255.134 272.689 255.134H451.421C453.63 255.134 455.421 253.343 455.421 251.134V10.5703C455.421 8.36117 453.63 6.57031 451.421 6.57031Z" fill="#FF7474"/>
<path opacity="0.8" d="M446.475 15.2344H278.254C276.045 15.2344 274.254 17.0252 274.254 19.2344V244.34C274.254 246.549 276.045 248.34 278.254 248.34H446.475C448.684 248.34 450.475 246.549 450.475 244.34V19.2344C450.475 17.0252 448.684 15.2344 446.475 15.2344Z" fill="white"/>
<path d="M389.885 1H336.71C333.978 1 331.763 3.21465 331.763 5.94655C331.763 8.67845 333.978 10.8931 336.71 10.8931H389.885C392.617 10.8931 394.832 8.67845 394.832 5.94655C394.832 3.21465 392.617 1 389.885 1Z" fill="#DA4242"/>
<path fill-rule="evenodd" clip-rule="evenodd" d="M388.651 25.7266H252V231.008H401.015V38.7087L388.651 25.7266Z" fill="#FEFEFE"/>
<path d="M388.651 38.0621L388.953 26.3125L400.391 38.3698H388.951C388.783 38.3698 388.647 38.2307 388.651 38.0621Z" fill="#EEEEEE" stroke="#EEEEEE"/>
<path d="M327.421 171.075C352.35 171.075 372.559 150.867 372.559 125.938C372.559 101.009 352.35 80.8008 327.421 80.8008C302.493 80.8008 282.284 101.009 282.284 125.938C282.284 150.867 302.493 171.075 327.421 171.075Z" fill="#FF7474"/>
<g opacity="0.908203">
<path opacity="0.908203" d="M350.045 120.25C349.267 120.25 348.637 120.879 348.637 121.657V123.065H342.928C342.748 121.079 342.191 119.176 341.3 117.434H344.414C346.743 117.434 348.637 115.54 348.637 113.211V108.729C350.272 108.146 351.452 106.598 351.452 104.765C351.452 102.436 349.558 100.448 347.229 100.448C344.901 100.448 343.006 102.436 343.006 104.765C343.006 106.598 344.187 108.146 345.822 108.729V113.211C345.822 113.988 345.19 114.619 344.414 114.619H339.447C338.801 113.839 338.088 113.107 337.285 112.454C333.647 109.494 328.782 108.354 324.11 109.335C320.63 110.06 317.518 111.993 315.356 114.619H310.441C309.665 114.619 309.034 113.988 309.034 113.211V108.729C310.669 108.146 311.849 106.598 311.849 104.765C311.849 102.436 309.955 100.448 307.626 100.448C305.297 100.448 303.403 102.436 303.403 104.765C303.403 106.598 304.583 108.146 306.218 108.729V113.211C306.218 115.54 308.113 117.425 310.441 117.425H313.556C312.669 119.162 312.114 121.072 311.964 123.065H306.218V121.657C306.218 120.879 305.589 120.25 304.811 120.25C304.033 120.25 303.403 120.879 303.403 121.657V127.288C303.403 128.066 304.033 128.696 304.811 128.696C305.589 128.696 306.218 128.066 306.218 127.288V125.88H311.987C312.301 128.035 313.311 130.01 314.841 131.511H310.441C308.113 131.511 306.218 133.406 306.218 135.734V140.217C304.583 140.8 303.403 142.348 303.403 144.181C303.403 146.509 305.297 148.497 307.626 148.497C309.955 148.497 311.849 146.509 311.849 144.181C311.849 142.348 310.669 140.8 309.034 140.217V135.734C309.034 134.958 309.665 134.327 310.441 134.327H317.48V135.734C317.48 138.063 319.468 139.957 321.797 139.957H323.205V135.734C323.205 134.956 323.834 134.327 324.612 134.327C325.39 134.327 326.02 134.956 326.02 135.734V139.957H328.835V135.734C328.835 134.956 329.465 134.327 330.243 134.327C331.021 134.327 331.651 134.956 331.651 135.734V139.957H333.152C335.481 139.957 337.375 138.063 337.375 135.734V134.327H344.414C345.19 134.327 345.822 134.958 345.822 135.734V140.217C344.187 140.8 343.006 142.348 343.006 144.181C343.006 146.509 344.901 148.497 347.229 148.497C349.558 148.497 351.452 146.509 351.452 144.181C351.452 142.348 350.272 140.8 348.637 140.217V135.734C348.637 133.406 346.743 131.511 344.414 131.511H339.999C341.019 130.521 341.848 129.334 342.367 127.967C342.624 127.292 342.777 126.592 342.879 125.88H348.637V127.288C348.637 128.06 349.269 128.696 350.045 128.696C350.82 128.696 351.452 128.061 351.452 127.288V121.657C351.452 120.879 350.823 120.25 350.045 120.25ZM321.797 128.696C319.468 128.696 317.48 126.801 317.48 124.473V121.657C317.48 121.169 317.733 120.717 318.148 120.46C318.562 120.202 319.079 120.181 319.517 120.398L325.242 123.214C325.719 123.453 326.02 123.939 326.02 124.473C326.02 126.801 324.126 128.696 321.797 128.696ZM337.375 124.473C337.375 126.801 335.481 128.696 333.152 128.696C330.824 128.696 328.835 126.801 328.835 124.473C328.835 123.939 329.136 123.453 329.613 123.214L335.338 120.398C335.775 120.18 336.293 120.202 336.707 120.46C337.122 120.717 337.375 121.169 337.375 121.657V124.473Z" fill="white"/>
</g>
<path d="M364.622 40.5781H266.744C265.087 40.5781 263.744 41.9213 263.744 43.5781V48.0895C263.744 49.7464 265.087 51.0895 266.744 51.0895H364.622C366.279 51.0895 367.622 49.7464 367.622 48.0895V43.5781C367.622 41.9213 366.279 40.5781 364.622 40.5781Z" fill="#FFEBE6"/>
<path d="M348.545 56.668H266.744C265.087 56.668 263.744 58.0111 263.744 59.668V64.1794C263.744 65.8362 265.087 67.1794 266.744 67.1794H348.545C350.202 67.1794 351.545 65.8362 351.545 64.1794V59.668C351.545 58.0111 350.202 56.668 348.545 56.668Z" fill="#FFEBE6"/>
<path d="M380.076 184.652H352.069C350.412 184.652 349.069 185.995 349.069 187.652V192.163C349.069 193.82 350.412 195.163 352.069 195.163H380.076C381.733 195.163 383.076 193.82 383.076 192.163V187.652C383.076 185.995 381.733 184.652 380.076 184.652Z" fill="#DFD9FF"/>
<path d="M340.414 184.652H306.407V195.163H340.414V184.652Z" fill="#7FB2DF"/>
<path d="M380.076 199.492H352.069C350.412 199.492 349.069 200.835 349.069 202.492V207.004C349.069 208.66 350.412 210.004 352.069 210.004H380.076C381.733 210.004 383.076 208.66 383.076 207.004V202.492C383.076 200.835 381.733 199.492 380.076 199.492Z" fill="#DFD9FF"/>
<path d="M340.414 199.492H306.407V210.004H340.414V199.492Z" fill="#7FB2DF"/>
<path d="M380.076 214.34H352.069C350.412 214.34 349.069 215.683 349.069 217.34V221.851C349.069 223.508 350.412 224.851 352.069 224.851H380.076C381.733 224.851 383.076 223.508 383.076 221.851V217.34C383.076 215.683 381.733 214.34 380.076 214.34Z" fill="#DFD9FF"/>
<path d="M343.129 214.94L326.159 231.91L337.472 243.224L354.443 226.253L343.129 214.94Z" fill="#0C3989"/>
<g filter="url(#filter7_dd_1024_7321)">
<path d="M333.117 241.697L352.916 221.898L399.585 268.567C405.052 274.034 405.052 282.898 399.585 288.366C394.118 293.833 385.253 293.833 379.786 288.366L333.117 241.697Z" fill="black"/>
</g>
<path d="M333.117 241.697L352.916 221.898L399.585 268.567C405.052 274.034 405.052 282.898 399.585 288.366C394.118 293.833 385.253 293.833 379.786 288.366L333.117 241.697Z" fill="#1756C6"/>
<path opacity="0.804943" d="M330.985 221.448C352.894 199.54 353.066 164.191 331.37 142.495C309.674 120.799 274.326 120.971 252.417 142.88C230.508 164.789 230.336 200.137 252.032 221.833C273.728 243.529 309.077 243.357 330.985 221.448Z" fill="#F6F6FF"/>
<g filter="url(#filter8_dd_1024_7321)">
<path d="M246.001 135.75C271.313 110.438 312.352 110.438 337.664 135.75C362.976 161.062 362.976 202.101 337.664 227.413C312.352 252.725 271.313 252.725 246.001 227.413C220.689 202.101 220.689 161.062 246.001 135.75ZM253.319 142.297C232.048 163.568 232.048 198.054 253.319 219.325C274.589 240.596 309.076 240.596 330.346 219.325C351.617 198.054 351.617 163.568 330.346 142.297C309.076 121.027 274.589 121.027 253.319 142.297Z" fill="black"/>
</g>
<path d="M246.001 135.75C271.313 110.438 312.352 110.438 337.664 135.75C362.976 161.062 362.976 202.101 337.664 227.413C312.352 252.725 271.313 252.725 246.001 227.413C220.689 202.101 220.689 161.062 246.001 135.75ZM253.319 142.297C232.048 163.568 232.048 198.054 253.319 219.325C274.589 240.596 309.076 240.596 330.346 219.325C351.617 198.054 351.617 163.568 330.346 142.297C309.076 121.027 274.589 121.027 253.319 142.297Z" fill="#1756C6"/>
<g filter="url(#filter9_d_1024_7321)">
<path fill-rule="evenodd" clip-rule="evenodd" d="M138.127 244.584L174.5 244.452L211 244.584L192.75 230.383L176.468 217.674C175.317 216.775 173.683 216.775 172.532 217.674L156.25 230.383L138 244.584H138.127Z" fill="#F5B520"/>
<path d="M211 244.584H138V286.662H211V244.584Z" fill="#F5B520"/>
<path fill-rule="evenodd" clip-rule="evenodd" d="M146.891 280.117H201.641V222.143H146.891V280.117Z" fill="#FFF1D2"/>
<path fill-rule="evenodd" clip-rule="evenodd" d="M138 245.987V289H211V248.253L174.5 267.493L138 245.987Z" fill="#FFC84A"/>
<path fill-rule="evenodd" clip-rule="evenodd" d="M138 245.987V286.956C138 287.779 138.397 288.515 139.018 289L174.968 267.794L138 245.987Z" fill="#FFD678"/>
<path fill-rule="evenodd" clip-rule="evenodd" d="M210.875 245.987L174.032 267.757L209.982 289C210.604 288.514 211 287.777 211 286.952V246.236C211 246.135 210.951 246.046 210.875 245.987Z" fill="#FFD678"/>
</g>
<path d="M192 230H156C155.448 230 155 230.448 155 231C155 231.552 155.448 232 156 232H192C192.552 232 193 231.552 193 231C193 230.448 192.552 230 192 230Z" fill="white"/>
<path d="M192 239H156C155.448 239 155 239.448 155 240C155 240.552 155.448 241 156 241H192C192.552 241 193 240.552 193 240C193 239.448 192.552 239 192 239Z" fill="white"/>
<path d="M192 248H156C155.448 248 155 248.448 155 249C155 249.552 155.448 250 156 250H192C192.552 250 193 249.552 193 249C193 248.448 192.552 248 192 248Z" fill="white"/>
<defs>
<filter id="filter0_d_1024_7321" x="422" y="83" width="149" height="162" filterUnits="userSpaceOnUse" color-interpolation-filters="sRGB">
<feFlood flood-opacity="0" result="BackgroundImageFix"/>
<feColorMatrix in="SourceAlpha" type="matrix" values="0 0 0 0 0 0 0 0 0 0 0 0 0 0 0 0 0 0 127 0" result="hardAlpha"/>
<feOffset dy="9"/>
<feGaussianBlur stdDeviation="10.5"/>
<feColorMatrix type="matrix" values="0 0 0 0 0.12549 0 0 0 0 0.167389 0 0 0 0 0.631373 0 0 0 0.157561 0"/>
<feBlend mode="normal" in2="BackgroundImageFix" result="effect1_dropShadow_1024_7321"/>
<feBlend mode="normal" in="SourceGraphic" in2="effect1_dropShadow_1024_7321" result="shape"/>
</filter>
<filter id="filter1_d_1024_7321" x="57" y="186" width="128" height="128" filterUnits="userSpaceOnUse" color-interpolation-filters="sRGB">
<feFlood flood-opacity="0" result="BackgroundImageFix"/>
<feColorMatrix in="SourceAlpha" type="matrix" values="0 0 0 0 0 0 0 0 0 0 0 0 0 0 0 0 0 0 127 0" result="hardAlpha"/>
<feOffset dy="10"/>
<feGaussianBlur stdDeviation="11"/>
<feColorMatrix type="matrix" values="0 0 0 0 0.0785859 0 0 0 0 0.129961 0 0 0 0 0.359375 0 0 0 0.137292 0"/>
<feBlend mode="normal" in2="BackgroundImageFix" result="effect1_dropShadow_1024_7321"/>
<feBlend mode="normal" in="SourceGraphic" in2="effect1_dropShadow_1024_7321" result="shape"/>
</filter>
<filter id="filter2_d_1024_7321" x="83" y="32" width="413.62" height="291.058" filterUnits="userSpaceOnUse" color-interpolation-filters="sRGB">
<feFlood flood-opacity="0" result="BackgroundImageFix"/>
<feColorMatrix in="SourceAlpha" type="matrix" values="0 0 0 0 0 0 0 0 0 0 0 0 0 0 0 0 0 0 127 0" result="hardAlpha"/>
<feOffset dx="10" dy="25"/>
<feGaussianBlur stdDeviation="25"/>
<feColorMatrix type="matrix" values="0 0 0 0 0.451334 0 0 0 0 0.52807 0 0 0 0 1 0 0 0 0.147072 0"/>
<feBlend mode="normal" in2="BackgroundImageFix" result="effect1_dropShadow_1024_7321"/>
<feBlend mode="normal" in="SourceGraphic" in2="effect1_dropShadow_1024_7321" result="shape"/>
</filter>
<filter id="filter3_d_1024_7321" x="90" y="70" width="377" height="289" filterUnits="userSpaceOnUse" color-interpolation-filters="sRGB">
<feFlood flood-opacity="0" result="BackgroundImageFix"/>
<feColorMatrix in="SourceAlpha" type="matrix" values="0 0 0 0 0 0 0 0 0 0 0 0 0 0 0 0 0 0 127 0" result="hardAlpha"/>
<feOffset dy="27"/>
<feGaussianBlur stdDeviation="26"/>
<feColorMatrix type="matrix" values="0 0 0 0 0.00392157 0 0 0 0 0.70671 0 0 0 0 0.8 0 0 0 0.247432 0"/>
<feBlend mode="normal" in2="BackgroundImageFix" result="effect1_dropShadow_1024_7321"/>
<feBlend mode="normal" in="SourceGraphic" in2="effect1_dropShadow_1024_7321" result="shape"/>
</filter>
<filter id="filter4_d_1024_7321" x="54" y="0.927246" width="159" height="157.146" filterUnits="userSpaceOnUse" color-interpolation-filters="sRGB">
<feFlood flood-opacity="0" result="BackgroundImageFix"/>
<feColorMatrix in="SourceAlpha" type="matrix" values="0 0 0 0 0 0 0 0 0 0 0 0 0 0 0 0 0 0 127 0" result="hardAlpha"/>
<feOffset dx="6" dy="15"/>
<feGaussianBlur stdDeviation="14.5"/>
<feColorMatrix type="matrix" values="0 0 0 0 0.451334 0 0 0 0 0.52807 0 0 0 0 1 0 0 0 0.147072 0"/>
<feBlend mode="normal" in2="BackgroundImageFix" result="effect1_dropShadow_1024_7321"/>
<feBlend mode="normal" in="SourceGraphic" in2="effect1_dropShadow_1024_7321" result="shape"/>
</filter>
<filter id="filter5_d_1024_7321" x="61.7693" y="8.61963" width="143.462" height="141.761" filterUnits="userSpaceOnUse" color-interpolation-filters="sRGB">
<feFlood flood-opacity="0" result="BackgroundImageFix"/>
<feColorMatrix in="SourceAlpha" type="matrix" values="0 0 0 0 0 0 0 0 0 0 0 0 0 0 0 0 0 0 127 0" result="hardAlpha"/>
<feOffset dx="6" dy="15"/>
<feGaussianBlur stdDeviation="14.5"/>
<feColorMatrix type="matrix" values="0 0 0 0 0.451334 0 0 0 0 0.52807 0 0 0 0 1 0 0 0 0.147072 0"/>
<feBlend mode="normal" in2="BackgroundImageFix" result="effect1_dropShadow_1024_7321"/>
<feBlend mode="normal" in="SourceGraphic" in2="effect1_dropShadow_1024_7321" result="shape"/>
</filter>
<filter id="filter6_d_1024_7321" x="67.457" y="18.6694" width="140.085" height="143.865" filterUnits="userSpaceOnUse" color-interpolation-filters="sRGB">
<feFlood flood-opacity="0" result="BackgroundImageFix"/>
<feColorMatrix in="SourceAlpha" type="matrix" values="0 0 0 0 0 0 0 0 0 0 0 0 0 0 0 0 0 0 127 0" result="hardAlpha"/>
<feOffset dx="10" dy="25"/>
<feGaussianBlur stdDeviation="25"/>
<feColorMatrix type="matrix" values="0 0 0 0 0.451334 0 0 0 0 0.52807 0 0 0 0 1 0 0 0 0.147072 0"/>
<feBlend mode="normal" in2="BackgroundImageFix" result="effect1_dropShadow_1024_7321"/>
<feBlend mode="normal" in="SourceGraphic" in2="effect1_dropShadow_1024_7321" result="shape"/>
</filter>
<filter id="filter7_dd_1024_7321" x="286.117" y="186.898" width="164.569" height="164.568" filterUnits="userSpaceOnUse" color-interpolation-filters="sRGB">
<feFlood flood-opacity="0" result="BackgroundImageFix"/>
<feColorMatrix in="SourceAlpha" type="matrix" values="0 0 0 0 0 0 0 0 0 0 0 0 0 0 0 0 0 0 127 0" result="hardAlpha"/>
<feOffset dy="6"/>
<feGaussianBlur stdDeviation="11.5"/>
<feColorMatrix type="matrix" values="0 0 0 0 0.127512 0 0 0 0 0.698802 0 0 0 0 0.728402 0 0 0 0.18078 0"/>
<feBlend mode="normal" in2="BackgroundImageFix" result="effect1_dropShadow_1024_7321"/>
<feColorMatrix in="SourceAlpha" type="matrix" values="0 0 0 0 0 0 0 0 0 0 0 0 0 0 0 0 0 0 127 0" result="hardAlpha"/>
<feOffset dy="12"/>
<feGaussianBlur stdDeviation="23.5"/>
<feColorMatrix type="matrix" values="0 0 0 0 0 0 0 0 0 0.271378 0 0 0 0 0.285439 0 0 0 0.598312 0"/>
<feBlend mode="normal" in2="effect1_dropShadow_1024_7321" result="effect2_dropShadow_1024_7321"/>
<feBlend mode="normal" in="SourceGraphic" in2="effect2_dropShadow_1024_7321" result="shape"/>
</filter>
<filter id="filter8_dd_1024_7321" x="180.017" y="81.7661" width="223.631" height="223.631" filterUnits="userSpaceOnUse" color-interpolation-filters="sRGB">
<feFlood flood-opacity="0" result="BackgroundImageFix"/>
<feColorMatrix in="SourceAlpha" type="matrix" values="0 0 0 0 0 0 0 0 0 0 0 0 0 0 0 0 0 0 127 0" result="hardAlpha"/>
<feOffset dy="6"/>
<feGaussianBlur stdDeviation="11.5"/>
<feColorMatrix type="matrix" values="0 0 0 0 0.127512 0 0 0 0 0.698802 0 0 0 0 0.728402 0 0 0 0.18078 0"/>
<feBlend mode="normal" in2="BackgroundImageFix" result="effect1_dropShadow_1024_7321"/>
<feColorMatrix in="SourceAlpha" type="matrix" values="0 0 0 0 0 0 0 0 0 0 0 0 0 0 0 0 0 0 127 0" result="hardAlpha"/>
<feOffset dy="12"/>
<feGaussianBlur stdDeviation="23.5"/>
<feColorMatrix type="matrix" values="0 0 0 0 0 0 0 0 0 0.271378 0 0 0 0 0.285439 0 0 0 0.598312 0"/>
<feBlend mode="normal" in2="effect1_dropShadow_1024_7321" result="effect2_dropShadow_1024_7321"/>
<feBlend mode="normal" in="SourceGraphic" in2="effect2_dropShadow_1024_7321" result="shape"/>
</filter>
<filter id="filter9_d_1024_7321" x="120" y="203" width="109" height="108" filterUnits="userSpaceOnUse" color-interpolation-filters="sRGB">
<feFlood flood-opacity="0" result="BackgroundImageFix"/>
<feColorMatrix in="SourceAlpha" type="matrix" values="0 0 0 0 0 0 0 0 0 0 0 0 0 0 0 0 0 0 127 0" result="hardAlpha"/>
<feOffset dy="4"/>
<feGaussianBlur stdDeviation="9"/>
<feColorMatrix type="matrix" values="0 0 0 0 0.506935 0 0 0 0 0.355365 0 0 0 0 0.0556778 0 0 0 0.202306 0"/>
<feBlend mode="normal" in2="BackgroundImageFix" result="effect1_dropShadow_1024_7321"/>
<feBlend mode="normal" in="SourceGraphic" in2="effect1_dropShadow_1024_7321" result="shape"/>
</filter>
<linearGradient id="paint0_linear_1024_7321" x1="190.173" y1="125.984" x2="337.772" y2="230.985" gradientUnits="userSpaceOnUse">
<stop stop-color="#4E6DD7"/>
<stop offset="1" stop-color="#0F14AE"/>
</linearGradient>
</defs>
</svg>
